<?xml version="1.0" encoding="UTF-8" standalone="no"?>
<!DOCTYPE svg PUBLIC "-//W3C//DTD SVG 1.1//EN" "http://www.w3.org/Graphics/SVG/1.1/DTD/svg11.dtd"
[
<!ATTLIST g
  xmlns:vectornator CDATA #FIXED "http://vectornator.io"
  vectornator:layerName CDATA #IMPLIED >
<!ATTLIST g
  xmlns:vectornator CDATA #FIXED "http://vectornator.io"
  vectornator:mask CDATA #IMPLIED >
<!ATTLIST text
  xmlns:vectornator CDATA #FIXED "http://vectornator.io"
  vectornator:width CDATA #IMPLIED >

<!ATTLIST path
  xmlns:vectornator CDATA #FIXED "http://vectornator.io"
  vectornator:blendMode CDATA #IMPLIED >
<!ATTLIST path
  xmlns:vectornator CDATA #FIXED "http://vectornator.io"
  vectornator:shadowColor CDATA #IMPLIED >
<!ATTLIST path
  xmlns:vectornator CDATA #FIXED "http://vectornator.io"
  vectornator:shadowOpacity CDATA #IMPLIED >
<!ATTLIST path
  xmlns:vectornator CDATA #FIXED "http://vectornator.io"
  vectornator:shadowRadius CDATA #IMPLIED >
<!ATTLIST path
  xmlns:vectornator CDATA #FIXED "http://vectornator.io"
  vectornator:shadowOffset CDATA #IMPLIED >
<!ATTLIST path
  xmlns:vectornator CDATA #FIXED "http://vectornator.io"
  vectornator:shadowAngle CDATA #IMPLIED >

<!ATTLIST image
  xmlns:vectornator CDATA #FIXED "http://vectornator.io"
  vectornator:blendMode CDATA #IMPLIED >
<!ATTLIST image
  xmlns:vectornator CDATA #FIXED "http://vectornator.io"
  vectornator:shadowColor CDATA #IMPLIED >
<!ATTLIST image
  xmlns:vectornator CDATA #FIXED "http://vectornator.io"
  vectornator:shadowOpacity CDATA #IMPLIED >
<!ATTLIST image
  xmlns:vectornator CDATA #FIXED "http://vectornator.io"
  vectornator:shadowRadius CDATA #IMPLIED >
<!ATTLIST image
  xmlns:vectornator CDATA #FIXED "http://vectornator.io"
  vectornator:shadowOffset CDATA #IMPLIED >
<!ATTLIST image
  xmlns:vectornator CDATA #FIXED "http://vectornator.io"
  vectornator:shadowAngle CDATA #IMPLIED >

<!ATTLIST g
  xmlns:vectornator CDATA #FIXED "http://vectornator.io"
  vectornator:blendMode CDATA #IMPLIED >
<!ATTLIST g
  xmlns:vectornator CDATA #FIXED "http://vectornator.io"
  vectornator:shadowColor CDATA #IMPLIED >
<!ATTLIST g
  xmlns:vectornator CDATA #FIXED "http://vectornator.io"
  vectornator:shadowOpacity CDATA #IMPLIED >
<!ATTLIST g
  xmlns:vectornator CDATA #FIXED "http://vectornator.io"
  vectornator:shadowRadius CDATA #IMPLIED >
<!ATTLIST g
  xmlns:vectornator CDATA #FIXED "http://vectornator.io"
  vectornator:shadowOffset CDATA #IMPLIED >
<!ATTLIST g
  xmlns:vectornator CDATA #FIXED "http://vectornator.io"
  vectornator:shadowAngle CDATA #IMPLIED >

<!ENTITY % SVG.filter.extra.content  "| feDropShadow" >
<!ELEMENT feDropShadow EMPTY>
<!ATTLIST feDropShadow
  xmlns:svg CDATA #FIXED "http://www.w3.org/Graphics/SVG/1.1/DTD/svg11.dtd"
  dx CDATA #IMPLIED>
<!ATTLIST feDropShadow
  xmlns:svg CDATA #FIXED "http://www.w3.org/Graphics/SVG/1.1/DTD/svg11.dtd"
  dy CDATA #IMPLIED>
<!ATTLIST feDropShadow
  xmlns:svg CDATA #FIXED "http://www.w3.org/Graphics/SVG/1.1/DTD/svg11.dtd"
  stdDeviation CDATA #IMPLIED>
<!ATTLIST feDropShadow
  xmlns:svg CDATA #FIXED "http://www.w3.org/Graphics/SVG/1.1/DTD/svg11.dtd"
  flood-opacity CDATA #IMPLIED>
<!ATTLIST feDropShadow
  xmlns:svg CDATA #FIXED "http://www.w3.org/Graphics/SVG/1.1/DTD/svg11.dtd"
  in CDATA #IMPLIED>
<!ATTLIST feDropShadow
  xmlns:svg CDATA #FIXED "http://www.w3.org/Graphics/SVG/1.1/DTD/svg11.dtd"
  result CDATA #IMPLIED>
<!ATTLIST feDropShadow
  xmlns:svg CDATA #FIXED "http://www.w3.org/Graphics/SVG/1.1/DTD/svg11.dtd"
  flood-color CDATA #IMPLIED>
]
>
<!-- Created with Vectornator (http://vectornator.io/) -->
<svg height="100%" stroke-miterlimit="10" style="fill-rule:nonzero;clip-rule:evenodd;stroke-linecap:round;stroke-linejoin:round;" version="1.1" viewBox="0 0 1114.45 768" width="100%" xml:space="preserve" xmlns="http://www.w3.org/2000/svg" xmlns:vectornator="http://vectornator.io" xmlns:xlink="http://www.w3.org/1999/xlink">
<defs/>
<g id="Слой-1" vectornator:layerName="Слой-1">
<path d="M6.39931 504.052L6.39931 263.948C6.39931 220.146 45.2051 184.637 93.0746 184.637L1021.38 184.637C1069.25 184.637 1108.05 220.146 1108.05 263.948L1108.05 504.052C1108.05 547.854 1069.25 583.363 1021.38 583.363L93.0746 583.363C45.2051 583.363 6.39931 547.854 6.39931 504.052Z" fill="#a2845e" fill-rule="evenodd" opacity="1" stroke="none"/>
<path d="M1018.36 575.137L96.0908 575.137C52.1063 575.137 16.4498 541.949 16.4498 501.009L16.4498 266.991C16.4498 226.051 52.1063 192.863 96.0909 192.863L1018.36 192.863C1062.34 192.863 1098 226.051 1098 266.991L1098 501.009C1098 541.949 1062.34 575.137 1018.36 575.137Z" fill="#683f15" fill-rule="evenodd" opacity="1" stroke="none"/>
</g>
<g id="Слой-3" vectornator:layerName="Слой-3">
<g opacity="1">
<g opacity="1">
<path d="M112.643 226.5L112.643 226.5C145.78 226.5 172.643 252.516 172.643 284.608L172.643 483.392C172.643 515.484 145.78 541.5 112.643 541.5L112.643 541.5C79.5055 541.5 52.6426 515.484 52.6426 483.392L52.6426 284.608C52.6426 252.516 79.5055 226.5 112.643 226.5Z" fill="#441b15" fill-rule="evenodd" opacity="1" stroke="none"/>
<path d="M112.643 231.994L112.643 231.994C143.437 231.994 168.401 257.211 168.401 288.318L168.401 480.998C168.401 512.105 143.437 537.322 112.643 537.322L112.643 537.322C81.8481 537.322 56.8842 512.105 56.8842 480.998L56.8842 288.318C56.8842 257.211 81.8481 231.994 112.643 231.994Z" fill="#906c3c" fill-rule="evenodd" opacity="1" stroke="none"/>
<path d="M128.183 383.434C128.183 391.414 127.039 398.181 124.753 403.734C121.859 410.548 117.683 413.838 112.223 413.604C106.669 413.371 102.609 409.941 100.043 403.314C98.0826 398.181 97.1026 391.554 97.1026 383.434C97.1026 377.088 98.2693 371.091 100.603 365.444C103.636 358.071 107.929 354.384 113.483 354.384C118.429 354.384 122.233 357.674 124.893 364.254C127.086 369.621 128.183 376.014 128.183 383.434ZM118.103 383.434C118.056 377.414 117.823 373.214 117.403 370.834C116.609 366.354 115.023 364.114 112.643 364.114C111.289 364.114 110.029 366.354 108.863 370.834C107.836 374.894 107.276 379.094 107.183 383.434C107.043 388.148 107.439 392.698 108.373 397.084C109.399 401.984 110.683 404.434 112.223 404.434C113.576 404.434 114.906 401.984 116.213 397.084C117.519 392.324 118.149 387.774 118.103 383.434Z" fill="#ffffff" fill-rule="evenodd" opacity="1" stroke="none"/>
</g>
<g opacity="1">
<path d="M1001.81 226.5L1001.81 226.5C1034.95 226.5 1061.81 252.516 1061.81 284.608L1061.81 483.392C1061.81 515.484 1034.95 541.5 1001.81 541.5L1001.81 541.5C968.672 541.5 941.81 515.484 941.81 483.392L941.81 284.608C941.81 252.516 968.672 226.5 1001.81 226.5Z" fill="#441b15" fill-rule="evenodd" opacity="1" stroke="none"/>
<path d="M1001.81 231.336L1001.81 231.336C1032.6 231.336 1057.57 256.553 1057.57 287.66L1057.57 480.34C1057.57 511.447 1032.6 536.664 1001.81 536.664L1001.81 536.664C971.015 536.664 946.051 511.447 946.051 480.34L946.051 287.66C946.051 256.553 971.015 231.336 1001.81 231.336Z" fill="#906c3c" fill-rule="evenodd" opacity="1" stroke="none"/>
<path d="M1017.35 383.434C1017.35 391.414 1016.21 398.181 1013.92 403.734C1011.03 410.548 1006.85 413.838 1001.39 413.604C995.836 413.371 991.776 409.941 989.21 403.314C987.25 398.181 986.27 391.554 986.27 383.434C986.27 377.088 987.436 371.091 989.77 365.444C992.803 358.071 997.096 354.384 1002.65 354.384C1007.6 354.384 1011.4 357.674 1014.06 364.254C1016.25 369.621 1017.35 376.014 1017.35 383.434ZM1007.27 383.434C1007.22 377.414 1006.99 373.214 1006.57 370.834C1005.78 366.354 1004.19 364.114 1001.81 364.114C1000.46 364.114 999.196 366.354 998.03 370.834C997.003 374.894 996.443 379.094 996.35 383.434C996.21 388.148 996.606 392.698 997.54 397.084C998.566 401.984 999.85 404.434 1001.39 404.434C1002.74 404.434 1004.07 401.984 1005.38 397.084C1006.69 392.324 1007.32 387.774 1007.27 383.434Z" fill="#ffffff" fill-rule="evenodd" opacity="1" stroke="none"/>
</g>
</g>
<g opacity="1">
<g opacity="1">
<g opacity="1">
<g opacity="1">
<g opacity="1">
<path d="M312.721 312.455C312.721 279.317 339.584 252.455 372.721 252.455C405.858 252.455 432.721 279.317 432.721 312.455C432.721 345.592 405.858 372.455 372.721 372.455C339.584 372.455 312.721 345.592 312.721 312.455Z" fill="#441b15" fill-rule="evenodd" opacity="1" stroke="none"/>
<path d="M315.721 312.455C315.721 280.974 341.241 255.455 372.721 255.455C404.201 255.455 429.721 280.974 429.721 312.455C429.721 343.935 404.201 369.455 372.721 369.455C341.241 369.455 315.721 343.935 315.721 312.455Z" fill="#906c3c" fill-rule="evenodd" opacity="1" stroke="none"/>
</g>
</g>
<path d="M387.947 298.21C387.34 300.03 385.38 300.94 382.067 300.94C379.5 300.94 377.68 300.31 376.607 299.05C376.234 298.583 376.047 298 376.047 297.3C376.047 297.067 376.07 296.728 376.117 296.285C376.164 295.842 376.187 295.503 376.187 295.27C376.187 294.57 375.954 294.01 375.487 293.59C375.16 292.097 374.414 291.397 373.247 291.49C372.22 291.537 371.1 293.24 369.887 296.6C368.674 299.96 367.974 303.39 367.787 306.89C369.234 304.743 371.194 303.67 373.667 303.67C377.54 303.67 380.737 305.35 383.257 308.71C385.59 311.79 386.874 315.57 387.107 320.05C387.294 323.69 386.244 328.03 383.957 333.07C381.344 338.903 378.334 341.82 374.927 341.82C369.56 341.82 365.29 339.58 362.117 335.1C358.944 330.62 357.334 324.483 357.287 316.69C357.24 307.03 358.652 299.015 361.522 292.645C364.392 286.275 368.02 283.09 372.407 283.09C377.307 283.09 381.32 285.983 384.447 291.77C386.92 293.543 388.157 295.27 388.157 296.95C388.157 297.37 388.087 297.79 387.947 298.21ZM377.027 323.41C377.354 321.87 377.517 320.307 377.517 318.72C377.517 314.473 376.514 312.117 374.507 311.65C373.48 311.417 372.384 312.49 371.217 314.87C370.237 316.923 369.514 319.21 369.047 321.73C368.814 322.99 368.697 324.39 368.697 325.93C368.697 330.037 369.374 332.277 370.727 332.65C371.987 333.023 373.27 332.113 374.577 329.92C375.744 328.007 376.56 325.837 377.027 323.41Z" fill="#ffffff" fill-rule="evenodd" opacity="1" stroke="none"/>
</g>
<g opacity="1">
<g opacity="1">
<g opacity="1">
<path d="M558.728 312.455C558.728 279.317 585.59 252.455 618.728 252.455C651.864 252.455 678.728 279.317 678.728 312.455C678.728 345.592 651.864 372.455 618.728 372.455C585.59 372.455 558.728 345.592 558.728 312.455Z" fill="#441b15" fill-rule="evenodd" opacity="1" stroke="none"/>
<path d="M561.728 312.455C561.728 280.974 587.247 255.455 618.728 255.455C650.207 255.455 675.728 280.974 675.728 312.455C675.728 343.935 650.207 369.455 618.728 369.455C587.247 369.455 561.728 343.935 561.728 312.455Z" fill="#906c3c" fill-rule="evenodd" opacity="1" stroke="none"/>
</g>
</g>
<path d="M633.953 298.21C633.347 300.03 631.387 300.94 628.073 300.94C625.507 300.94 623.687 300.31 622.613 299.05C622.24 298.583 622.053 298 622.053 297.3C622.053 297.067 622.077 296.728 622.123 296.285C622.17 295.842 622.193 295.503 622.193 295.27C622.193 294.57 621.96 294.01 621.493 293.59C621.167 292.097 620.42 291.397 619.253 291.49C618.227 291.537 617.107 293.24 615.893 296.6C614.68 299.96 613.98 303.39 613.793 306.89C615.24 304.743 617.2 303.67 619.673 303.67C623.547 303.67 626.743 305.35 629.263 308.71C631.597 311.79 632.88 315.57 633.113 320.05C633.3 323.69 632.25 328.03 629.963 333.07C627.35 338.903 624.34 341.82 620.933 341.82C615.567 341.82 611.297 339.58 608.123 335.1C604.95 330.62 603.34 324.483 603.293 316.69C603.247 307.03 604.658 299.015 607.528 292.645C610.398 286.275 614.027 283.09 618.413 283.09C623.313 283.09 627.327 285.983 630.453 291.77C632.927 293.543 634.163 295.27 634.163 296.95C634.163 297.37 634.093 297.79 633.953 298.21ZM623.033 323.41C623.36 321.87 623.523 320.307 623.523 318.72C623.523 314.473 622.52 312.117 620.513 311.65C619.487 311.417 618.39 312.49 617.223 314.87C616.243 316.923 615.52 319.21 615.053 321.73C614.82 322.99 614.703 324.39 614.703 325.93C614.703 330.037 615.38 332.277 616.733 332.65C617.993 333.023 619.277 332.113 620.583 329.92C621.75 328.007 622.567 325.837 623.033 323.41Z" fill="#ffffff" fill-rule="evenodd" opacity="1" stroke="none"/>
</g>
<g opacity="1">
<g opacity="1">
<g opacity="1">
<path d="M804.734 312.455C804.734 279.317 831.596 252.455 864.734 252.455C897.87 252.455 924.734 279.317 924.734 312.455C924.734 345.592 897.87 372.455 864.734 372.455C831.596 372.455 804.734 345.592 804.734 312.455Z" fill="#441b15" fill-rule="evenodd" opacity="1" stroke="none"/>
<path d="M807.734 312.455C807.734 280.974 833.253 255.455 864.734 255.455C896.213 255.455 921.734 280.974 921.734 312.455C921.734 343.935 896.213 369.455 864.734 369.455C833.253 369.455 807.734 343.935 807.734 312.455Z" fill="#906c3c" fill-rule="evenodd" opacity="1" stroke="none"/>
</g>
</g>
<path d="M879.959 298.21C879.353 300.03 877.393 300.94 874.079 300.94C871.513 300.94 869.693 300.31 868.619 299.05C868.246 298.583 868.059 298 868.059 297.3C868.059 297.067 868.083 296.728 868.129 296.285C868.176 295.842 868.199 295.503 868.199 295.27C868.199 294.57 867.966 294.01 867.499 293.59C867.173 292.097 866.426 291.397 865.259 291.49C864.233 291.537 863.113 293.24 861.899 296.6C860.686 299.96 859.986 303.39 859.799 306.89C861.246 304.743 863.206 303.67 865.679 303.67C869.553 303.67 872.749 305.35 875.269 308.71C877.603 311.79 878.886 315.57 879.119 320.05C879.306 323.69 878.256 328.03 875.969 333.07C873.356 338.903 870.346 341.82 866.939 341.82C861.573 341.82 857.303 339.58 854.129 335.1C850.956 330.62 849.346 324.483 849.299 316.69C849.253 307.03 850.664 299.015 853.534 292.645C856.404 286.275 860.033 283.09 864.419 283.09C869.319 283.09 873.333 285.983 876.459 291.77C878.933 293.543 880.169 295.27 880.169 296.95C880.169 297.37 880.099 297.79 879.959 298.21ZM869.039 323.41C869.366 321.87 869.529 320.307 869.529 318.72C869.529 314.473 868.526 312.117 866.519 311.65C865.493 311.417 864.396 312.49 863.229 314.87C862.249 316.923 861.526 319.21 861.059 321.73C860.826 322.99 860.709 324.39 860.709 325.93C860.709 330.037 861.386 332.277 862.739 332.65C863.999 333.023 865.283 332.113 866.589 329.92C867.756 328.007 868.573 325.837 869.039 323.41Z" fill="#ffffff" fill-rule="evenodd" opacity="1" stroke="none"/>
</g>
<g opacity="1">
<g opacity="1">
<g opacity="1">
<path d="M189.718 312.455C189.718 279.317 216.581 252.455 249.718 252.455C282.855 252.455 309.718 279.317 309.718 312.455C309.718 345.592 282.855 372.455 249.718 372.455C216.581 372.455 189.718 345.592 189.718 312.455Z" fill="#441b15" fill-rule="evenodd" opacity="1" stroke="none"/>
<path d="M192.718 312.455C192.718 280.974 218.238 255.455 249.718 255.455C281.198 255.455 306.718 280.974 306.718 312.455C306.718 343.935 281.198 369.455 249.718 369.455C218.238 369.455 192.718 343.935 192.718 312.455Z" fill="#906c3c" fill-rule="evenodd" opacity="1" stroke="none"/>
</g>
</g>
<path d="M264.944 298.21C264.337 300.03 262.377 300.94 259.064 300.94C256.497 300.94 254.677 300.31 253.604 299.05C253.231 298.583 253.044 298 253.044 297.3C253.044 297.067 253.067 296.728 253.114 296.285C253.161 295.842 253.184 295.503 253.184 295.27C253.184 294.57 252.951 294.01 252.484 293.59C252.157 292.097 251.411 291.397 250.244 291.49C249.217 291.537 248.097 293.24 246.884 296.6C245.671 299.96 244.971 303.39 244.784 306.89C246.231 304.743 248.191 303.67 250.664 303.67C254.537 303.67 257.734 305.35 260.254 308.71C262.587 311.79 263.871 315.57 264.104 320.05C264.291 323.69 263.241 328.03 260.954 333.07C258.341 338.903 255.331 341.82 251.924 341.82C246.557 341.82 242.287 339.58 239.114 335.1C235.941 330.62 234.331 324.483 234.284 316.69C234.237 307.03 235.649 299.015 238.519 292.645C241.389 286.275 245.017 283.09 249.404 283.09C254.304 283.09 258.317 285.983 261.444 291.77C263.917 293.543 265.154 295.27 265.154 296.95C265.154 297.37 265.084 297.79 264.944 298.21ZM254.024 323.41C254.351 321.87 254.514 320.307 254.514 318.72C254.514 314.473 253.511 312.117 251.504 311.65C250.477 311.417 249.381 312.49 248.214 314.87C247.234 316.923 246.511 319.21 246.044 321.73C245.811 322.99 245.694 324.39 245.694 325.93C245.694 330.037 246.371 332.277 247.724 332.65C248.984 333.023 250.267 332.113 251.574 329.92C252.741 328.007 253.557 325.837 254.024 323.41Z" fill="#ffffff" fill-rule="evenodd" opacity="1" stroke="none"/>
</g>
<g opacity="1">
<g opacity="1">
<g opacity="1">
<path d="M435.725 312.455C435.725 279.317 462.587 252.455 495.725 252.455C528.861 252.455 555.725 279.317 555.725 312.455C555.725 345.592 528.861 372.455 495.725 372.455C462.587 372.455 435.725 345.592 435.725 312.455Z" fill="#441b15" fill-rule="evenodd" opacity="1" stroke="none"/>
<path d="M438.725 312.455C438.725 280.974 464.244 255.455 495.725 255.455C527.204 255.455 552.725 280.974 552.725 312.455C552.725 343.935 527.204 369.455 495.725 369.455C464.244 369.455 438.725 343.935 438.725 312.455Z" fill="#906c3c" fill-rule="evenodd" opacity="1" stroke="none"/>
</g>
</g>
<path d="M510.95 298.21C510.343 300.03 508.383 300.94 505.07 300.94C502.503 300.94 500.683 300.31 499.61 299.05C499.237 298.583 499.05 298 499.05 297.3C499.05 297.067 499.073 296.728 499.12 296.285C499.167 295.842 499.19 295.503 499.19 295.27C499.19 294.57 498.957 294.01 498.49 293.59C498.163 292.097 497.417 291.397 496.25 291.49C495.223 291.537 494.103 293.24 492.89 296.6C491.677 299.96 490.977 303.39 490.79 306.89C492.237 304.743 494.197 303.67 496.67 303.67C500.543 303.67 503.74 305.35 506.26 308.71C508.593 311.79 509.877 315.57 510.11 320.05C510.297 323.69 509.247 328.03 506.96 333.07C504.347 338.903 501.337 341.82 497.93 341.82C492.563 341.82 488.293 339.58 485.12 335.1C481.947 330.62 480.337 324.483 480.29 316.69C480.243 307.03 481.655 299.015 484.525 292.645C487.395 286.275 491.023 283.09 495.41 283.09C500.31 283.09 504.323 285.983 507.45 291.77C509.923 293.543 511.16 295.27 511.16 296.95C511.16 297.37 511.09 297.79 510.95 298.21ZM500.03 323.41C500.357 321.87 500.52 320.307 500.52 318.72C500.52 314.473 499.517 312.117 497.51 311.65C496.483 311.417 495.387 312.49 494.22 314.87C493.24 316.923 492.517 319.21 492.05 321.73C491.817 322.99 491.7 324.39 491.7 325.93C491.7 330.037 492.377 332.277 493.73 332.65C494.99 333.023 496.273 332.113 497.58 329.92C498.747 328.007 499.563 325.837 500.03 323.41Z" fill="#ffffff" fill-rule="evenodd" opacity="1" stroke="none"/>
</g>
<g opacity="1">
<g opacity="1">
<g opacity="1">
<path d="M681.731 312.455C681.731 279.317 708.593 252.455 741.731 252.455C774.867 252.455 801.731 279.317 801.731 312.455C801.731 345.592 774.867 372.455 741.731 372.455C708.593 372.455 681.731 345.592 681.731 312.455Z" fill="#441b15" fill-rule="evenodd" opacity="1" stroke="none"/>
<path d="M684.731 312.455C684.731 280.974 710.25 255.455 741.731 255.455C773.21 255.455 798.731 280.974 798.731 312.455C798.731 343.935 773.21 369.455 741.731 369.455C710.25 369.455 684.731 343.935 684.731 312.455Z" fill="#906c3c" fill-rule="evenodd" opacity="1" stroke="none"/>
</g>
</g>
<path d="M756.956 298.21C756.35 300.03 754.39 300.94 751.076 300.94C748.51 300.94 746.69 300.31 745.616 299.05C745.243 298.583 745.056 298 745.056 297.3C745.056 297.067 745.08 296.728 745.126 296.285C745.173 295.842 745.196 295.503 745.196 295.27C745.196 294.57 744.963 294.01 744.496 293.59C744.17 292.097 743.423 291.397 742.256 291.49C741.23 291.537 740.11 293.24 738.896 296.6C737.683 299.96 736.983 303.39 736.796 306.89C738.243 304.743 740.203 303.67 742.676 303.67C746.55 303.67 749.746 305.35 752.266 308.71C754.6 311.79 755.883 315.57 756.116 320.05C756.303 323.69 755.253 328.03 752.966 333.07C750.353 338.903 747.343 341.82 743.936 341.82C738.57 341.82 734.3 339.58 731.126 335.1C727.953 330.62 726.343 324.483 726.296 316.69C726.25 307.03 727.661 299.015 730.531 292.645C733.401 286.275 737.03 283.09 741.416 283.09C746.316 283.09 750.33 285.983 753.456 291.77C755.93 293.543 757.166 295.27 757.166 296.95C757.166 297.37 757.096 297.79 756.956 298.21ZM746.036 323.41C746.363 321.87 746.526 320.307 746.526 318.72C746.526 314.473 745.523 312.117 743.516 311.65C742.49 311.417 741.393 312.49 740.226 314.87C739.246 316.923 738.523 319.21 738.056 321.73C737.823 322.99 737.706 324.39 737.706 325.93C737.706 330.037 738.383 332.277 739.736 332.65C740.996 333.023 742.28 332.113 743.586 329.92C744.753 328.007 745.57 325.837 746.036 323.41Z" fill="#ffffff" fill-rule="evenodd" opacity="1" stroke="none"/>
</g>
</g>
<g opacity="1">
<g opacity="1">
<g opacity="1">
<g opacity="1">
<path d="M312.721 455.545C312.721 422.408 339.584 395.545 372.721 395.545C405.858 395.545 432.721 422.408 432.721 455.545C432.721 488.682 405.858 515.545 372.721 515.545C339.584 515.545 312.721 488.682 312.721 455.545Z" fill="#441b15" fill-rule="evenodd" opacity="1" stroke="none"/>
<path d="M315.721 455.545C315.721 424.064 341.241 398.545 372.721 398.545C404.201 398.545 429.721 424.064 429.721 455.545C429.721 487.025 404.201 512.545 372.721 512.545C341.241 512.545 315.721 487.025 315.721 455.545Z" fill="#906c3c" fill-rule="evenodd" opacity="1" stroke="none"/>
</g>
</g>
<path d="M387.947 441.3C387.34 443.12 385.38 444.03 382.067 444.03C379.5 444.03 377.68 443.4 376.607 442.14C376.234 441.673 376.047 441.09 376.047 440.39C376.047 440.157 376.07 439.818 376.117 439.375C376.164 438.932 376.187 438.593 376.187 438.36C376.187 437.66 375.954 437.1 375.487 436.68C375.16 435.187 374.414 434.487 373.247 434.58C372.22 434.627 371.1 436.33 369.887 439.69C368.674 443.05 367.974 446.48 367.787 449.98C369.234 447.833 371.194 446.76 373.667 446.76C377.54 446.76 380.737 448.44 383.257 451.8C385.59 454.88 386.874 458.66 387.107 463.14C387.294 466.78 386.244 471.12 383.957 476.16C381.344 481.993 378.334 484.91 374.927 484.91C369.56 484.91 365.29 482.67 362.117 478.19C358.944 473.71 357.334 467.573 357.287 459.78C357.24 450.12 358.652 442.105 361.522 435.735C364.392 429.365 368.02 426.18 372.407 426.18C377.307 426.18 381.32 429.073 384.447 434.86C386.92 436.633 388.157 438.36 388.157 440.04C388.157 440.46 388.087 440.88 387.947 441.3ZM377.027 466.5C377.354 464.96 377.517 463.397 377.517 461.81C377.517 457.563 376.514 455.207 374.507 454.74C373.48 454.507 372.384 455.58 371.217 457.96C370.237 460.013 369.514 462.3 369.047 464.82C368.814 466.08 368.697 467.48 368.697 469.02C368.697 473.127 369.374 475.367 370.727 475.74C371.987 476.113 373.27 475.203 374.577 473.01C375.744 471.097 376.56 468.927 377.027 466.5Z" fill="#ffffff" fill-rule="evenodd" opacity="1" stroke="none"/>
</g>
<g opacity="1">
<g opacity="1">
<g opacity="1">
<path d="M558.728 455.545C558.728 422.408 585.59 395.545 618.728 395.545C651.864 395.545 678.728 422.408 678.728 455.545C678.728 488.682 651.864 515.545 618.728 515.545C585.59 515.545 558.728 488.682 558.728 455.545Z" fill="#441b15" fill-rule="evenodd" opacity="1" stroke="none"/>
<path d="M561.728 455.545C561.728 424.064 587.247 398.545 618.728 398.545C650.207 398.545 675.728 424.064 675.728 455.545C675.728 487.025 650.207 512.545 618.728 512.545C587.247 512.545 561.728 487.025 561.728 455.545Z" fill="#906c3c" fill-rule="evenodd" opacity="1" stroke="none"/>
</g>
</g>
<path d="M633.953 441.3C633.347 443.12 631.387 444.03 628.073 444.03C625.507 444.03 623.687 443.4 622.613 442.14C622.24 441.673 622.053 441.09 622.053 440.39C622.053 440.157 622.077 439.818 622.123 439.375C622.17 438.932 622.193 438.593 622.193 438.36C622.193 437.66 621.96 437.1 621.493 436.68C621.167 435.187 620.42 434.487 619.253 434.58C618.227 434.627 617.107 436.33 615.893 439.69C614.68 443.05 613.98 446.48 613.793 449.98C615.24 447.833 617.2 446.76 619.673 446.76C623.547 446.76 626.743 448.44 629.263 451.8C631.597 454.88 632.88 458.66 633.113 463.14C633.3 466.78 632.25 471.12 629.963 476.16C627.35 481.993 624.34 484.91 620.933 484.91C615.567 484.91 611.297 482.67 608.123 478.19C604.95 473.71 603.34 467.573 603.293 459.78C603.247 450.12 604.658 442.105 607.528 435.735C610.398 429.365 614.027 426.18 618.413 426.18C623.313 426.18 627.327 429.073 630.453 434.86C632.927 436.633 634.163 438.36 634.163 440.04C634.163 440.46 634.093 440.88 633.953 441.3ZM623.033 466.5C623.36 464.96 623.523 463.397 623.523 461.81C623.523 457.563 622.52 455.207 620.513 454.74C619.487 454.507 618.39 455.58 617.223 457.96C616.243 460.013 615.52 462.3 615.053 464.82C614.82 466.08 614.703 467.48 614.703 469.02C614.703 473.127 615.38 475.367 616.733 475.74C617.993 476.113 619.277 475.203 620.583 473.01C621.75 471.097 622.567 468.927 623.033 466.5Z" fill="#ffffff" fill-rule="evenodd" opacity="1" stroke="none"/>
</g>
<g opacity="1">
<g opacity="1">
<g opacity="1">
<path d="M804.734 455.545C804.734 422.408 831.596 395.545 864.734 395.545C897.87 395.545 924.734 422.408 924.734 455.545C924.734 488.682 897.87 515.545 864.734 515.545C831.596 515.545 804.734 488.682 804.734 455.545Z" fill="#441b15" fill-rule="evenodd" opacity="1" stroke="none"/>
<path d="M807.734 455.545C807.734 424.064 833.253 398.545 864.734 398.545C896.213 398.545 921.734 424.064 921.734 455.545C921.734 487.025 896.213 512.545 864.734 512.545C833.253 512.545 807.734 487.025 807.734 455.545Z" fill="#906c3c" fill-rule="evenodd" opacity="1" stroke="none"/>
</g>
</g>
<path d="M879.959 441.3C879.353 443.12 877.393 444.03 874.079 444.03C871.513 444.03 869.693 443.4 868.619 442.14C868.246 441.673 868.059 441.09 868.059 440.39C868.059 440.157 868.083 439.818 868.129 439.375C868.176 438.932 868.199 438.593 868.199 438.36C868.199 437.66 867.966 437.1 867.499 436.68C867.173 435.187 866.426 434.487 865.259 434.58C864.233 434.627 863.113 436.33 861.899 439.69C860.686 443.05 859.986 446.48 859.799 449.98C861.246 447.833 863.206 446.76 865.679 446.76C869.553 446.76 872.749 448.44 875.269 451.8C877.603 454.88 878.886 458.66 879.119 463.14C879.306 466.78 878.256 471.12 875.969 476.16C873.356 481.993 870.346 484.91 866.939 484.91C861.573 484.91 857.303 482.67 854.129 478.19C850.956 473.71 849.346 467.573 849.299 459.78C849.253 450.12 850.664 442.105 853.534 435.735C856.404 429.365 860.033 426.18 864.419 426.18C869.319 426.18 873.333 429.073 876.459 434.86C878.933 436.633 880.169 438.36 880.169 440.04C880.169 440.46 880.099 440.88 879.959 441.3ZM869.039 466.5C869.366 464.96 869.529 463.397 869.529 461.81C869.529 457.563 868.526 455.207 866.519 454.74C865.493 454.507 864.396 455.58 863.229 457.96C862.249 460.013 861.526 462.3 861.059 464.82C860.826 466.08 860.709 467.48 860.709 469.02C860.709 473.127 861.386 475.367 862.739 475.74C863.999 476.113 865.283 475.203 866.589 473.01C867.756 471.097 868.573 468.927 869.039 466.5Z" fill="#ffffff" fill-rule="evenodd" opacity="1" stroke="none"/>
</g>
<g opacity="1">
<g opacity="1">
<g opacity="1">
<path d="M189.718 455.545C189.718 422.408 216.581 395.545 249.718 395.545C282.855 395.545 309.718 422.408 309.718 455.545C309.718 488.682 282.855 515.545 249.718 515.545C216.581 515.545 189.718 488.682 189.718 455.545Z" fill="#441b15" fill-rule="evenodd" opacity="1" stroke="none"/>
<path d="M192.718 455.545C192.718 424.064 218.238 398.545 249.718 398.545C281.198 398.545 306.718 424.064 306.718 455.545C306.718 487.025 281.198 512.545 249.718 512.545C218.238 512.545 192.718 487.025 192.718 455.545Z" fill="#906c3c" fill-rule="evenodd" opacity="1" stroke="none"/>
</g>
</g>
<path d="M264.944 441.3C264.337 443.12 262.377 444.03 259.064 444.03C256.497 444.03 254.677 443.4 253.604 442.14C253.231 441.673 253.044 441.09 253.044 440.39C253.044 440.157 253.067 439.818 253.114 439.375C253.161 438.932 253.184 438.593 253.184 438.36C253.184 437.66 252.951 437.1 252.484 436.68C252.157 435.187 251.411 434.487 250.244 434.58C249.217 434.627 248.097 436.33 246.884 439.69C245.671 443.05 244.971 446.48 244.784 449.98C246.231 447.833 248.191 446.76 250.664 446.76C254.537 446.76 257.734 448.44 260.254 451.8C262.587 454.88 263.871 458.66 264.104 463.14C264.291 466.78 263.241 471.12 260.954 476.16C258.341 481.993 255.331 484.91 251.924 484.91C246.557 484.91 242.287 482.67 239.114 478.19C235.941 473.71 234.331 467.573 234.284 459.78C234.237 450.12 235.649 442.105 238.519 435.735C241.389 429.365 245.017 426.18 249.404 426.18C254.304 426.18 258.317 429.073 261.444 434.86C263.917 436.633 265.154 438.36 265.154 440.04C265.154 440.46 265.084 440.88 264.944 441.3ZM254.024 466.5C254.351 464.96 254.514 463.397 254.514 461.81C254.514 457.563 253.511 455.207 251.504 454.74C250.477 454.507 249.381 455.58 248.214 457.96C247.234 460.013 246.511 462.3 246.044 464.82C245.811 466.08 245.694 467.48 245.694 469.02C245.694 473.127 246.371 475.367 247.724 475.74C248.984 476.113 250.267 475.203 251.574 473.01C252.741 471.097 253.557 468.927 254.024 466.5Z" fill="#ffffff" fill-rule="evenodd" opacity="1" stroke="none"/>
</g>
<g opacity="1">
<g opacity="1">
<g opacity="1">
<path d="M435.725 455.545C435.725 422.408 462.587 395.545 495.725 395.545C528.861 395.545 555.725 422.408 555.725 455.545C555.725 488.682 528.861 515.545 495.725 515.545C462.587 515.545 435.725 488.682 435.725 455.545Z" fill="#441b15" fill-rule="evenodd" opacity="1" stroke="none"/>
<path d="M438.725 455.545C438.725 424.064 464.244 398.545 495.725 398.545C527.204 398.545 552.725 424.064 552.725 455.545C552.725 487.025 527.204 512.545 495.725 512.545C464.244 512.545 438.725 487.025 438.725 455.545Z" fill="#906c3c" fill-rule="evenodd" opacity="1" stroke="none"/>
</g>
</g>
<path d="M510.95 441.3C510.343 443.12 508.383 444.03 505.07 444.03C502.503 444.03 500.683 443.4 499.61 442.14C499.237 441.673 499.05 441.09 499.05 440.39C499.05 440.157 499.073 439.818 499.12 439.375C499.167 438.932 499.19 438.593 499.19 438.36C499.19 437.66 498.957 437.1 498.49 436.68C498.163 435.187 497.417 434.487 496.25 434.58C495.223 434.627 494.103 436.33 492.89 439.69C491.677 443.05 490.977 446.48 490.79 449.98C492.237 447.833 494.197 446.76 496.67 446.76C500.543 446.76 503.74 448.44 506.26 451.8C508.593 454.88 509.877 458.66 510.11 463.14C510.297 466.78 509.247 471.12 506.96 476.16C504.347 481.993 501.337 484.91 497.93 484.91C492.563 484.91 488.293 482.67 485.12 478.19C481.947 473.71 480.337 467.573 480.29 459.78C480.243 450.12 481.655 442.105 484.525 435.735C487.395 429.365 491.023 426.18 495.41 426.18C500.31 426.18 504.323 429.073 507.45 434.86C509.923 436.633 511.16 438.36 511.16 440.04C511.16 440.46 511.09 440.88 510.95 441.3ZM500.03 466.5C500.357 464.96 500.52 463.397 500.52 461.81C500.52 457.563 499.517 455.207 497.51 454.74C496.483 454.507 495.387 455.58 494.22 457.96C493.24 460.013 492.517 462.3 492.05 464.82C491.817 466.08 491.7 467.48 491.7 469.02C491.7 473.127 492.377 475.367 493.73 475.74C494.99 476.113 496.273 475.203 497.58 473.01C498.747 471.097 499.563 468.927 500.03 466.5Z" fill="#ffffff" fill-rule="evenodd" opacity="1" stroke="none"/>
</g>
<g opacity="1">
<g opacity="1">
<g opacity="1">
<path d="M681.731 455.545C681.731 422.408 708.593 395.545 741.731 395.545C774.867 395.545 801.731 422.408 801.731 455.545C801.731 488.682 774.867 515.545 741.731 515.545C708.593 515.545 681.731 488.682 681.731 455.545Z" fill="#441b15" fill-rule="evenodd" opacity="1" stroke="none"/>
<path d="M684.731 455.545C684.731 424.064 710.25 398.545 741.731 398.545C773.21 398.545 798.731 424.064 798.731 455.545C798.731 487.025 773.21 512.545 741.731 512.545C710.25 512.545 684.731 487.025 684.731 455.545Z" fill="#906c3c" fill-rule="evenodd" opacity="1" stroke="none"/>
</g>
</g>
<path d="M756.956 441.3C756.35 443.12 754.39 444.03 751.076 444.03C748.51 444.03 746.69 443.4 745.616 442.14C745.243 441.673 745.056 441.09 745.056 440.39C745.056 440.157 745.08 439.818 745.126 439.375C745.173 438.932 745.196 438.593 745.196 438.36C745.196 437.66 744.963 437.1 744.496 436.68C744.17 435.187 743.423 434.487 742.256 434.58C741.23 434.627 740.11 436.33 738.896 439.69C737.683 443.05 736.983 446.48 736.796 449.98C738.243 447.833 740.203 446.76 742.676 446.76C746.55 446.76 749.746 448.44 752.266 451.8C754.6 454.88 755.883 458.66 756.116 463.14C756.303 466.78 755.253 471.12 752.966 476.16C750.353 481.993 747.343 484.91 743.936 484.91C738.57 484.91 734.3 482.67 731.126 478.19C727.953 473.71 726.343 467.573 726.296 459.78C726.25 450.12 727.661 442.105 730.531 435.735C733.401 429.365 737.03 426.18 741.416 426.18C746.316 426.18 750.33 429.073 753.456 434.86C755.93 436.633 757.166 438.36 757.166 440.04C757.166 440.46 757.096 440.88 756.956 441.3ZM746.036 466.5C746.363 464.96 746.526 463.397 746.526 461.81C746.526 457.563 745.523 455.207 743.516 454.74C742.49 454.507 741.393 455.58 740.226 457.96C739.246 460.013 738.523 462.3 738.056 464.82C737.823 466.08 737.706 467.48 737.706 469.02C737.706 473.127 738.383 475.367 739.736 475.74C740.996 476.113 742.28 475.203 743.586 473.01C744.753 471.097 745.57 468.927 746.036 466.5Z" fill="#ffffff" fill-rule="evenodd" opacity="1" stroke="none"/>
</g>
</g>
</g>
</g>
</svg>
