<?xml version="1.0" encoding="UTF-8" standalone="no"?>
<!DOCTYPE svg PUBLIC "-//W3C//DTD SVG 1.1//EN" "http://www.w3.org/Graphics/SVG/1.1/DTD/svg11.dtd"
[
<!ATTLIST g
  xmlns:vectornator CDATA #FIXED "http://vectornator.io"
  vectornator:layerName CDATA #IMPLIED >
<!ATTLIST g
  xmlns:vectornator CDATA #FIXED "http://vectornator.io"
  vectornator:mask CDATA #IMPLIED >
<!ATTLIST text
  xmlns:vectornator CDATA #FIXED "http://vectornator.io"
  vectornator:width CDATA #IMPLIED >

<!ATTLIST path
  xmlns:vectornator CDATA #FIXED "http://vectornator.io"
  vectornator:blendMode CDATA #IMPLIED >
<!ATTLIST path
  xmlns:vectornator CDATA #FIXED "http://vectornator.io"
  vectornator:shadowColor CDATA #IMPLIED >
<!ATTLIST path
  xmlns:vectornator CDATA #FIXED "http://vectornator.io"
  vectornator:shadowOpacity CDATA #IMPLIED >
<!ATTLIST path
  xmlns:vectornator CDATA #FIXED "http://vectornator.io"
  vectornator:shadowRadius CDATA #IMPLIED >
<!ATTLIST path
  xmlns:vectornator CDATA #FIXED "http://vectornator.io"
  vectornator:shadowOffset CDATA #IMPLIED >
<!ATTLIST path
  xmlns:vectornator CDATA #FIXED "http://vectornator.io"
  vectornator:shadowAngle CDATA #IMPLIED >

<!ATTLIST image
  xmlns:vectornator CDATA #FIXED "http://vectornator.io"
  vectornator:blendMode CDATA #IMPLIED >
<!ATTLIST image
  xmlns:vectornator CDATA #FIXED "http://vectornator.io"
  vectornator:shadowColor CDATA #IMPLIED >
<!ATTLIST image
  xmlns:vectornator CDATA #FIXED "http://vectornator.io"
  vectornator:shadowOpacity CDATA #IMPLIED >
<!ATTLIST image
  xmlns:vectornator CDATA #FIXED "http://vectornator.io"
  vectornator:shadowRadius CDATA #IMPLIED >
<!ATTLIST image
  xmlns:vectornator CDATA #FIXED "http://vectornator.io"
  vectornator:shadowOffset CDATA #IMPLIED >
<!ATTLIST image
  xmlns:vectornator CDATA #FIXED "http://vectornator.io"
  vectornator:shadowAngle CDATA #IMPLIED >

<!ATTLIST g
  xmlns:vectornator CDATA #FIXED "http://vectornator.io"
  vectornator:blendMode CDATA #IMPLIED >
<!ATTLIST g
  xmlns:vectornator CDATA #FIXED "http://vectornator.io"
  vectornator:shadowColor CDATA #IMPLIED >
<!ATTLIST g
  xmlns:vectornator CDATA #FIXED "http://vectornator.io"
  vectornator:shadowOpacity CDATA #IMPLIED >
<!ATTLIST g
  xmlns:vectornator CDATA #FIXED "http://vectornator.io"
  vectornator:shadowRadius CDATA #IMPLIED >
<!ATTLIST g
  xmlns:vectornator CDATA #FIXED "http://vectornator.io"
  vectornator:shadowOffset CDATA #IMPLIED >
<!ATTLIST g
  xmlns:vectornator CDATA #FIXED "http://vectornator.io"
  vectornator:shadowAngle CDATA #IMPLIED >

<!ENTITY % SVG.filter.extra.content  "| feDropShadow" >
<!ELEMENT feDropShadow EMPTY>
<!ATTLIST feDropShadow
  xmlns:svg CDATA #FIXED "http://www.w3.org/Graphics/SVG/1.1/DTD/svg11.dtd"
  dx CDATA #IMPLIED>
<!ATTLIST feDropShadow
  xmlns:svg CDATA #FIXED "http://www.w3.org/Graphics/SVG/1.1/DTD/svg11.dtd"
  dy CDATA #IMPLIED>
<!ATTLIST feDropShadow
  xmlns:svg CDATA #FIXED "http://www.w3.org/Graphics/SVG/1.1/DTD/svg11.dtd"
  stdDeviation CDATA #IMPLIED>
<!ATTLIST feDropShadow
  xmlns:svg CDATA #FIXED "http://www.w3.org/Graphics/SVG/1.1/DTD/svg11.dtd"
  flood-opacity CDATA #IMPLIED>
<!ATTLIST feDropShadow
  xmlns:svg CDATA #FIXED "http://www.w3.org/Graphics/SVG/1.1/DTD/svg11.dtd"
  in CDATA #IMPLIED>
<!ATTLIST feDropShadow
  xmlns:svg CDATA #FIXED "http://www.w3.org/Graphics/SVG/1.1/DTD/svg11.dtd"
  result CDATA #IMPLIED>
<!ATTLIST feDropShadow
  xmlns:svg CDATA #FIXED "http://www.w3.org/Graphics/SVG/1.1/DTD/svg11.dtd"
  flood-color CDATA #IMPLIED>
]
>
<!-- Created with Vectornator (http://vectornator.io/) -->
<svg height="100%" stroke-miterlimit="10" style="fill-rule:nonzero;clip-rule:evenodd;stroke-linecap:round;stroke-linejoin:round;" version="1.1" viewBox="0 0 1024 768" width="100%" xml:space="preserve" xmlns="http://www.w3.org/2000/svg" xmlns:vectornator="http://vectornator.io" xmlns:xlink="http://www.w3.org/1999/xlink">
<defs/>
<g id="Слой-1" vectornator:layerName="Слой 1">
<path d="M5.58055 504.052L5.58055 263.948C5.58055 220.146 41.2579 184.637 85.2682 184.637L938.732 184.637C982.742 184.637 1018.42 220.146 1018.42 263.948L1018.42 504.052C1018.42 547.854 982.742 583.363 938.732 583.363L85.2682 583.363C41.2579 583.363 5.58055 547.854 5.58055 504.052Z" fill="#d3b97c" fill-rule="evenodd" opacity="1" stroke="none"/>
<path d="M935.958 575.137L88.0415 575.137C47.603 575.137 14.8211 541.949 14.8211 501.009L14.8211 266.991C14.8211 226.051 47.603 192.863 88.0416 192.863L935.958 192.863C976.397 192.863 1009.18 226.051 1009.18 266.991L1009.18 501.009C1009.18 541.949 976.397 575.137 935.958 575.137Z" fill="#ffd479" fill-rule="evenodd" opacity="1" stroke="none"/>
</g>
<g id="Слой-3" vectornator:layerName="Слой 3">
<g opacity="1">
<g opacity="1">
<g opacity="1">
<g opacity="1">
<g opacity="1">
<path d="M55.5739 291.466C55.5739 258.329 82.4368 231.466 115.574 231.466C148.711 231.466 175.574 258.329 175.574 291.466C175.574 324.603 148.711 351.466 115.574 351.466C82.4368 351.466 55.5739 324.603 55.5739 291.466Z" fill="#cfba84" fill-rule="evenodd" opacity="1" stroke="none"/>
<path d="M58.5739 291.466C58.5739 259.986 84.0937 234.466 115.574 234.466C147.054 234.466 172.574 259.986 172.574 291.466C172.574 322.946 147.054 348.466 115.574 348.466C84.0937 348.466 58.5739 322.946 58.5739 291.466Z" fill="#efd5a3" fill-rule="evenodd" opacity="1" stroke="none"/>
</g>
<g opacity="1">
<path d="M86.9137 315.897L94.6729 315.897L94.6729 271.579C93.9739 272.091 93.1817 272.604 92.2962 273.117L84.3273 277.66L83.7681 276.751C86.8438 275.027 89.6399 273.373 92.1564 271.788C94.6729 270.204 97.0496 268.293 99.2865 266.056L100.685 266.056L100.685 315.897L108.444 315.897L108.444 316.876L86.9137 316.876L86.9137 315.897Z" fill="#000000" fill-rule="evenodd" opacity="1" stroke="none"/>
<path d="M147.38 316.876L115.434 316.876L115.434 315.897C117.252 314.359 118.918 312.938 120.432 311.633C121.947 310.328 123.368 309.047 124.696 307.788C126.024 306.53 127.294 305.249 128.506 303.944C129.718 302.639 130.953 301.241 132.211 299.75C135.193 296.115 137.232 292.596 138.327 289.194C139.422 285.792 139.97 282.647 139.97 279.757C139.97 275.563 139.259 272.394 137.838 270.251C136.417 268.107 134.168 267.035 131.092 267.035C128.716 267.035 126.758 267.559 125.22 268.608C123.683 269.656 122.914 271.113 122.914 272.977C122.914 273.629 123.065 274.293 123.368 274.969C123.671 275.645 123.822 276.332 123.822 277.031C123.822 277.823 123.543 278.418 122.984 278.814C122.424 279.21 121.772 279.408 121.026 279.408C120.048 279.408 119.209 279.151 118.51 278.639C117.811 278.126 117.461 277.194 117.461 275.843C117.461 274.631 117.811 273.431 118.51 272.243C119.209 271.054 120.164 270.006 121.376 269.097C122.587 268.188 124.032 267.454 125.71 266.895C127.387 266.336 129.182 266.056 131.092 266.056C133.795 266.056 136.114 266.452 138.048 267.245C139.982 268.037 141.578 269.074 142.836 270.355C144.094 271.637 145.026 273.093 145.632 274.724C146.238 276.355 146.541 278.033 146.541 279.757C146.541 281.854 146.238 283.8 145.632 285.594C145.026 287.388 144.199 289.078 143.151 290.662C142.102 292.247 140.902 293.761 139.551 295.206C138.199 296.651 136.778 298.095 135.287 299.54C133.189 301.637 131.127 303.641 129.1 305.551C127.073 307.462 124.848 309.513 122.424 311.703L138.432 311.703C141.182 311.703 143.162 311.039 144.374 309.711C145.586 308.383 146.331 306.553 146.611 304.223L147.38 304.223L147.38 316.876Z" fill="#000000" fill-rule="evenodd" opacity="1" stroke="none"/>
</g>
</g>
</g>
<g opacity="1">
<g opacity="1">
<g opacity="1">
<path d="M319.858 291.466C319.858 258.329 346.721 231.466 379.858 231.466C412.995 231.466 439.858 258.329 439.858 291.466C439.858 324.603 412.995 351.466 379.858 351.466C346.721 351.466 319.858 324.603 319.858 291.466Z" fill="#cfba84" fill-rule="evenodd" opacity="1" stroke="none"/>
<path d="M322.858 291.466C322.858 259.986 348.378 234.466 379.858 234.466C411.338 234.466 436.858 259.986 436.858 291.466C436.858 322.946 411.338 348.466 379.858 348.466C348.378 348.466 322.858 322.946 322.858 291.466Z" fill="#efd5a3" fill-rule="evenodd" opacity="1" stroke="none"/>
</g>
<g opacity="1">
<path d="M351.198 315.897L358.957 315.897L358.957 271.579C358.258 272.091 357.466 272.604 356.58 273.117L348.611 277.66L348.052 276.751C351.128 275.027 353.924 273.373 356.441 271.788C358.957 270.204 361.334 268.293 363.571 266.056L364.969 266.056L364.969 315.897L372.728 315.897L372.728 316.876L351.198 316.876L351.198 315.897Z" fill="#000000" fill-rule="evenodd" opacity="1" stroke="none"/>
<path d="M411.664 316.876L379.718 316.876L379.718 315.897C381.536 314.359 383.202 312.938 384.716 311.633C386.231 310.328 387.652 309.047 388.98 307.788C390.308 306.53 391.578 305.249 392.79 303.944C394.002 302.639 395.237 301.241 396.495 299.75C399.477 296.115 401.516 292.596 402.611 289.194C403.707 285.792 404.254 282.647 404.254 279.757C404.254 275.563 403.543 272.394 402.122 270.251C400.701 268.107 398.452 267.035 395.376 267.035C393 267.035 391.042 267.559 389.505 268.608C387.967 269.656 387.198 271.113 387.198 272.977C387.198 273.629 387.349 274.293 387.652 274.969C387.955 275.645 388.107 276.332 388.107 277.031C388.107 277.823 387.827 278.418 387.268 278.814C386.708 279.21 386.056 279.408 385.31 279.408C384.332 279.408 383.493 279.151 382.794 278.639C382.095 278.126 381.745 277.194 381.745 275.843C381.745 274.631 382.095 273.431 382.794 272.243C383.493 271.054 384.448 270.006 385.66 269.097C386.872 268.188 388.316 267.454 389.994 266.895C391.672 266.336 393.466 266.056 395.376 266.056C398.079 266.056 400.398 266.452 402.332 267.245C404.266 268.037 405.862 269.074 407.12 270.355C408.378 271.637 409.31 273.093 409.916 274.724C410.522 276.355 410.825 278.033 410.825 279.757C410.825 281.854 410.522 283.8 409.916 285.594C409.31 287.388 408.483 289.078 407.435 290.662C406.386 292.247 405.186 293.761 403.835 295.206C402.483 296.651 401.062 298.095 399.571 299.54C397.474 301.637 395.411 303.641 393.384 305.551C391.357 307.462 389.132 309.513 386.708 311.703L402.716 311.703C405.466 311.703 407.446 311.039 408.658 309.711C409.87 308.383 410.615 306.553 410.895 304.223L411.664 304.223L411.664 316.876Z" fill="#000000" fill-rule="evenodd" opacity="1" stroke="none"/>
</g>
</g>
</g>
<g opacity="1">
<g opacity="1">
<g opacity="1">
<path d="M584.142 291.466C584.142 258.329 611.005 231.466 644.142 231.466C677.279 231.466 704.142 258.329 704.142 291.466C704.142 324.603 677.279 351.466 644.142 351.466C611.005 351.466 584.142 324.603 584.142 291.466Z" fill="#cfba84" fill-rule="evenodd" opacity="1" stroke="none"/>
<path d="M587.142 291.466C587.142 259.986 612.662 234.466 644.142 234.466C675.622 234.466 701.142 259.986 701.142 291.466C701.142 322.946 675.622 348.466 644.142 348.466C612.662 348.466 587.142 322.946 587.142 291.466Z" fill="#efd5a3" fill-rule="evenodd" opacity="1" stroke="none"/>
</g>
<g opacity="1">
<path d="M615.482 315.897L623.241 315.897L623.241 271.579C622.542 272.091 621.75 272.604 620.864 273.117L612.895 277.66L612.336 276.751C615.412 275.027 618.208 273.373 620.725 271.788C623.241 270.204 625.618 268.293 627.855 266.056L629.253 266.056L629.253 315.897L637.012 315.897L637.012 316.876L615.482 316.876L615.482 315.897Z" fill="#000000" fill-rule="evenodd" opacity="1" stroke="none"/>
<path d="M675.948 316.876L644.002 316.876L644.002 315.897C645.82 314.359 647.486 312.938 649 311.633C650.515 310.328 651.936 309.047 653.264 307.788C654.593 306.53 655.862 305.249 657.074 303.944C658.286 302.639 659.521 301.241 660.779 299.75C663.761 296.115 665.8 292.596 666.895 289.194C667.991 285.792 668.538 282.647 668.538 279.757C668.538 275.563 667.827 272.394 666.406 270.251C664.985 268.107 662.736 267.035 659.66 267.035C657.284 267.035 655.327 267.559 653.789 268.608C652.251 269.656 651.482 271.113 651.482 272.977C651.482 273.629 651.633 274.293 651.936 274.969C652.239 275.645 652.391 276.332 652.391 277.031C652.391 277.823 652.111 278.418 651.552 278.814C650.993 279.21 650.34 279.408 649.594 279.408C648.616 279.408 647.777 279.151 647.078 278.639C646.379 278.126 646.029 277.194 646.029 275.843C646.029 274.631 646.379 273.431 647.078 272.243C647.777 271.054 648.732 270.006 649.944 269.097C651.156 268.188 652.6 267.454 654.278 266.895C655.956 266.336 657.75 266.056 659.66 266.056C662.363 266.056 664.682 266.452 666.616 267.245C668.55 268.037 670.146 269.074 671.404 270.355C672.662 271.637 673.594 273.093 674.2 274.724C674.806 276.355 675.109 278.033 675.109 279.757C675.109 281.854 674.806 283.8 674.2 285.594C673.594 287.388 672.767 289.078 671.719 290.662C670.67 292.247 669.47 293.761 668.119 295.206C666.767 296.651 665.346 298.095 663.855 299.54C661.758 301.637 659.695 303.641 657.668 305.551C655.641 307.462 653.416 309.513 650.993 311.703L667 311.703C669.75 311.703 671.73 311.039 672.942 309.711C674.154 308.383 674.899 306.553 675.179 304.223L675.948 304.223L675.948 316.876Z" fill="#000000" fill-rule="evenodd" opacity="1" stroke="none"/>
</g>
</g>
</g>
<g opacity="1">
<g opacity="1">
<g opacity="1">
<path d="M187.716 291.466C187.716 258.329 214.579 231.466 247.716 231.466C280.853 231.466 307.716 258.329 307.716 291.466C307.716 324.603 280.853 351.466 247.716 351.466C214.579 351.466 187.716 324.603 187.716 291.466Z" fill="#cfba84" fill-rule="evenodd" opacity="1" stroke="none"/>
<path d="M190.716 291.466C190.716 259.986 216.236 234.466 247.716 234.466C279.196 234.466 304.716 259.986 304.716 291.466C304.716 322.946 279.196 348.466 247.716 348.466C216.236 348.466 190.716 322.946 190.716 291.466Z" fill="#efd5a3" fill-rule="evenodd" opacity="1" stroke="none"/>
</g>
<g opacity="1">
<path d="M219.056 315.897L226.815 315.897L226.815 271.579C226.116 272.091 225.324 272.604 224.438 273.117L216.469 277.66L215.91 276.751C218.986 275.027 221.782 273.373 224.298 271.788C226.815 270.204 229.192 268.293 231.429 266.056L232.827 266.056L232.827 315.897L240.586 315.897L240.586 316.876L219.056 316.876L219.056 315.897Z" fill="#000000" fill-rule="evenodd" opacity="1" stroke="none"/>
<path d="M279.522 316.876L247.576 316.876L247.576 315.897C249.394 314.359 251.06 312.938 252.574 311.633C254.089 310.328 255.51 309.047 256.838 307.788C258.166 306.53 259.436 305.249 260.648 303.944C261.86 302.639 263.095 301.241 264.353 299.75C267.335 296.115 269.374 292.596 270.469 289.194C271.564 285.792 272.112 282.647 272.112 279.757C272.112 275.563 271.401 272.394 269.98 270.251C268.559 268.107 266.31 267.035 263.234 267.035C260.858 267.035 258.9 267.559 257.363 268.608C255.825 269.656 255.056 271.113 255.056 272.977C255.056 273.629 255.207 274.293 255.51 274.969C255.813 275.645 255.964 276.332 255.964 277.031C255.964 277.823 255.685 278.418 255.126 278.814C254.566 279.21 253.914 279.408 253.168 279.408C252.19 279.408 251.351 279.151 250.652 278.639C249.953 278.126 249.603 277.194 249.603 275.843C249.603 274.631 249.953 273.431 250.652 272.243C251.351 271.054 252.306 270.006 253.518 269.097C254.73 268.188 256.174 267.454 257.852 266.895C259.53 266.336 261.324 266.056 263.234 266.056C265.937 266.056 268.256 266.452 270.19 267.245C272.124 268.037 273.72 269.074 274.978 270.355C276.236 271.637 277.168 273.093 277.774 274.724C278.38 276.355 278.683 278.033 278.683 279.757C278.683 281.854 278.38 283.8 277.774 285.594C277.168 287.388 276.341 289.078 275.293 290.662C274.244 292.247 273.044 293.761 271.693 295.206C270.341 296.651 268.92 298.095 267.429 299.54C265.331 301.637 263.269 303.641 261.242 305.551C259.215 307.462 256.99 309.513 254.566 311.703L270.574 311.703C273.324 311.703 275.304 311.039 276.516 309.711C277.728 308.383 278.473 306.553 278.753 304.223L279.522 304.223L279.522 316.876Z" fill="#000000" fill-rule="evenodd" opacity="1" stroke="none"/>
</g>
</g>
</g>
<g opacity="1">
<g opacity="1">
<g opacity="1">
<path d="M452 291.466C452 258.329 478.863 231.466 512 231.466C545.137 231.466 572 258.329 572 291.466C572 324.603 545.137 351.466 512 351.466C478.863 351.466 452 324.603 452 291.466Z" fill="#cfba84" fill-rule="evenodd" opacity="1" stroke="none"/>
<path d="M455 291.466C455 259.986 480.52 234.466 512 234.466C543.48 234.466 569 259.986 569 291.466C569 322.946 543.48 348.466 512 348.466C480.52 348.466 455 322.946 455 291.466Z" fill="#efd5a3" fill-rule="evenodd" opacity="1" stroke="none"/>
</g>
<g opacity="1">
<path d="M502.808 315.897L510.567 315.897L510.567 271.579C509.868 272.091 509.076 272.604 508.19 273.117L500.221 277.66L499.662 276.751C502.738 275.027 505.534 273.373 508.05 271.788C510.567 270.204 512.944 268.293 515.181 266.056L516.579 266.056L516.579 315.897L524.338 315.897L524.338 316.876L502.808 316.876L502.808 315.897Z" fill="#000000" fill-rule="evenodd" opacity="1" stroke="none"/>
</g>
</g>
</g>
<g opacity="1">
<g opacity="1">
<g opacity="1">
<path d="M716.284 291.466C716.284 258.329 743.147 231.466 776.284 231.466C809.421 231.466 836.284 258.329 836.284 291.466C836.284 324.603 809.421 351.466 776.284 351.466C743.147 351.466 716.284 324.603 716.284 291.466Z" fill="#cfba84" fill-rule="evenodd" opacity="1" stroke="none"/>
<path d="M719.284 291.466C719.284 259.986 744.804 234.466 776.284 234.466C807.764 234.466 833.284 259.986 833.284 291.466C833.284 322.946 807.764 348.466 776.284 348.466C744.804 348.466 719.284 322.946 719.284 291.466Z" fill="#efd5a3" fill-rule="evenodd" opacity="1" stroke="none"/>
</g>
<g opacity="1">
<path d="M747.624 315.897L755.383 315.897L755.383 271.579C754.684 272.091 753.892 272.604 753.006 273.117L745.037 277.66L744.478 276.751C747.554 275.027 750.35 273.373 752.867 271.788C755.383 270.204 757.76 268.293 759.997 266.056L761.395 266.056L761.395 315.897L769.154 315.897L769.154 316.876L747.624 316.876L747.624 315.897Z" fill="#000000" fill-rule="evenodd" opacity="1" stroke="none"/>
<path d="M808.09 316.876L776.144 316.876L776.144 315.897C777.962 314.359 779.628 312.938 781.142 311.633C782.657 310.328 784.078 309.047 785.406 307.788C786.735 306.53 788.004 305.249 789.216 303.944C790.428 302.639 791.663 301.241 792.921 299.75C795.903 296.115 797.942 292.596 799.037 289.194C800.133 285.792 800.68 282.647 800.68 279.757C800.68 275.563 799.97 272.394 798.548 270.251C797.127 268.107 794.878 267.035 791.803 267.035C789.426 267.035 787.469 267.559 785.931 268.608C784.393 269.656 783.624 271.113 783.624 272.977C783.624 273.629 783.775 274.293 784.078 274.969C784.381 275.645 784.533 276.332 784.533 277.031C784.533 277.823 784.253 278.418 783.694 278.814C783.135 279.21 782.482 279.408 781.737 279.408C780.758 279.408 779.919 279.151 779.22 278.639C778.521 278.126 778.171 277.194 778.171 275.843C778.171 274.631 778.521 273.431 779.22 272.243C779.919 271.054 780.874 270.006 782.086 269.097C783.298 268.188 784.742 267.454 786.42 266.895C788.098 266.336 789.892 266.056 791.803 266.056C794.505 266.056 796.824 266.452 798.758 267.245C800.692 268.037 802.288 269.074 803.546 270.355C804.804 271.637 805.737 273.093 806.342 274.724C806.948 276.355 807.251 278.033 807.251 279.757C807.251 281.854 806.948 283.8 806.342 285.594C805.737 287.388 804.909 289.078 803.861 290.662C802.812 292.247 801.612 293.761 800.261 295.206C798.909 296.651 797.488 298.095 795.997 299.54C793.9 301.637 791.837 303.641 789.81 305.551C787.783 307.462 785.558 309.513 783.135 311.703L799.142 311.703C801.892 311.703 803.872 311.039 805.084 309.711C806.296 308.383 807.041 306.553 807.321 304.223L808.09 304.223L808.09 316.876Z" fill="#000000" fill-rule="evenodd" opacity="1" stroke="none"/>
</g>
</g>
</g>
<g opacity="1">
<g opacity="1">
<g opacity="1">
<path d="M848.426 291.466C848.426 258.329 875.289 231.466 908.426 231.466C941.563 231.466 968.426 258.329 968.426 291.466C968.426 324.603 941.563 351.466 908.426 351.466C875.289 351.466 848.426 324.603 848.426 291.466Z" fill="#cfba84" fill-rule="evenodd" opacity="1" stroke="none"/>
<path d="M851.426 291.466C851.426 259.986 876.946 234.466 908.426 234.466C939.906 234.466 965.426 259.986 965.426 291.466C965.426 322.946 939.906 348.466 908.426 348.466C876.946 348.466 851.426 322.946 851.426 291.466Z" fill="#efd5a3" fill-rule="evenodd" opacity="1" stroke="none"/>
</g>
<g opacity="1">
<path d="M879.766 315.897L887.525 315.897L887.525 271.579C886.826 272.091 886.034 272.604 885.148 273.117L877.18 277.66L876.62 276.751C879.696 275.027 882.492 273.373 885.009 271.788C887.525 270.204 889.902 268.293 892.139 266.056L893.537 266.056L893.537 315.897L901.296 315.897L901.296 316.876L879.766 316.876L879.766 315.897Z" fill="#000000" fill-rule="evenodd" opacity="1" stroke="none"/>
<path d="M940.232 316.876L908.286 316.876L908.286 315.897C910.104 314.359 911.77 312.938 913.284 311.633C914.799 310.328 916.22 309.047 917.548 307.788C918.877 306.53 920.146 305.249 921.358 303.944C922.57 302.639 923.805 301.241 925.063 299.75C928.046 296.115 930.084 292.596 931.18 289.194C932.275 285.792 932.822 282.647 932.822 279.757C932.822 275.563 932.112 272.394 930.69 270.251C929.269 268.107 927.02 267.035 923.945 267.035C921.568 267.035 919.611 267.559 918.073 268.608C916.535 269.656 915.766 271.113 915.766 272.977C915.766 273.629 915.917 274.293 916.22 274.969C916.523 275.645 916.675 276.332 916.675 277.031C916.675 277.823 916.395 278.418 915.836 278.814C915.277 279.21 914.624 279.408 913.879 279.408C912.9 279.408 912.061 279.151 911.362 278.639C910.663 278.126 910.313 277.194 910.313 275.843C910.313 274.631 910.663 273.431 911.362 272.243C912.061 271.054 913.016 270.006 914.228 269.097C915.44 268.188 916.884 267.454 918.562 266.895C920.24 266.336 922.034 266.056 923.945 266.056C926.647 266.056 928.966 266.452 930.9 267.245C932.834 268.037 934.43 269.074 935.688 270.355C936.946 271.637 937.879 273.093 938.484 274.724C939.09 276.355 939.393 278.033 939.393 279.757C939.393 281.854 939.09 283.8 938.484 285.594C937.879 287.388 937.051 289.078 936.003 290.662C934.954 292.247 933.754 293.761 932.403 295.206C931.051 296.651 929.63 298.095 928.139 299.54C926.042 301.637 923.98 303.641 921.952 305.551C919.925 307.462 917.7 309.513 915.277 311.703L931.284 311.703C934.034 311.703 936.014 311.039 937.226 309.711C938.438 308.383 939.183 306.553 939.463 304.223L940.232 304.223L940.232 316.876Z" fill="#000000" fill-rule="evenodd" opacity="1" stroke="none"/>
</g>
</g>
</g>
</g>
<g opacity="1">
<g opacity="1">
<g opacity="1">
<g opacity="1">
<path d="M55.5739 476.534C55.5739 443.397 82.4368 416.534 115.574 416.534C148.711 416.534 175.574 443.397 175.574 476.534C175.574 509.671 148.711 536.534 115.574 536.534C82.4368 536.534 55.5739 509.671 55.5739 476.534Z" fill="#cfba84" fill-rule="evenodd" opacity="1" stroke="none"/>
<path d="M58.5739 476.534C58.5739 445.054 84.0937 419.534 115.574 419.534C147.054 419.534 172.574 445.054 172.574 476.534C172.574 508.014 147.054 533.534 115.574 533.534C84.0937 533.534 58.5739 508.014 58.5739 476.534Z" fill="#efd5a3" fill-rule="evenodd" opacity="1" stroke="none"/>
</g>
<g opacity="1">
<path d="M86.9137 500.965L94.6729 500.965L94.6729 456.647C93.9739 457.159 93.1817 457.672 92.2962 458.184L84.3273 462.728L83.7681 461.819C86.8438 460.095 89.6399 458.441 92.1564 456.856C94.6729 455.272 97.0496 453.361 99.2865 451.124L100.685 451.124L100.685 500.965L108.444 500.965L108.444 501.944L86.9137 501.944L86.9137 500.965Z" fill="#000000" fill-rule="evenodd" opacity="1" stroke="none"/>
<path d="M147.38 501.944L115.434 501.944L115.434 500.965C117.252 499.427 118.918 498.006 120.432 496.701C121.947 495.396 123.368 494.115 124.696 492.856C126.024 491.598 127.294 490.316 128.506 489.012C129.718 487.707 130.953 486.309 132.211 484.817C135.193 481.182 137.232 477.664 138.327 474.262C139.422 470.86 139.97 467.715 139.97 464.825C139.97 460.631 139.259 457.462 137.838 455.318C136.417 453.175 134.168 452.103 131.092 452.103C128.716 452.103 126.758 452.627 125.22 453.676C123.683 454.724 122.914 456.181 122.914 458.045C122.914 458.697 123.065 459.361 123.368 460.037C123.671 460.713 123.822 461.4 123.822 462.099C123.822 462.891 123.543 463.485 122.984 463.882C122.424 464.278 121.772 464.476 121.026 464.476C120.048 464.476 119.209 464.219 118.51 463.707C117.811 463.194 117.461 462.262 117.461 460.911C117.461 459.699 117.811 458.499 118.51 457.311C119.209 456.122 120.164 455.074 121.376 454.165C122.587 453.256 124.032 452.522 125.71 451.963C127.387 451.404 129.182 451.124 131.092 451.124C133.795 451.124 136.114 451.52 138.048 452.313C139.982 453.105 141.578 454.142 142.836 455.423C144.094 456.705 145.026 458.161 145.632 459.792C146.238 461.423 146.541 463.101 146.541 464.825C146.541 466.922 146.238 468.868 145.632 470.662C145.026 472.456 144.199 474.146 143.151 475.73C142.102 477.315 140.902 478.829 139.551 480.274C138.199 481.718 136.778 483.163 135.287 484.608C133.189 486.705 131.127 488.709 129.1 490.619C127.073 492.53 124.848 494.581 122.424 496.771L138.432 496.771C141.182 496.771 143.162 496.107 144.374 494.779C145.586 493.45 146.331 491.621 146.611 489.291L147.38 489.291L147.38 501.944Z" fill="#000000" fill-rule="evenodd" opacity="1" stroke="none"/>
</g>
</g>
</g>
<g opacity="1">
<g opacity="1">
<g opacity="1">
<path d="M319.858 476.534C319.858 443.397 346.721 416.534 379.858 416.534C412.995 416.534 439.858 443.397 439.858 476.534C439.858 509.671 412.995 536.534 379.858 536.534C346.721 536.534 319.858 509.671 319.858 476.534Z" fill="#cfba84" fill-rule="evenodd" opacity="1" stroke="none"/>
<path d="M322.858 476.534C322.858 445.054 348.378 419.534 379.858 419.534C411.338 419.534 436.858 445.054 436.858 476.534C436.858 508.014 411.338 533.534 379.858 533.534C348.378 533.534 322.858 508.014 322.858 476.534Z" fill="#efd5a3" fill-rule="evenodd" opacity="1" stroke="none"/>
</g>
<g opacity="1">
<path d="M351.198 500.965L358.957 500.965L358.957 456.647C358.258 457.159 357.466 457.672 356.58 458.184L348.611 462.728L348.052 461.819C351.128 460.095 353.924 458.441 356.441 456.856C358.957 455.272 361.334 453.361 363.571 451.124L364.969 451.124L364.969 500.965L372.728 500.965L372.728 501.944L351.198 501.944L351.198 500.965Z" fill="#000000" fill-rule="evenodd" opacity="1" stroke="none"/>
<path d="M411.664 501.944L379.718 501.944L379.718 500.965C381.536 499.427 383.202 498.006 384.716 496.701C386.231 495.396 387.652 494.115 388.98 492.856C390.308 491.598 391.578 490.316 392.79 489.012C394.002 487.707 395.237 486.309 396.495 484.817C399.477 481.182 401.516 477.664 402.611 474.262C403.707 470.86 404.254 467.715 404.254 464.825C404.254 460.631 403.543 457.462 402.122 455.318C400.701 453.175 398.452 452.103 395.376 452.103C393 452.103 391.042 452.627 389.505 453.676C387.967 454.724 387.198 456.181 387.198 458.045C387.198 458.697 387.349 459.361 387.652 460.037C387.955 460.713 388.107 461.4 388.107 462.099C388.107 462.891 387.827 463.485 387.268 463.882C386.708 464.278 386.056 464.476 385.31 464.476C384.332 464.476 383.493 464.219 382.794 463.707C382.095 463.194 381.745 462.262 381.745 460.911C381.745 459.699 382.095 458.499 382.794 457.311C383.493 456.122 384.448 455.074 385.66 454.165C386.872 453.256 388.316 452.522 389.994 451.963C391.672 451.404 393.466 451.124 395.376 451.124C398.079 451.124 400.398 451.52 402.332 452.313C404.266 453.105 405.862 454.142 407.12 455.423C408.378 456.705 409.31 458.161 409.916 459.792C410.522 461.423 410.825 463.101 410.825 464.825C410.825 466.922 410.522 468.868 409.916 470.662C409.31 472.456 408.483 474.146 407.435 475.73C406.386 477.315 405.186 478.829 403.835 480.274C402.483 481.718 401.062 483.163 399.571 484.608C397.474 486.705 395.411 488.709 393.384 490.619C391.357 492.53 389.132 494.581 386.708 496.771L402.716 496.771C405.466 496.771 407.446 496.107 408.658 494.779C409.87 493.45 410.615 491.621 410.895 489.291L411.664 489.291L411.664 501.944Z" fill="#000000" fill-rule="evenodd" opacity="1" stroke="none"/>
</g>
</g>
</g>
<g opacity="1">
<g opacity="1">
<g opacity="1">
<path d="M584.142 476.534C584.142 443.397 611.005 416.534 644.142 416.534C677.279 416.534 704.142 443.397 704.142 476.534C704.142 509.671 677.279 536.534 644.142 536.534C611.005 536.534 584.142 509.671 584.142 476.534Z" fill="#cfba84" fill-rule="evenodd" opacity="1" stroke="none"/>
<path d="M587.142 476.534C587.142 445.054 612.662 419.534 644.142 419.534C675.622 419.534 701.142 445.054 701.142 476.534C701.142 508.014 675.622 533.534 644.142 533.534C612.662 533.534 587.142 508.014 587.142 476.534Z" fill="#efd5a3" fill-rule="evenodd" opacity="1" stroke="none"/>
</g>
<g opacity="1">
<path d="M615.482 500.965L623.241 500.965L623.241 456.647C622.542 457.159 621.75 457.672 620.864 458.184L612.895 462.728L612.336 461.819C615.412 460.095 618.208 458.441 620.725 456.856C623.241 455.272 625.618 453.361 627.855 451.124L629.253 451.124L629.253 500.965L637.012 500.965L637.012 501.944L615.482 501.944L615.482 500.965Z" fill="#000000" fill-rule="evenodd" opacity="1" stroke="none"/>
<path d="M675.948 501.944L644.002 501.944L644.002 500.965C645.82 499.427 647.486 498.006 649 496.701C650.515 495.396 651.936 494.115 653.264 492.856C654.593 491.598 655.862 490.316 657.074 489.012C658.286 487.707 659.521 486.309 660.779 484.817C663.761 481.182 665.8 477.664 666.895 474.262C667.991 470.86 668.538 467.715 668.538 464.825C668.538 460.631 667.827 457.462 666.406 455.318C664.985 453.175 662.736 452.103 659.66 452.103C657.284 452.103 655.327 452.627 653.789 453.676C652.251 454.724 651.482 456.181 651.482 458.045C651.482 458.697 651.633 459.361 651.936 460.037C652.239 460.713 652.391 461.4 652.391 462.099C652.391 462.891 652.111 463.485 651.552 463.882C650.993 464.278 650.34 464.476 649.594 464.476C648.616 464.476 647.777 464.219 647.078 463.707C646.379 463.194 646.029 462.262 646.029 460.911C646.029 459.699 646.379 458.499 647.078 457.311C647.777 456.122 648.732 455.074 649.944 454.165C651.156 453.256 652.6 452.522 654.278 451.963C655.956 451.404 657.75 451.124 659.66 451.124C662.363 451.124 664.682 451.52 666.616 452.313C668.55 453.105 670.146 454.142 671.404 455.423C672.662 456.705 673.594 458.161 674.2 459.792C674.806 461.423 675.109 463.101 675.109 464.825C675.109 466.922 674.806 468.868 674.2 470.662C673.594 472.456 672.767 474.146 671.719 475.73C670.67 477.315 669.47 478.829 668.119 480.274C666.767 481.718 665.346 483.163 663.855 484.608C661.758 486.705 659.695 488.709 657.668 490.619C655.641 492.53 653.416 494.581 650.993 496.771L667 496.771C669.75 496.771 671.73 496.107 672.942 494.779C674.154 493.45 674.899 491.621 675.179 489.291L675.948 489.291L675.948 501.944Z" fill="#000000" fill-rule="evenodd" opacity="1" stroke="none"/>
</g>
</g>
</g>
<g opacity="1">
<g opacity="1">
<g opacity="1">
<path d="M187.716 476.534C187.716 443.397 214.579 416.534 247.716 416.534C280.853 416.534 307.716 443.397 307.716 476.534C307.716 509.671 280.853 536.534 247.716 536.534C214.579 536.534 187.716 509.671 187.716 476.534Z" fill="#cfba84" fill-rule="evenodd" opacity="1" stroke="none"/>
<path d="M190.716 476.534C190.716 445.054 216.236 419.534 247.716 419.534C279.196 419.534 304.716 445.054 304.716 476.534C304.716 508.014 279.196 533.534 247.716 533.534C216.236 533.534 190.716 508.014 190.716 476.534Z" fill="#efd5a3" fill-rule="evenodd" opacity="1" stroke="none"/>
</g>
<g opacity="1">
<path d="M219.056 500.965L226.815 500.965L226.815 456.647C226.116 457.159 225.324 457.672 224.438 458.184L216.469 462.728L215.91 461.819C218.986 460.095 221.782 458.441 224.298 456.856C226.815 455.272 229.192 453.361 231.429 451.124L232.827 451.124L232.827 500.965L240.586 500.965L240.586 501.944L219.056 501.944L219.056 500.965Z" fill="#000000" fill-rule="evenodd" opacity="1" stroke="none"/>
<path d="M279.522 501.944L247.576 501.944L247.576 500.965C249.394 499.427 251.06 498.006 252.574 496.701C254.089 495.396 255.51 494.115 256.838 492.856C258.166 491.598 259.436 490.316 260.648 489.012C261.86 487.707 263.095 486.309 264.353 484.817C267.335 481.182 269.374 477.664 270.469 474.262C271.564 470.86 272.112 467.715 272.112 464.825C272.112 460.631 271.401 457.462 269.98 455.318C268.559 453.175 266.31 452.103 263.234 452.103C260.858 452.103 258.9 452.627 257.363 453.676C255.825 454.724 255.056 456.181 255.056 458.045C255.056 458.697 255.207 459.361 255.51 460.037C255.813 460.713 255.964 461.4 255.964 462.099C255.964 462.891 255.685 463.485 255.126 463.882C254.566 464.278 253.914 464.476 253.168 464.476C252.19 464.476 251.351 464.219 250.652 463.707C249.953 463.194 249.603 462.262 249.603 460.911C249.603 459.699 249.953 458.499 250.652 457.311C251.351 456.122 252.306 455.074 253.518 454.165C254.73 453.256 256.174 452.522 257.852 451.963C259.53 451.404 261.324 451.124 263.234 451.124C265.937 451.124 268.256 451.52 270.19 452.313C272.124 453.105 273.72 454.142 274.978 455.423C276.236 456.705 277.168 458.161 277.774 459.792C278.38 461.423 278.683 463.101 278.683 464.825C278.683 466.922 278.38 468.868 277.774 470.662C277.168 472.456 276.341 474.146 275.293 475.73C274.244 477.315 273.044 478.829 271.693 480.274C270.341 481.718 268.92 483.163 267.429 484.608C265.331 486.705 263.269 488.709 261.242 490.619C259.215 492.53 256.99 494.581 254.566 496.771L270.574 496.771C273.324 496.771 275.304 496.107 276.516 494.779C277.728 493.45 278.473 491.621 278.753 489.291L279.522 489.291L279.522 501.944Z" fill="#000000" fill-rule="evenodd" opacity="1" stroke="none"/>
</g>
</g>
</g>
<g opacity="1">
<g opacity="1">
<g opacity="1">
<path d="M452 476.534C452 443.397 478.863 416.534 512 416.534C545.137 416.534 572 443.397 572 476.534C572 509.671 545.137 536.534 512 536.534C478.863 536.534 452 509.671 452 476.534Z" fill="#cfba84" fill-rule="evenodd" opacity="1" stroke="none"/>
<path d="M455 476.534C455 445.054 480.52 419.534 512 419.534C543.48 419.534 569 445.054 569 476.534C569 508.014 543.48 533.534 512 533.534C480.52 533.534 455 508.014 455 476.534Z" fill="#efd5a3" fill-rule="evenodd" opacity="1" stroke="none"/>
</g>
<g opacity="1">
<path d="M502.808 500.965L510.567 500.965L510.567 456.647C509.868 457.159 509.076 457.672 508.19 458.184L500.221 462.728L499.662 461.819C502.738 460.095 505.534 458.441 508.05 456.856C510.567 455.272 512.944 453.361 515.181 451.124L516.579 451.124L516.579 500.965L524.338 500.965L524.338 501.944L502.808 501.944L502.808 500.965Z" fill="#000000" fill-rule="evenodd" opacity="1" stroke="none"/>
</g>
</g>
</g>
<g opacity="1">
<g opacity="1">
<g opacity="1">
<path d="M716.284 476.534C716.284 443.397 743.147 416.534 776.284 416.534C809.421 416.534 836.284 443.397 836.284 476.534C836.284 509.671 809.421 536.534 776.284 536.534C743.147 536.534 716.284 509.671 716.284 476.534Z" fill="#cfba84" fill-rule="evenodd" opacity="1" stroke="none"/>
<path d="M719.284 476.534C719.284 445.054 744.804 419.534 776.284 419.534C807.764 419.534 833.284 445.054 833.284 476.534C833.284 508.014 807.764 533.534 776.284 533.534C744.804 533.534 719.284 508.014 719.284 476.534Z" fill="#efd5a3" fill-rule="evenodd" opacity="1" stroke="none"/>
</g>
<g opacity="1">
<path d="M747.624 500.965L755.383 500.965L755.383 456.647C754.684 457.159 753.892 457.672 753.006 458.184L745.037 462.728L744.478 461.819C747.554 460.095 750.35 458.441 752.867 456.856C755.383 455.272 757.76 453.361 759.997 451.124L761.395 451.124L761.395 500.965L769.154 500.965L769.154 501.944L747.624 501.944L747.624 500.965Z" fill="#000000" fill-rule="evenodd" opacity="1" stroke="none"/>
<path d="M808.09 501.944L776.144 501.944L776.144 500.965C777.962 499.427 779.628 498.006 781.142 496.701C782.657 495.396 784.078 494.115 785.406 492.856C786.735 491.598 788.004 490.316 789.216 489.012C790.428 487.707 791.663 486.309 792.921 484.817C795.903 481.182 797.942 477.664 799.037 474.262C800.133 470.86 800.68 467.715 800.68 464.825C800.68 460.631 799.97 457.462 798.548 455.318C797.127 453.175 794.878 452.103 791.803 452.103C789.426 452.103 787.469 452.627 785.931 453.676C784.393 454.724 783.624 456.181 783.624 458.045C783.624 458.697 783.775 459.361 784.078 460.037C784.381 460.713 784.533 461.4 784.533 462.099C784.533 462.891 784.253 463.485 783.694 463.882C783.135 464.278 782.482 464.476 781.737 464.476C780.758 464.476 779.919 464.219 779.22 463.707C778.521 463.194 778.171 462.262 778.171 460.911C778.171 459.699 778.521 458.499 779.22 457.311C779.919 456.122 780.874 455.074 782.086 454.165C783.298 453.256 784.742 452.522 786.42 451.963C788.098 451.404 789.892 451.124 791.803 451.124C794.505 451.124 796.824 451.52 798.758 452.313C800.692 453.105 802.288 454.142 803.546 455.423C804.804 456.705 805.737 458.161 806.342 459.792C806.948 461.423 807.251 463.101 807.251 464.825C807.251 466.922 806.948 468.868 806.342 470.662C805.737 472.456 804.909 474.146 803.861 475.73C802.812 477.315 801.612 478.829 800.261 480.274C798.909 481.718 797.488 483.163 795.997 484.608C793.9 486.705 791.837 488.709 789.81 490.619C787.783 492.53 785.558 494.581 783.135 496.771L799.142 496.771C801.892 496.771 803.872 496.107 805.084 494.779C806.296 493.45 807.041 491.621 807.321 489.291L808.09 489.291L808.09 501.944Z" fill="#000000" fill-rule="evenodd" opacity="1" stroke="none"/>
</g>
</g>
</g>
<g opacity="1">
<g opacity="1">
<g opacity="1">
<path d="M848.426 476.534C848.426 443.397 875.289 416.534 908.426 416.534C941.563 416.534 968.426 443.397 968.426 476.534C968.426 509.671 941.563 536.534 908.426 536.534C875.289 536.534 848.426 509.671 848.426 476.534Z" fill="#cfba84" fill-rule="evenodd" opacity="1" stroke="none"/>
<path d="M851.426 476.534C851.426 445.054 876.946 419.534 908.426 419.534C939.906 419.534 965.426 445.054 965.426 476.534C965.426 508.014 939.906 533.534 908.426 533.534C876.946 533.534 851.426 508.014 851.426 476.534Z" fill="#efd5a3" fill-rule="evenodd" opacity="1" stroke="none"/>
</g>
<g opacity="1">
<path d="M879.766 500.965L887.525 500.965L887.525 456.647C886.826 457.159 886.034 457.672 885.148 458.184L877.18 462.728L876.62 461.819C879.696 460.095 882.492 458.441 885.009 456.856C887.525 455.272 889.902 453.361 892.139 451.124L893.537 451.124L893.537 500.965L901.296 500.965L901.296 501.944L879.766 501.944L879.766 500.965Z" fill="#000000" fill-rule="evenodd" opacity="1" stroke="none"/>
<path d="M940.232 501.944L908.286 501.944L908.286 500.965C910.104 499.427 911.77 498.006 913.284 496.701C914.799 495.396 916.22 494.115 917.548 492.856C918.877 491.598 920.146 490.316 921.358 489.012C922.57 487.707 923.805 486.309 925.063 484.817C928.046 481.182 930.084 477.664 931.18 474.262C932.275 470.86 932.822 467.715 932.822 464.825C932.822 460.631 932.112 457.462 930.69 455.318C929.269 453.175 927.02 452.103 923.945 452.103C921.568 452.103 919.611 452.627 918.073 453.676C916.535 454.724 915.766 456.181 915.766 458.045C915.766 458.697 915.917 459.361 916.22 460.037C916.523 460.713 916.675 461.4 916.675 462.099C916.675 462.891 916.395 463.485 915.836 463.882C915.277 464.278 914.624 464.476 913.879 464.476C912.9 464.476 912.061 464.219 911.362 463.707C910.663 463.194 910.313 462.262 910.313 460.911C910.313 459.699 910.663 458.499 911.362 457.311C912.061 456.122 913.016 455.074 914.228 454.165C915.44 453.256 916.884 452.522 918.562 451.963C920.24 451.404 922.034 451.124 923.945 451.124C926.647 451.124 928.966 451.52 930.9 452.313C932.834 453.105 934.43 454.142 935.688 455.423C936.946 456.705 937.879 458.161 938.484 459.792C939.09 461.423 939.393 463.101 939.393 464.825C939.393 466.922 939.09 468.868 938.484 470.662C937.879 472.456 937.051 474.146 936.003 475.73C934.954 477.315 933.754 478.829 932.403 480.274C931.051 481.718 929.63 483.163 928.139 484.608C926.042 486.705 923.98 488.709 921.952 490.619C919.925 492.53 917.7 494.581 915.277 496.771L931.284 496.771C934.034 496.771 936.014 496.107 937.226 494.779C938.438 493.45 939.183 491.621 939.463 489.291L940.232 489.291L940.232 501.944Z" fill="#000000" fill-rule="evenodd" opacity="1" stroke="none"/>
</g>
</g>
</g>
</g>
</g>
</g>
</svg>
