<?xml version="1.0" encoding="UTF-8" standalone="no"?>
<!DOCTYPE svg PUBLIC "-//W3C//DTD SVG 1.1//EN" "http://www.w3.org/Graphics/SVG/1.1/DTD/svg11.dtd"
[
<!ATTLIST g
  xmlns:vectornator CDATA #FIXED "http://vectornator.io"
  vectornator:layerName CDATA #IMPLIED >
<!ATTLIST g
  xmlns:vectornator CDATA #FIXED "http://vectornator.io"
  vectornator:mask CDATA #IMPLIED >
<!ATTLIST text
  xmlns:vectornator CDATA #FIXED "http://vectornator.io"
  vectornator:width CDATA #IMPLIED >

<!ATTLIST path
  xmlns:vectornator CDATA #FIXED "http://vectornator.io"
  vectornator:blendMode CDATA #IMPLIED >
<!ATTLIST path
  xmlns:vectornator CDATA #FIXED "http://vectornator.io"
  vectornator:shadowColor CDATA #IMPLIED >
<!ATTLIST path
  xmlns:vectornator CDATA #FIXED "http://vectornator.io"
  vectornator:shadowOpacity CDATA #IMPLIED >
<!ATTLIST path
  xmlns:vectornator CDATA #FIXED "http://vectornator.io"
  vectornator:shadowRadius CDATA #IMPLIED >
<!ATTLIST path
  xmlns:vectornator CDATA #FIXED "http://vectornator.io"
  vectornator:shadowOffset CDATA #IMPLIED >
<!ATTLIST path
  xmlns:vectornator CDATA #FIXED "http://vectornator.io"
  vectornator:shadowAngle CDATA #IMPLIED >

<!ATTLIST image
  xmlns:vectornator CDATA #FIXED "http://vectornator.io"
  vectornator:blendMode CDATA #IMPLIED >
<!ATTLIST image
  xmlns:vectornator CDATA #FIXED "http://vectornator.io"
  vectornator:shadowColor CDATA #IMPLIED >
<!ATTLIST image
  xmlns:vectornator CDATA #FIXED "http://vectornator.io"
  vectornator:shadowOpacity CDATA #IMPLIED >
<!ATTLIST image
  xmlns:vectornator CDATA #FIXED "http://vectornator.io"
  vectornator:shadowRadius CDATA #IMPLIED >
<!ATTLIST image
  xmlns:vectornator CDATA #FIXED "http://vectornator.io"
  vectornator:shadowOffset CDATA #IMPLIED >
<!ATTLIST image
  xmlns:vectornator CDATA #FIXED "http://vectornator.io"
  vectornator:shadowAngle CDATA #IMPLIED >

<!ATTLIST g
  xmlns:vectornator CDATA #FIXED "http://vectornator.io"
  vectornator:blendMode CDATA #IMPLIED >
<!ATTLIST g
  xmlns:vectornator CDATA #FIXED "http://vectornator.io"
  vectornator:shadowColor CDATA #IMPLIED >
<!ATTLIST g
  xmlns:vectornator CDATA #FIXED "http://vectornator.io"
  vectornator:shadowOpacity CDATA #IMPLIED >
<!ATTLIST g
  xmlns:vectornator CDATA #FIXED "http://vectornator.io"
  vectornator:shadowRadius CDATA #IMPLIED >
<!ATTLIST g
  xmlns:vectornator CDATA #FIXED "http://vectornator.io"
  vectornator:shadowOffset CDATA #IMPLIED >
<!ATTLIST g
  xmlns:vectornator CDATA #FIXED "http://vectornator.io"
  vectornator:shadowAngle CDATA #IMPLIED >

<!ENTITY % SVG.filter.extra.content  "| feDropShadow" >
<!ELEMENT feDropShadow EMPTY>
<!ATTLIST feDropShadow
  xmlns:svg CDATA #FIXED "http://www.w3.org/Graphics/SVG/1.1/DTD/svg11.dtd"
  dx CDATA #IMPLIED>
<!ATTLIST feDropShadow
  xmlns:svg CDATA #FIXED "http://www.w3.org/Graphics/SVG/1.1/DTD/svg11.dtd"
  dy CDATA #IMPLIED>
<!ATTLIST feDropShadow
  xmlns:svg CDATA #FIXED "http://www.w3.org/Graphics/SVG/1.1/DTD/svg11.dtd"
  stdDeviation CDATA #IMPLIED>
<!ATTLIST feDropShadow
  xmlns:svg CDATA #FIXED "http://www.w3.org/Graphics/SVG/1.1/DTD/svg11.dtd"
  flood-opacity CDATA #IMPLIED>
<!ATTLIST feDropShadow
  xmlns:svg CDATA #FIXED "http://www.w3.org/Graphics/SVG/1.1/DTD/svg11.dtd"
  in CDATA #IMPLIED>
<!ATTLIST feDropShadow
  xmlns:svg CDATA #FIXED "http://www.w3.org/Graphics/SVG/1.1/DTD/svg11.dtd"
  result CDATA #IMPLIED>
<!ATTLIST feDropShadow
  xmlns:svg CDATA #FIXED "http://www.w3.org/Graphics/SVG/1.1/DTD/svg11.dtd"
  flood-color CDATA #IMPLIED>
]
>
<!-- Created with Vectornator (http://vectornator.io/) -->
<svg height="100%" stroke-miterlimit="10" style="fill-rule:nonzero;clip-rule:evenodd;stroke-linecap:round;stroke-linejoin:round;" version="1.1" viewBox="0 0 1197.51 768" width="100%" xml:space="preserve" xmlns="http://www.w3.org/2000/svg" xmlns:vectornator="http://vectornator.io" xmlns:xlink="http://www.w3.org/1999/xlink">
<defs/>
<g id="Слой-1" vectornator:layerName="Слой-1">
<path d="M6.39931 504.052L6.39931 263.948C6.39931 220.146 48.1294 184.637 99.6062 184.637L1097.87 184.637C1149.34 184.637 1191.07 220.146 1191.07 263.948L1191.07 504.052C1191.07 547.854 1149.34 583.363 1097.87 583.363L99.6062 583.363C48.1294 583.363 6.39931 547.854 6.39931 504.052Z" fill="#7b80bf" fill-rule="evenodd" opacity="1" stroke="none"/>
<path d="M1094.62 575.137L102.849 575.137C55.5504 575.137 17.2069 541.949 17.2069 501.009L17.2069 266.991C17.2069 226.051 55.5504 192.863 102.85 192.863L1094.62 192.863C1141.91 192.863 1180.26 226.051 1180.26 266.991L1180.26 501.009C1180.26 541.949 1141.91 575.137 1094.62 575.137Z" fill="#55557f" fill-rule="evenodd" opacity="1" stroke="none"/>
</g>
<g id="Слой-3" vectornator:layerName="Слой-3">
<g opacity="1">
<g opacity="1">
<g opacity="1">
<path d="M103.387 226.5L103.387 226.5C136.524 226.5 163.387 252.516 163.387 284.608L163.387 483.392C163.387 515.484 136.524 541.5 103.387 541.5L103.387 541.5C70.2493 541.5 43.3864 515.484 43.3864 483.392L43.3864 284.608C43.3864 252.516 70.2493 226.5 103.387 226.5Z" fill="#3d3e5d" fill-rule="evenodd" opacity="1" stroke="none"/>
<path d="M103.387 231.994L103.387 231.994C134.181 231.994 159.145 257.211 159.145 288.318L159.145 480.998C159.145 512.105 134.181 537.322 103.387 537.322L103.387 537.322C72.5919 537.322 47.628 512.105 47.628 480.998L47.628 288.318C47.628 257.211 72.5919 231.994 103.387 231.994Z" fill="#7b80bf" fill-rule="evenodd" opacity="1" stroke="none"/>
</g>
<path d="M103.347 356.72C105.32 356.72 107.293 357.2 109.267 358.16C111.24 359.12 113 360.68 114.547 362.84C116.093 365 117.347 367.813 118.307 371.28C119.267 374.747 119.747 378.987 119.747 384C119.747 389.013 119.267 393.253 118.307 396.72C117.347 400.187 116.093 403 114.547 405.16C113 407.32 111.24 408.88 109.267 409.84C107.293 410.8 105.32 411.28 103.347 411.28C101.32 411.28 99.3333 410.8 97.3866 409.84C95.4399 408.88 93.7066 407.32 92.1866 405.16C90.6666 403 89.4266 400.187 88.4666 396.72C87.5066 393.253 87.0266 389.013 87.0266 384C87.0266 378.987 87.5066 374.747 88.4666 371.28C89.4266 367.813 90.6666 365 92.1866 362.84C93.7066 360.68 95.4399 359.12 97.3866 358.16C99.3333 357.2 101.32 356.72 103.347 356.72ZM103.427 359.12C101.827 359.12 100.44 359.693 99.2666 360.84C98.0933 361.987 97.1199 363.64 96.3466 365.8C95.5733 367.96 94.9999 370.573 94.6266 373.64C94.2533 376.707 94.0666 380.133 94.0666 383.92C94.0666 387.707 94.2533 391.147 94.6266 394.24C94.9999 397.333 95.5733 399.96 96.3466 402.12C97.1199 404.28 98.0933 405.947 99.2666 407.12C100.44 408.293 101.827 408.88 103.427 408.88C105.027 408.88 106.4 408.293 107.547 407.12C108.693 405.947 109.653 404.28 110.427 402.12C111.2 399.96 111.773 397.333 112.147 394.24C112.52 391.147 112.707 387.707 112.707 383.92C112.707 380.133 112.52 376.707 112.147 373.64C111.773 370.573 111.2 367.96 110.427 365.8C109.653 363.64 108.693 361.987 107.547 360.84C106.4 359.693 105.027 359.12 103.427 359.12Z" fill="#ffffff" fill-rule="evenodd" opacity="1" stroke="none"/>
</g>
<g opacity="1">
<g opacity="1">
<path d="M1094.12 226.5L1094.12 226.5C1127.26 226.5 1154.12 252.516 1154.12 284.608L1154.12 483.392C1154.12 515.484 1127.26 541.5 1094.12 541.5L1094.12 541.5C1060.98 541.5 1034.12 515.484 1034.12 483.392L1034.12 284.608C1034.12 252.516 1060.98 226.5 1094.12 226.5Z" fill="#3d3e5d" fill-rule="evenodd" opacity="1" stroke="none"/>
<path d="M1094.12 231.994L1094.12 231.994C1124.91 231.994 1149.88 257.211 1149.88 288.318L1149.88 480.998C1149.88 512.105 1124.91 537.322 1094.12 537.322L1094.12 537.322C1063.33 537.322 1038.36 512.105 1038.36 480.998L1038.36 288.318C1038.36 257.211 1063.33 231.994 1094.12 231.994Z" fill="#7b80bf" fill-rule="evenodd" opacity="1" stroke="none"/>
</g>
<path d="M1094.08 356.72C1096.05 356.72 1098.03 357.2 1100 358.16C1101.97 359.12 1103.73 360.68 1105.28 362.84C1106.83 365 1108.08 367.813 1109.04 371.28C1110 374.747 1110.48 378.987 1110.48 384C1110.48 389.013 1110 393.253 1109.04 396.72C1108.08 400.187 1106.83 403 1105.28 405.16C1103.73 407.32 1101.97 408.88 1100 409.84C1098.03 410.8 1096.05 411.28 1094.08 411.28C1092.05 411.28 1090.07 410.8 1088.12 409.84C1086.17 408.88 1084.44 407.32 1082.92 405.16C1081.4 403 1080.16 400.187 1079.2 396.72C1078.24 393.253 1077.76 389.013 1077.76 384C1077.76 378.987 1078.24 374.747 1079.2 371.28C1080.16 367.813 1081.4 365 1082.92 362.84C1084.44 360.68 1086.17 359.12 1088.12 358.16C1090.07 357.2 1092.05 356.72 1094.08 356.72ZM1094.16 359.12C1092.56 359.12 1091.17 359.693 1090 360.84C1088.83 361.987 1087.85 363.64 1087.08 365.8C1086.31 367.96 1085.73 370.573 1085.36 373.64C1084.99 376.707 1084.8 380.133 1084.8 383.92C1084.8 387.707 1084.99 391.147 1085.36 394.24C1085.73 397.333 1086.31 399.96 1087.08 402.12C1087.85 404.28 1088.83 405.947 1090 407.12C1091.17 408.293 1092.56 408.88 1094.16 408.88C1095.76 408.88 1097.13 408.293 1098.28 407.12C1099.43 405.947 1100.39 404.28 1101.16 402.12C1101.93 399.96 1102.51 397.333 1102.88 394.24C1103.25 391.147 1103.44 387.707 1103.44 383.92C1103.44 380.133 1103.25 376.707 1102.88 373.64C1102.51 370.573 1101.93 367.96 1101.16 365.8C1100.39 363.64 1099.43 361.987 1098.28 360.84C1097.13 359.693 1095.76 359.12 1094.16 359.12Z" fill="#ffffff" fill-rule="evenodd" opacity="1" stroke="none"/>
</g>
</g>
<g opacity="1">
<g opacity="1">
<g opacity="1">
<g opacity="1">
<path d="M175.765 309.216C175.765 276.078 202.628 249.216 235.765 249.216C268.902 249.216 295.765 276.078 295.765 309.216C295.765 342.353 268.902 369.216 235.765 369.216C202.628 369.216 175.765 342.353 175.765 309.216Z" fill="#3d3e5d" fill-rule="evenodd" opacity="1" stroke="none"/>
<path d="M178.765 309.216C178.765 277.735 204.285 252.216 235.765 252.216C267.245 252.216 292.765 277.735 292.765 309.216C292.765 340.696 267.245 366.216 235.765 366.216C204.285 366.216 178.765 340.696 178.765 309.216Z" fill="#7b80bf" fill-rule="evenodd" opacity="1" stroke="none"/>
</g>
<path d="M219.285 296.096L222.485 283.056C224.458 283.162 226.418 283.242 228.365 283.296C230.312 283.349 232.272 283.376 234.245 283.376L244.645 283.376C245.178 283.376 245.845 283.376 246.645 283.376C247.445 283.376 248.272 283.362 249.125 283.336C249.978 283.309 250.805 283.269 251.605 283.216C252.405 283.162 253.072 283.109 253.605 283.056L254.165 284.336C251.285 287.749 248.218 291.656 244.965 296.056C241.712 300.456 238.658 304.976 235.805 309.616C232.952 314.256 230.458 318.816 228.325 323.296C226.192 327.776 224.805 331.802 224.165 335.376L217.365 335.376C218.165 332.602 219.285 329.762 220.725 326.856C222.165 323.949 223.778 321.069 225.565 318.216C227.352 315.362 229.245 312.576 231.245 309.856C233.245 307.136 235.218 304.562 237.165 302.136C239.112 299.709 240.938 297.442 242.645 295.336C244.352 293.229 245.818 291.376 247.045 289.776L247.045 289.296L226.965 289.296C226.005 289.296 225.192 289.522 224.525 289.976C223.858 290.429 223.272 291.002 222.765 291.696C222.258 292.389 221.818 293.136 221.445 293.936C221.072 294.736 220.672 295.482 220.245 296.176L219.285 296.096Z" fill="#ffffff" fill-rule="evenodd" opacity="1" stroke="none"/>
</g>
<g opacity="1">
<g opacity="1">
<path d="M417.757 309.216C417.757 276.078 444.62 249.216 477.757 249.216C510.894 249.216 537.757 276.078 537.757 309.216C537.757 342.353 510.894 369.216 477.757 369.216C444.62 369.216 417.757 342.353 417.757 309.216Z" fill="#3d3e5d" fill-rule="evenodd" opacity="1" stroke="none"/>
<path d="M420.757 309.216C420.757 277.735 446.277 252.216 477.757 252.216C509.237 252.216 534.757 277.735 534.757 309.216C534.757 340.696 509.237 366.216 477.757 366.216C446.277 366.216 420.757 340.696 420.757 309.216Z" fill="#7b80bf" fill-rule="evenodd" opacity="1" stroke="none"/>
</g>
<path d="M461.277 296.096L464.477 283.056C466.451 283.162 468.411 283.242 470.357 283.296C472.304 283.349 474.264 283.376 476.237 283.376L486.637 283.376C487.171 283.376 487.837 283.376 488.637 283.376C489.437 283.376 490.264 283.362 491.117 283.336C491.971 283.309 492.797 283.269 493.597 283.216C494.397 283.162 495.064 283.109 495.597 283.056L496.157 284.336C493.277 287.749 490.211 291.656 486.957 296.056C483.704 300.456 480.651 304.976 477.797 309.616C474.944 314.256 472.451 318.816 470.317 323.296C468.184 327.776 466.797 331.802 466.157 335.376L459.357 335.376C460.157 332.602 461.277 329.762 462.717 326.856C464.157 323.949 465.771 321.069 467.557 318.216C469.344 315.362 471.237 312.576 473.237 309.856C475.237 307.136 477.211 304.562 479.157 302.136C481.104 299.709 482.931 297.442 484.637 295.336C486.344 293.229 487.811 291.376 489.037 289.776L489.037 289.296L468.957 289.296C467.997 289.296 467.184 289.522 466.517 289.976C465.851 290.429 465.264 291.002 464.757 291.696C464.251 292.389 463.811 293.136 463.437 293.936C463.064 294.736 462.664 295.482 462.237 296.176L461.277 296.096Z" fill="#ffffff" fill-rule="evenodd" opacity="1" stroke="none"/>
</g>
<g opacity="1">
<g opacity="1">
<path d="M659.749 309.216C659.749 276.078 686.612 249.216 719.749 249.216C752.886 249.216 779.749 276.078 779.749 309.216C779.749 342.353 752.886 369.216 719.749 369.216C686.612 369.216 659.749 342.353 659.749 309.216Z" fill="#3d3e5d" fill-rule="evenodd" opacity="1" stroke="none"/>
<path d="M662.749 309.216C662.749 277.735 688.269 252.216 719.749 252.216C751.229 252.216 776.749 277.735 776.749 309.216C776.749 340.696 751.229 366.216 719.749 366.216C688.269 366.216 662.749 340.696 662.749 309.216Z" fill="#7b80bf" fill-rule="evenodd" opacity="1" stroke="none"/>
</g>
<path d="M703.269 296.096L706.469 283.056C708.443 283.162 710.403 283.242 712.349 283.296C714.296 283.349 716.256 283.376 718.229 283.376L728.629 283.376C729.163 283.376 729.829 283.376 730.629 283.376C731.429 283.376 732.256 283.362 733.109 283.336C733.963 283.309 734.789 283.269 735.589 283.216C736.389 283.162 737.056 283.109 737.589 283.056L738.149 284.336C735.269 287.749 732.203 291.656 728.949 296.056C725.696 300.456 722.643 304.976 719.789 309.616C716.936 314.256 714.443 318.816 712.309 323.296C710.176 327.776 708.789 331.802 708.149 335.376L701.349 335.376C702.149 332.602 703.269 329.762 704.709 326.856C706.149 323.949 707.763 321.069 709.549 318.216C711.336 315.362 713.229 312.576 715.229 309.856C717.229 307.136 719.203 304.562 721.149 302.136C723.096 299.709 724.923 297.442 726.629 295.336C728.336 293.229 729.803 291.376 731.029 289.776L731.029 289.296L710.949 289.296C709.989 289.296 709.176 289.522 708.509 289.976C707.843 290.429 707.256 291.002 706.749 291.696C706.243 292.389 705.803 293.136 705.429 293.936C705.056 294.736 704.656 295.482 704.229 296.176L703.269 296.096Z" fill="#ffffff" fill-rule="evenodd" opacity="1" stroke="none"/>
</g>
<g opacity="1">
<g opacity="1">
<path d="M296.761 309.216C296.761 276.078 323.624 249.216 356.761 249.216C389.898 249.216 416.761 276.078 416.761 309.216C416.761 342.353 389.898 369.216 356.761 369.216C323.624 369.216 296.761 342.353 296.761 309.216Z" fill="#3d3e5d" fill-rule="evenodd" opacity="1" stroke="none"/>
<path d="M299.761 309.216C299.761 277.735 325.281 252.216 356.761 252.216C388.241 252.216 413.761 277.735 413.761 309.216C413.761 340.696 388.241 366.216 356.761 366.216C325.281 366.216 299.761 340.696 299.761 309.216Z" fill="#7b80bf" fill-rule="evenodd" opacity="1" stroke="none"/>
</g>
<path d="M340.281 296.096L343.481 283.056C345.454 283.162 347.414 283.242 349.361 283.296C351.308 283.349 353.268 283.376 355.241 283.376L365.641 283.376C366.174 283.376 366.841 283.376 367.641 283.376C368.441 283.376 369.268 283.362 370.121 283.336C370.974 283.309 371.801 283.269 372.601 283.216C373.401 283.162 374.068 283.109 374.601 283.056L375.161 284.336C372.281 287.749 369.214 291.656 365.961 296.056C362.708 300.456 359.654 304.976 356.801 309.616C353.948 314.256 351.454 318.816 349.321 323.296C347.188 327.776 345.801 331.802 345.161 335.376L338.361 335.376C339.161 332.602 340.281 329.762 341.721 326.856C343.161 323.949 344.774 321.069 346.561 318.216C348.348 315.362 350.241 312.576 352.241 309.856C354.241 307.136 356.214 304.562 358.161 302.136C360.108 299.709 361.934 297.442 363.641 295.336C365.348 293.229 366.814 291.376 368.041 289.776L368.041 289.296L347.961 289.296C347.001 289.296 346.188 289.522 345.521 289.976C344.854 290.429 344.268 291.002 343.761 291.696C343.254 292.389 342.814 293.136 342.441 293.936C342.068 294.736 341.668 295.482 341.241 296.176L340.281 296.096Z" fill="#ffffff" fill-rule="evenodd" opacity="1" stroke="none"/>
</g>
<g opacity="1">
<g opacity="1">
<path d="M538.753 309.216C538.753 276.078 565.616 249.216 598.753 249.216C631.89 249.216 658.753 276.078 658.753 309.216C658.753 342.353 631.89 369.216 598.753 369.216C565.616 369.216 538.753 342.353 538.753 309.216Z" fill="#3d3e5d" fill-rule="evenodd" opacity="1" stroke="none"/>
<path d="M541.753 309.216C541.753 277.735 567.273 252.216 598.753 252.216C630.233 252.216 655.753 277.735 655.753 309.216C655.753 340.696 630.233 366.216 598.753 366.216C567.273 366.216 541.753 340.696 541.753 309.216Z" fill="#7b80bf" fill-rule="evenodd" opacity="1" stroke="none"/>
</g>
<path d="M582.273 296.096L585.473 283.056C587.447 283.162 589.407 283.242 591.353 283.296C593.3 283.349 595.26 283.376 597.233 283.376L607.633 283.376C608.167 283.376 608.833 283.376 609.633 283.376C610.433 283.376 611.26 283.362 612.113 283.336C612.967 283.309 613.793 283.269 614.593 283.216C615.393 283.162 616.06 283.109 616.593 283.056L617.153 284.336C614.273 287.749 611.207 291.656 607.953 296.056C604.7 300.456 601.647 304.976 598.793 309.616C595.94 314.256 593.447 318.816 591.313 323.296C589.18 327.776 587.793 331.802 587.153 335.376L580.353 335.376C581.153 332.602 582.273 329.762 583.713 326.856C585.153 323.949 586.767 321.069 588.553 318.216C590.34 315.362 592.233 312.576 594.233 309.856C596.233 307.136 598.207 304.562 600.153 302.136C602.1 299.709 603.927 297.442 605.633 295.336C607.34 293.229 608.807 291.376 610.033 289.776L610.033 289.296L589.953 289.296C588.993 289.296 588.18 289.522 587.513 289.976C586.847 290.429 586.26 291.002 585.753 291.696C585.247 292.389 584.807 293.136 584.433 293.936C584.06 294.736 583.66 295.482 583.233 296.176L582.273 296.096Z" fill="#ffffff" fill-rule="evenodd" opacity="1" stroke="none"/>
</g>
<g opacity="1">
<g opacity="1">
<path d="M780.746 309.216C780.746 276.078 807.609 249.216 840.746 249.216C873.883 249.216 900.745 276.078 900.745 309.216C900.745 342.353 873.883 369.216 840.746 369.216C807.609 369.216 780.746 342.353 780.746 309.216Z" fill="#3d3e5d" fill-rule="evenodd" opacity="1" stroke="none"/>
<path d="M783.746 309.216C783.746 277.735 809.266 252.216 840.746 252.216C872.226 252.216 897.745 277.735 897.745 309.216C897.745 340.696 872.226 366.216 840.746 366.216C809.266 366.216 783.746 340.696 783.746 309.216Z" fill="#7b80bf" fill-rule="evenodd" opacity="1" stroke="none"/>
</g>
<path d="M824.266 296.096L827.466 283.056C829.439 283.162 831.399 283.242 833.346 283.296C835.292 283.349 837.252 283.376 839.226 283.376L849.626 283.376C850.159 283.376 850.826 283.376 851.626 283.376C852.426 283.376 853.252 283.362 854.106 283.336C854.959 283.309 855.786 283.269 856.586 283.216C857.386 283.162 858.052 283.109 858.586 283.056L859.146 284.336C856.266 287.749 853.199 291.656 849.946 296.056C846.692 300.456 843.639 304.976 840.786 309.616C837.932 314.256 835.439 318.816 833.306 323.296C831.172 327.776 829.786 331.802 829.146 335.376L822.346 335.376C823.146 332.602 824.266 329.762 825.706 326.856C827.146 323.949 828.759 321.069 830.546 318.216C832.332 315.362 834.226 312.576 836.226 309.856C838.226 307.136 840.199 304.562 842.146 302.136C844.092 299.709 845.919 297.442 847.626 295.336C849.332 293.229 850.799 291.376 852.026 289.776L852.026 289.296L831.946 289.296C830.986 289.296 830.172 289.522 829.506 289.976C828.839 290.429 828.252 291.002 827.746 291.696C827.239 292.389 826.799 293.136 826.426 293.936C826.052 294.736 825.652 295.482 825.226 296.176L824.266 296.096Z" fill="#ffffff" fill-rule="evenodd" opacity="1" stroke="none"/>
</g>
<g opacity="1">
<g opacity="1">
<path d="M901.742 309.216C901.742 276.078 928.605 249.216 961.742 249.216C994.879 249.216 1021.74 276.078 1021.74 309.216C1021.74 342.353 994.879 369.216 961.742 369.216C928.605 369.216 901.742 342.353 901.742 309.216Z" fill="#3d3e5d" fill-rule="evenodd" opacity="1" stroke="none"/>
<path d="M904.742 309.216C904.742 277.735 930.262 252.216 961.742 252.216C993.222 252.216 1018.74 277.735 1018.74 309.216C1018.74 340.696 993.222 366.216 961.742 366.216C930.262 366.216 904.742 340.696 904.742 309.216Z" fill="#7b80bf" fill-rule="evenodd" opacity="1" stroke="none"/>
</g>
<path d="M945.262 296.096L948.462 283.056C950.435 283.162 952.395 283.242 954.342 283.296C956.288 283.349 958.248 283.376 960.222 283.376L970.622 283.376C971.155 283.376 971.822 283.376 972.622 283.376C973.422 283.376 974.248 283.362 975.102 283.336C975.955 283.309 976.782 283.269 977.582 283.216C978.382 283.162 979.048 283.109 979.582 283.056L980.142 284.336C977.262 287.749 974.195 291.656 970.942 296.056C967.688 300.456 964.635 304.976 961.782 309.616C958.928 314.256 956.435 318.816 954.302 323.296C952.168 327.776 950.782 331.802 950.142 335.376L943.342 335.376C944.142 332.602 945.262 329.762 946.702 326.856C948.142 323.949 949.755 321.069 951.542 318.216C953.328 315.362 955.222 312.576 957.222 309.856C959.222 307.136 961.195 304.562 963.142 302.136C965.088 299.709 966.915 297.442 968.622 295.336C970.328 293.229 971.795 291.376 973.022 289.776L973.022 289.296L952.942 289.296C951.982 289.296 951.168 289.522 950.502 289.976C949.835 290.429 949.248 291.002 948.742 291.696C948.235 292.389 947.795 293.136 947.422 293.936C947.048 294.736 946.648 295.482 946.222 296.176L945.262 296.096Z" fill="#ffffff" fill-rule="evenodd" opacity="1" stroke="none"/>
</g>
</g>
<g opacity="1">
<g opacity="1">
<g opacity="1">
<path d="M175.765 458.784C175.765 425.646 202.628 398.784 235.765 398.784C268.902 398.784 295.765 425.646 295.765 458.784C295.765 491.921 268.902 518.784 235.765 518.784C202.628 518.784 175.765 491.921 175.765 458.784Z" fill="#3d3e5d" fill-rule="evenodd" opacity="1" stroke="none"/>
<path d="M178.765 458.784C178.765 427.303 204.285 401.784 235.765 401.784C267.245 401.784 292.765 427.303 292.765 458.784C292.765 490.264 267.245 515.784 235.765 515.784C204.285 515.784 178.765 490.264 178.765 458.784Z" fill="#7b80bf" fill-rule="evenodd" opacity="1" stroke="none"/>
</g>
<path d="M219.285 445.664L222.485 432.624C224.458 432.731 226.418 432.811 228.365 432.864C230.312 432.918 232.272 432.944 234.245 432.944L244.645 432.944C245.178 432.944 245.845 432.944 246.645 432.944C247.445 432.944 248.272 432.931 249.125 432.904C249.978 432.878 250.805 432.838 251.605 432.784C252.405 432.731 253.072 432.678 253.605 432.624L254.165 433.904C251.285 437.318 248.218 441.224 244.965 445.624C241.712 450.024 238.658 454.544 235.805 459.184C232.952 463.824 230.458 468.384 228.325 472.864C226.192 477.344 224.805 481.371 224.165 484.944L217.365 484.944C218.165 482.171 219.285 479.331 220.725 476.424C222.165 473.518 223.778 470.638 225.565 467.784C227.352 464.931 229.245 462.144 231.245 459.424C233.245 456.704 235.218 454.131 237.165 451.704C239.112 449.278 240.938 447.011 242.645 444.904C244.352 442.798 245.818 440.944 247.045 439.344L247.045 438.864L226.965 438.864C226.005 438.864 225.192 439.091 224.525 439.544C223.858 439.998 223.272 440.571 222.765 441.264C222.258 441.958 221.818 442.704 221.445 443.504C221.072 444.304 220.672 445.051 220.245 445.744L219.285 445.664Z" fill="#ffffff" fill-rule="evenodd" opacity="1" stroke="none"/>
</g>
<g opacity="1">
<g opacity="1">
<path d="M417.757 458.784C417.757 425.646 444.62 398.784 477.757 398.784C510.894 398.784 537.757 425.646 537.757 458.784C537.757 491.921 510.894 518.784 477.757 518.784C444.62 518.784 417.757 491.921 417.757 458.784Z" fill="#3d3e5d" fill-rule="evenodd" opacity="1" stroke="none"/>
<path d="M420.757 458.784C420.757 427.303 446.277 401.784 477.757 401.784C509.237 401.784 534.757 427.303 534.757 458.784C534.757 490.264 509.237 515.784 477.757 515.784C446.277 515.784 420.757 490.264 420.757 458.784Z" fill="#7b80bf" fill-rule="evenodd" opacity="1" stroke="none"/>
</g>
<path d="M461.277 445.664L464.477 432.624C466.451 432.731 468.411 432.811 470.357 432.864C472.304 432.918 474.264 432.944 476.237 432.944L486.637 432.944C487.171 432.944 487.837 432.944 488.637 432.944C489.437 432.944 490.264 432.931 491.117 432.904C491.971 432.878 492.797 432.838 493.597 432.784C494.397 432.731 495.064 432.678 495.597 432.624L496.157 433.904C493.277 437.318 490.211 441.224 486.957 445.624C483.704 450.024 480.651 454.544 477.797 459.184C474.944 463.824 472.451 468.384 470.317 472.864C468.184 477.344 466.797 481.371 466.157 484.944L459.357 484.944C460.157 482.171 461.277 479.331 462.717 476.424C464.157 473.518 465.771 470.638 467.557 467.784C469.344 464.931 471.237 462.144 473.237 459.424C475.237 456.704 477.211 454.131 479.157 451.704C481.104 449.278 482.931 447.011 484.637 444.904C486.344 442.798 487.811 440.944 489.037 439.344L489.037 438.864L468.957 438.864C467.997 438.864 467.184 439.091 466.517 439.544C465.851 439.998 465.264 440.571 464.757 441.264C464.251 441.958 463.811 442.704 463.437 443.504C463.064 444.304 462.664 445.051 462.237 445.744L461.277 445.664Z" fill="#ffffff" fill-rule="evenodd" opacity="1" stroke="none"/>
</g>
<g opacity="1">
<g opacity="1">
<path d="M659.749 458.784C659.749 425.646 686.612 398.784 719.749 398.784C752.886 398.784 779.749 425.646 779.749 458.784C779.749 491.921 752.886 518.784 719.749 518.784C686.612 518.784 659.749 491.921 659.749 458.784Z" fill="#3d3e5d" fill-rule="evenodd" opacity="1" stroke="none"/>
<path d="M662.749 458.784C662.749 427.303 688.269 401.784 719.749 401.784C751.229 401.784 776.749 427.303 776.749 458.784C776.749 490.264 751.229 515.784 719.749 515.784C688.269 515.784 662.749 490.264 662.749 458.784Z" fill="#7b80bf" fill-rule="evenodd" opacity="1" stroke="none"/>
</g>
<path d="M703.269 445.664L706.469 432.624C708.443 432.731 710.403 432.811 712.349 432.864C714.296 432.918 716.256 432.944 718.229 432.944L728.629 432.944C729.163 432.944 729.829 432.944 730.629 432.944C731.429 432.944 732.256 432.931 733.109 432.904C733.963 432.878 734.789 432.838 735.589 432.784C736.389 432.731 737.056 432.678 737.589 432.624L738.149 433.904C735.269 437.318 732.203 441.224 728.949 445.624C725.696 450.024 722.643 454.544 719.789 459.184C716.936 463.824 714.443 468.384 712.309 472.864C710.176 477.344 708.789 481.371 708.149 484.944L701.349 484.944C702.149 482.171 703.269 479.331 704.709 476.424C706.149 473.518 707.763 470.638 709.549 467.784C711.336 464.931 713.229 462.144 715.229 459.424C717.229 456.704 719.203 454.131 721.149 451.704C723.096 449.278 724.923 447.011 726.629 444.904C728.336 442.798 729.803 440.944 731.029 439.344L731.029 438.864L710.949 438.864C709.989 438.864 709.176 439.091 708.509 439.544C707.843 439.998 707.256 440.571 706.749 441.264C706.243 441.958 705.803 442.704 705.429 443.504C705.056 444.304 704.656 445.051 704.229 445.744L703.269 445.664Z" fill="#ffffff" fill-rule="evenodd" opacity="1" stroke="none"/>
</g>
<g opacity="1">
<g opacity="1">
<path d="M296.761 458.784C296.761 425.646 323.624 398.784 356.761 398.784C389.898 398.784 416.761 425.646 416.761 458.784C416.761 491.921 389.898 518.784 356.761 518.784C323.624 518.784 296.761 491.921 296.761 458.784Z" fill="#3d3e5d" fill-rule="evenodd" opacity="1" stroke="none"/>
<path d="M299.761 458.784C299.761 427.303 325.281 401.784 356.761 401.784C388.241 401.784 413.761 427.303 413.761 458.784C413.761 490.264 388.241 515.784 356.761 515.784C325.281 515.784 299.761 490.264 299.761 458.784Z" fill="#7b80bf" fill-rule="evenodd" opacity="1" stroke="none"/>
</g>
<path d="M340.281 445.664L343.481 432.624C345.454 432.731 347.414 432.811 349.361 432.864C351.308 432.918 353.268 432.944 355.241 432.944L365.641 432.944C366.174 432.944 366.841 432.944 367.641 432.944C368.441 432.944 369.268 432.931 370.121 432.904C370.974 432.878 371.801 432.838 372.601 432.784C373.401 432.731 374.068 432.678 374.601 432.624L375.161 433.904C372.281 437.318 369.214 441.224 365.961 445.624C362.708 450.024 359.654 454.544 356.801 459.184C353.948 463.824 351.454 468.384 349.321 472.864C347.188 477.344 345.801 481.371 345.161 484.944L338.361 484.944C339.161 482.171 340.281 479.331 341.721 476.424C343.161 473.518 344.774 470.638 346.561 467.784C348.348 464.931 350.241 462.144 352.241 459.424C354.241 456.704 356.214 454.131 358.161 451.704C360.108 449.278 361.934 447.011 363.641 444.904C365.348 442.798 366.814 440.944 368.041 439.344L368.041 438.864L347.961 438.864C347.001 438.864 346.188 439.091 345.521 439.544C344.854 439.998 344.268 440.571 343.761 441.264C343.254 441.958 342.814 442.704 342.441 443.504C342.068 444.304 341.668 445.051 341.241 445.744L340.281 445.664Z" fill="#ffffff" fill-rule="evenodd" opacity="1" stroke="none"/>
</g>
<g opacity="1">
<g opacity="1">
<path d="M538.753 458.784C538.753 425.646 565.616 398.784 598.753 398.784C631.89 398.784 658.753 425.646 658.753 458.784C658.753 491.921 631.89 518.784 598.753 518.784C565.616 518.784 538.753 491.921 538.753 458.784Z" fill="#3d3e5d" fill-rule="evenodd" opacity="1" stroke="none"/>
<path d="M541.753 458.784C541.753 427.303 567.273 401.784 598.753 401.784C630.233 401.784 655.753 427.303 655.753 458.784C655.753 490.264 630.233 515.784 598.753 515.784C567.273 515.784 541.753 490.264 541.753 458.784Z" fill="#7b80bf" fill-rule="evenodd" opacity="1" stroke="none"/>
</g>
<path d="M582.273 445.664L585.473 432.624C587.447 432.731 589.407 432.811 591.353 432.864C593.3 432.918 595.26 432.944 597.233 432.944L607.633 432.944C608.167 432.944 608.833 432.944 609.633 432.944C610.433 432.944 611.26 432.931 612.113 432.904C612.967 432.878 613.793 432.838 614.593 432.784C615.393 432.731 616.06 432.678 616.593 432.624L617.153 433.904C614.273 437.318 611.207 441.224 607.953 445.624C604.7 450.024 601.647 454.544 598.793 459.184C595.94 463.824 593.447 468.384 591.313 472.864C589.18 477.344 587.793 481.371 587.153 484.944L580.353 484.944C581.153 482.171 582.273 479.331 583.713 476.424C585.153 473.518 586.767 470.638 588.553 467.784C590.34 464.931 592.233 462.144 594.233 459.424C596.233 456.704 598.207 454.131 600.153 451.704C602.1 449.278 603.927 447.011 605.633 444.904C607.34 442.798 608.807 440.944 610.033 439.344L610.033 438.864L589.953 438.864C588.993 438.864 588.18 439.091 587.513 439.544C586.847 439.998 586.26 440.571 585.753 441.264C585.247 441.958 584.807 442.704 584.433 443.504C584.06 444.304 583.66 445.051 583.233 445.744L582.273 445.664Z" fill="#ffffff" fill-rule="evenodd" opacity="1" stroke="none"/>
</g>
<g opacity="1">
<g opacity="1">
<path d="M780.746 458.784C780.746 425.646 807.609 398.784 840.746 398.784C873.883 398.784 900.745 425.646 900.745 458.784C900.745 491.921 873.883 518.784 840.746 518.784C807.609 518.784 780.746 491.921 780.746 458.784Z" fill="#3d3e5d" fill-rule="evenodd" opacity="1" stroke="none"/>
<path d="M783.746 458.784C783.746 427.303 809.266 401.784 840.746 401.784C872.226 401.784 897.745 427.303 897.745 458.784C897.745 490.264 872.226 515.784 840.746 515.784C809.266 515.784 783.746 490.264 783.746 458.784Z" fill="#7b80bf" fill-rule="evenodd" opacity="1" stroke="none"/>
</g>
<path d="M824.266 445.664L827.466 432.624C829.439 432.731 831.399 432.811 833.346 432.864C835.292 432.918 837.252 432.944 839.226 432.944L849.626 432.944C850.159 432.944 850.826 432.944 851.626 432.944C852.426 432.944 853.252 432.931 854.106 432.904C854.959 432.878 855.786 432.838 856.586 432.784C857.386 432.731 858.052 432.678 858.586 432.624L859.146 433.904C856.266 437.318 853.199 441.224 849.946 445.624C846.692 450.024 843.639 454.544 840.786 459.184C837.932 463.824 835.439 468.384 833.306 472.864C831.172 477.344 829.786 481.371 829.146 484.944L822.346 484.944C823.146 482.171 824.266 479.331 825.706 476.424C827.146 473.518 828.759 470.638 830.546 467.784C832.332 464.931 834.226 462.144 836.226 459.424C838.226 456.704 840.199 454.131 842.146 451.704C844.092 449.278 845.919 447.011 847.626 444.904C849.332 442.798 850.799 440.944 852.026 439.344L852.026 438.864L831.946 438.864C830.986 438.864 830.172 439.091 829.506 439.544C828.839 439.998 828.252 440.571 827.746 441.264C827.239 441.958 826.799 442.704 826.426 443.504C826.052 444.304 825.652 445.051 825.226 445.744L824.266 445.664Z" fill="#ffffff" fill-rule="evenodd" opacity="1" stroke="none"/>
</g>
<g opacity="1">
<g opacity="1">
<path d="M901.742 458.784C901.742 425.646 928.605 398.784 961.742 398.784C994.879 398.784 1021.74 425.646 1021.74 458.784C1021.74 491.921 994.879 518.784 961.742 518.784C928.605 518.784 901.742 491.921 901.742 458.784Z" fill="#3d3e5d" fill-rule="evenodd" opacity="1" stroke="none"/>
<path d="M904.742 458.784C904.742 427.303 930.262 401.784 961.742 401.784C993.222 401.784 1018.74 427.303 1018.74 458.784C1018.74 490.264 993.222 515.784 961.742 515.784C930.262 515.784 904.742 490.264 904.742 458.784Z" fill="#7b80bf" fill-rule="evenodd" opacity="1" stroke="none"/>
</g>
<path d="M945.262 445.664L948.462 432.624C950.435 432.731 952.395 432.811 954.342 432.864C956.288 432.918 958.248 432.944 960.222 432.944L970.622 432.944C971.155 432.944 971.822 432.944 972.622 432.944C973.422 432.944 974.248 432.931 975.102 432.904C975.955 432.878 976.782 432.838 977.582 432.784C978.382 432.731 979.048 432.678 979.582 432.624L980.142 433.904C977.262 437.318 974.195 441.224 970.942 445.624C967.688 450.024 964.635 454.544 961.782 459.184C958.928 463.824 956.435 468.384 954.302 472.864C952.168 477.344 950.782 481.371 950.142 484.944L943.342 484.944C944.142 482.171 945.262 479.331 946.702 476.424C948.142 473.518 949.755 470.638 951.542 467.784C953.328 464.931 955.222 462.144 957.222 459.424C959.222 456.704 961.195 454.131 963.142 451.704C965.088 449.278 966.915 447.011 968.622 444.904C970.328 442.798 971.795 440.944 973.022 439.344L973.022 438.864L952.942 438.864C951.982 438.864 951.168 439.091 950.502 439.544C949.835 439.998 949.248 440.571 948.742 441.264C948.235 441.958 947.795 442.704 947.422 443.504C947.048 444.304 946.648 445.051 946.222 445.744L945.262 445.664Z" fill="#ffffff" fill-rule="evenodd" opacity="1" stroke="none"/>
</g>
</g>
</g>
</g>
</svg>
