<?xml version="1.0" encoding="UTF-8" standalone="no"?>
<!DOCTYPE svg PUBLIC "-//W3C//DTD SVG 1.1//EN" "http://www.w3.org/Graphics/SVG/1.1/DTD/svg11.dtd"
[
<!ATTLIST g
  xmlns:vectornator CDATA #FIXED "http://vectornator.io"
  vectornator:layerName CDATA #IMPLIED >
<!ATTLIST g
  xmlns:vectornator CDATA #FIXED "http://vectornator.io"
  vectornator:mask CDATA #IMPLIED >
<!ATTLIST text
  xmlns:vectornator CDATA #FIXED "http://vectornator.io"
  vectornator:width CDATA #IMPLIED >

<!ATTLIST path
  xmlns:vectornator CDATA #FIXED "http://vectornator.io"
  vectornator:blendMode CDATA #IMPLIED >
<!ATTLIST path
  xmlns:vectornator CDATA #FIXED "http://vectornator.io"
  vectornator:shadowColor CDATA #IMPLIED >
<!ATTLIST path
  xmlns:vectornator CDATA #FIXED "http://vectornator.io"
  vectornator:shadowOpacity CDATA #IMPLIED >
<!ATTLIST path
  xmlns:vectornator CDATA #FIXED "http://vectornator.io"
  vectornator:shadowRadius CDATA #IMPLIED >
<!ATTLIST path
  xmlns:vectornator CDATA #FIXED "http://vectornator.io"
  vectornator:shadowOffset CDATA #IMPLIED >
<!ATTLIST path
  xmlns:vectornator CDATA #FIXED "http://vectornator.io"
  vectornator:shadowAngle CDATA #IMPLIED >

<!ATTLIST image
  xmlns:vectornator CDATA #FIXED "http://vectornator.io"
  vectornator:blendMode CDATA #IMPLIED >
<!ATTLIST image
  xmlns:vectornator CDATA #FIXED "http://vectornator.io"
  vectornator:shadowColor CDATA #IMPLIED >
<!ATTLIST image
  xmlns:vectornator CDATA #FIXED "http://vectornator.io"
  vectornator:shadowOpacity CDATA #IMPLIED >
<!ATTLIST image
  xmlns:vectornator CDATA #FIXED "http://vectornator.io"
  vectornator:shadowRadius CDATA #IMPLIED >
<!ATTLIST image
  xmlns:vectornator CDATA #FIXED "http://vectornator.io"
  vectornator:shadowOffset CDATA #IMPLIED >
<!ATTLIST image
  xmlns:vectornator CDATA #FIXED "http://vectornator.io"
  vectornator:shadowAngle CDATA #IMPLIED >

<!ATTLIST g
  xmlns:vectornator CDATA #FIXED "http://vectornator.io"
  vectornator:blendMode CDATA #IMPLIED >
<!ATTLIST g
  xmlns:vectornator CDATA #FIXED "http://vectornator.io"
  vectornator:shadowColor CDATA #IMPLIED >
<!ATTLIST g
  xmlns:vectornator CDATA #FIXED "http://vectornator.io"
  vectornator:shadowOpacity CDATA #IMPLIED >
<!ATTLIST g
  xmlns:vectornator CDATA #FIXED "http://vectornator.io"
  vectornator:shadowRadius CDATA #IMPLIED >
<!ATTLIST g
  xmlns:vectornator CDATA #FIXED "http://vectornator.io"
  vectornator:shadowOffset CDATA #IMPLIED >
<!ATTLIST g
  xmlns:vectornator CDATA #FIXED "http://vectornator.io"
  vectornator:shadowAngle CDATA #IMPLIED >

<!ENTITY % SVG.filter.extra.content  "| feDropShadow" >
<!ELEMENT feDropShadow EMPTY>
<!ATTLIST feDropShadow
  xmlns:svg CDATA #FIXED "http://www.w3.org/Graphics/SVG/1.1/DTD/svg11.dtd"
  dx CDATA #IMPLIED>
<!ATTLIST feDropShadow
  xmlns:svg CDATA #FIXED "http://www.w3.org/Graphics/SVG/1.1/DTD/svg11.dtd"
  dy CDATA #IMPLIED>
<!ATTLIST feDropShadow
  xmlns:svg CDATA #FIXED "http://www.w3.org/Graphics/SVG/1.1/DTD/svg11.dtd"
  stdDeviation CDATA #IMPLIED>
<!ATTLIST feDropShadow
  xmlns:svg CDATA #FIXED "http://www.w3.org/Graphics/SVG/1.1/DTD/svg11.dtd"
  flood-opacity CDATA #IMPLIED>
<!ATTLIST feDropShadow
  xmlns:svg CDATA #FIXED "http://www.w3.org/Graphics/SVG/1.1/DTD/svg11.dtd"
  in CDATA #IMPLIED>
<!ATTLIST feDropShadow
  xmlns:svg CDATA #FIXED "http://www.w3.org/Graphics/SVG/1.1/DTD/svg11.dtd"
  result CDATA #IMPLIED>
<!ATTLIST feDropShadow
  xmlns:svg CDATA #FIXED "http://www.w3.org/Graphics/SVG/1.1/DTD/svg11.dtd"
  flood-color CDATA #IMPLIED>
]
>
<!-- Created with Vectornator (http://vectornator.io/) -->
<svg height="100%" stroke-miterlimit="10" style="fill-rule:nonzero;clip-rule:evenodd;stroke-linecap:round;stroke-linejoin:round;" version="1.1" viewBox="0 0 1024 768" width="100%" xml:space="preserve" xmlns="http://www.w3.org/2000/svg" xmlns:vectornator="http://vectornator.io" xmlns:xlink="http://www.w3.org/1999/xlink">
<defs>
<clipPath id="TextBounds">
<rect height="88" width="48.0806" x="411.199" y="248.576"/>
</clipPath>
<clipPath id="TextBounds_2">
<rect height="88" width="48.0806" x="104.158" y="248.576"/>
</clipPath>
<clipPath id="TextBounds_3">
<rect height="88" width="48.0806" x="718.241" y="248.576"/>
</clipPath>
<clipPath id="TextBounds_4">
<rect height="88" width="48.0806" x="564.72" y="248.576"/>
</clipPath>
<clipPath id="TextBounds_5">
<rect height="88" width="48.0806" x="257.678" y="248.576"/>
</clipPath>
<clipPath id="TextBounds_6">
<rect height="88" width="48.0806" x="871.762" y="248.576"/>
</clipPath>
<clipPath id="TextBounds_7">
<rect height="88" width="48.0806" x="411.199" y="431.424"/>
</clipPath>
<clipPath id="TextBounds_8">
<rect height="88" width="48.0806" x="104.158" y="431.424"/>
</clipPath>
<clipPath id="TextBounds_9">
<rect height="88" width="48.0806" x="718.241" y="431.424"/>
</clipPath>
<clipPath id="TextBounds_10">
<rect height="88" width="48.0806" x="564.72" y="431.424"/>
</clipPath>
<clipPath id="TextBounds_11">
<rect height="88" width="48.0806" x="257.678" y="431.424"/>
</clipPath>
<clipPath id="TextBounds_12">
<rect height="88" width="48.0806" x="871.762" y="431.424"/>
</clipPath>
</defs>
<g id="Слой-1" vectornator:layerName="Слой 1">
<path d="M5.58055 504.052L5.58055 263.948C5.58055 220.146 41.2579 184.637 85.2682 184.637L938.732 184.637C982.742 184.637 1018.42 220.146 1018.42 263.948L1018.42 504.052C1018.42 547.854 982.742 583.363 938.732 583.363L85.2682 583.363C41.2579 583.363 5.58055 547.854 5.58055 504.052Z" fill="#b0412d" fill-rule="evenodd" opacity="1" stroke="none"/>
<path d="M935.958 575.137L88.0415 575.137C47.603 575.137 14.8211 541.949 14.8211 501.009L14.8211 266.991C14.8211 226.051 47.603 192.863 88.0416 192.863L935.958 192.863C976.397 192.863 1009.18 226.051 1009.18 266.991L1009.18 501.009C1009.18 541.949 976.397 575.137 935.958 575.137Z" fill="#941100" fill-rule="evenodd" opacity="1" stroke="none"/>
</g>
<g id="Слой-3" vectornator:layerName="Слой 3">
<g opacity="1">
<g opacity="1">
<g opacity="1">
<g opacity="1">
<path d="M370.24 292.576C370.24 256.677 399.341 227.576 435.24 227.576C471.138 227.576 500.24 256.677 500.24 292.576C500.24 328.474 471.138 357.576 435.24 357.576C399.341 357.576 370.24 328.474 370.24 292.576Z" fill="#441b15" fill-rule="evenodd" opacity="1" stroke="none"/>
<path d="M373.49 292.576C373.49 258.472 401.136 230.826 435.24 230.826C469.343 230.826 496.99 258.472 496.99 292.576C496.99 326.679 469.343 354.326 435.24 354.326C401.136 354.326 373.49 326.679 373.49 292.576Z" fill="#a34834" fill-rule="evenodd" opacity="1" stroke="none"/>
</g>
<path clip-path="url(#TextBounds)" d="M447.233 314.804L452.836 314.804C453.129 315.438 453.275 316.122 453.275 316.854C453.275 317.514 453.141 317.965 452.873 318.209C452.604 318.454 452.091 318.576 451.335 318.576L432.035 318.576C431.742 317.794 431.596 317.062 431.596 316.378C431.596 315.841 431.724 315.445 431.98 315.188C432.237 314.932 432.682 314.804 433.317 314.804L438.957 314.804C439.128 311.605 439.213 308.834 439.213 306.491L416.068 306.491C415.58 305.612 415.336 304.647 415.336 303.598C415.336 302.694 415.605 301.73 416.142 300.705C416.679 299.679 420.463 294.07 427.494 283.877C434.525 273.684 438.2 268.466 438.517 268.222C438.835 267.978 439.42 267.855 440.275 267.855L443.608 267.855C444.828 267.855 445.695 268.045 446.208 268.423C446.72 268.802 446.977 269.711 446.977 271.151L446.977 301.767L451.92 301.767C452.213 302.743 452.36 303.659 452.36 304.513C452.36 305.221 452.232 305.728 451.975 306.033C451.719 306.338 451.176 306.491 450.346 306.491L446.977 306.491C447.074 310.519 447.16 313.29 447.233 314.804ZM439.213 301.767C439.213 284.75 439.134 276.242 438.975 276.242C438.816 276.242 433.708 284.75 423.649 301.767L439.213 301.767Z" fill="#ffffff" fill-rule="evenodd" opacity="1" stroke="none"/>
</g>
<g opacity="1">
<g opacity="1">
<path d="M63.1979 292.576C63.1979 256.677 92.2994 227.576 128.198 227.576C164.096 227.576 193.198 256.677 193.198 292.576C193.198 328.474 164.096 357.576 128.198 357.576C92.2994 357.576 63.1979 328.474 63.1979 292.576Z" fill="#441b15" fill-rule="evenodd" opacity="1" stroke="none"/>
<path d="M66.4479 292.576C66.4479 258.472 94.0943 230.826 128.198 230.826C162.301 230.826 189.948 258.472 189.948 292.576C189.948 326.679 162.301 354.326 128.198 354.326C94.0943 354.326 66.4479 326.679 66.4479 292.576Z" fill="#a34834" fill-rule="evenodd" opacity="1" stroke="none"/>
</g>
<path clip-path="url(#TextBounds_2)" d="M140.191 314.804L145.794 314.804C146.087 315.438 146.234 316.122 146.234 316.854C146.234 317.514 146.099 317.965 145.831 318.209C145.562 318.454 145.05 318.576 144.293 318.576L124.994 318.576C124.701 317.794 124.554 317.062 124.554 316.378C124.554 315.841 124.682 315.445 124.939 315.188C125.195 314.932 125.641 314.804 126.275 314.804L131.915 314.804C132.086 311.605 132.171 308.834 132.171 306.491L109.027 306.491C108.538 305.612 108.294 304.647 108.294 303.598C108.294 302.694 108.563 301.73 109.1 300.705C109.637 299.679 113.421 294.07 120.453 283.877C127.484 273.684 131.158 268.466 131.475 268.222C131.793 267.978 132.379 267.855 133.233 267.855L136.566 267.855C137.787 267.855 138.653 268.045 139.166 268.423C139.679 268.802 139.935 269.711 139.935 271.151L139.935 301.767L144.879 301.767C145.172 302.743 145.318 303.659 145.318 304.513C145.318 305.221 145.19 305.728 144.934 306.033C144.677 306.338 144.134 306.491 143.304 306.491L139.935 306.491C140.033 310.519 140.118 313.29 140.191 314.804ZM132.171 301.767C132.171 284.75 132.092 276.242 131.933 276.242C131.775 276.242 126.666 284.75 116.607 301.767L132.171 301.767Z" fill="#ffffff" fill-rule="evenodd" opacity="1" stroke="none"/>
</g>
<g opacity="1">
<g opacity="1">
<path d="M677.281 292.576C677.281 256.677 706.383 227.576 742.281 227.576C778.18 227.576 807.281 256.677 807.281 292.576C807.281 328.474 778.18 357.576 742.281 357.576C706.383 357.576 677.281 328.474 677.281 292.576Z" fill="#441b15" fill-rule="evenodd" opacity="1" stroke="none"/>
<path d="M680.531 292.576C680.531 258.472 708.178 230.826 742.281 230.826C776.385 230.826 804.031 258.472 804.031 292.576C804.031 326.679 776.385 354.326 742.281 354.326C708.178 354.326 680.531 326.679 680.531 292.576Z" fill="#a34834" fill-rule="evenodd" opacity="1" stroke="none"/>
</g>
<path clip-path="url(#TextBounds_3)" d="M754.275 314.804L759.878 314.804C760.171 315.438 760.317 316.122 760.317 316.854C760.317 317.514 760.183 317.965 759.914 318.209C759.646 318.454 759.133 318.576 758.376 318.576L739.077 318.576C738.784 317.794 738.637 317.062 738.637 316.378C738.637 315.841 738.766 315.445 739.022 315.188C739.278 314.932 739.724 314.804 740.359 314.804L745.998 314.804C746.169 311.605 746.255 308.834 746.255 306.491L723.11 306.491C722.622 305.612 722.378 304.647 722.378 303.598C722.378 302.694 722.646 301.73 723.183 300.705C723.72 299.679 727.505 294.07 734.536 283.877C741.567 273.684 745.241 268.466 745.559 268.222C745.876 267.978 746.462 267.855 747.317 267.855L750.649 267.855C751.87 267.855 752.737 268.045 753.249 268.423C753.762 268.802 754.018 269.711 754.018 271.151L754.018 301.767L758.962 301.767C759.255 302.743 759.402 303.659 759.402 304.513C759.402 305.221 759.273 305.728 759.017 306.033C758.761 306.338 758.218 306.491 757.387 306.491L754.018 306.491C754.116 310.519 754.201 313.29 754.275 314.804ZM746.255 301.767C746.255 284.75 746.175 276.242 746.017 276.242C745.858 276.242 740.749 284.75 730.691 301.767L746.255 301.767Z" fill="#ffffff" fill-rule="evenodd" opacity="1" stroke="none"/>
</g>
<g opacity="1">
<g opacity="1">
<path d="M523.76 292.576C523.76 256.677 552.862 227.576 588.76 227.576C624.659 227.576 653.76 256.677 653.76 292.576C653.76 328.474 624.659 357.576 588.76 357.576C552.862 357.576 523.76 328.474 523.76 292.576Z" fill="#441b15" fill-rule="evenodd" opacity="1" stroke="none"/>
<path d="M527.01 292.576C527.01 258.472 554.657 230.826 588.76 230.826C622.864 230.826 650.51 258.472 650.51 292.576C650.51 326.679 622.864 354.326 588.76 354.326C554.657 354.326 527.01 326.679 527.01 292.576Z" fill="#a34834" fill-rule="evenodd" opacity="1" stroke="none"/>
</g>
<path clip-path="url(#TextBounds_4)" d="M600.754 314.804L606.357 314.804C606.65 315.438 606.796 316.122 606.796 316.854C606.796 317.514 606.662 317.965 606.393 318.209C606.125 318.454 605.612 318.576 604.855 318.576L585.556 318.576C585.263 317.794 585.117 317.062 585.117 316.378C585.117 315.841 585.245 315.445 585.501 315.188C585.757 314.932 586.203 314.804 586.838 314.804L592.477 314.804C592.648 311.605 592.734 308.834 592.734 306.491L569.589 306.491C569.101 305.612 568.857 304.647 568.857 303.598C568.857 302.694 569.125 301.73 569.663 300.705C570.2 299.679 573.984 294.07 581.015 283.877C588.046 273.684 591.721 268.466 592.038 268.222C592.355 267.978 592.941 267.855 593.796 267.855L597.128 267.855C598.349 267.855 599.216 268.045 599.728 268.423C600.241 268.802 600.497 269.711 600.497 271.151L600.497 301.767L605.441 301.767C605.734 302.743 605.881 303.659 605.881 304.513C605.881 305.221 605.753 305.728 605.496 306.033C605.24 306.338 604.697 306.491 603.867 306.491L600.497 306.491C600.595 310.519 600.681 313.29 600.754 314.804ZM592.734 301.767C592.734 284.75 592.654 276.242 592.496 276.242C592.337 276.242 587.228 284.75 577.17 301.767L592.734 301.767Z" fill="#ffffff" fill-rule="evenodd" opacity="1" stroke="none"/>
</g>
<g opacity="1">
<g opacity="1">
<path d="M216.719 292.576C216.719 256.677 245.82 227.576 281.719 227.576C317.617 227.576 346.719 256.677 346.719 292.576C346.719 328.474 317.617 357.576 281.719 357.576C245.82 357.576 216.719 328.474 216.719 292.576Z" fill="#441b15" fill-rule="evenodd" opacity="1" stroke="none"/>
<path d="M219.969 292.576C219.969 258.472 247.615 230.826 281.719 230.826C315.822 230.826 343.469 258.472 343.469 292.576C343.469 326.679 315.822 354.326 281.719 354.326C247.615 354.326 219.969 326.679 219.969 292.576Z" fill="#a34834" fill-rule="evenodd" opacity="1" stroke="none"/>
</g>
<path clip-path="url(#TextBounds_5)" d="M293.712 314.804L299.315 314.804C299.608 315.438 299.755 316.122 299.755 316.854C299.755 317.514 299.62 317.965 299.352 318.209C299.083 318.454 298.571 318.576 297.814 318.576L278.514 318.576C278.221 317.794 278.075 317.062 278.075 316.378C278.075 315.841 278.203 315.445 278.459 315.188C278.716 314.932 279.161 314.804 279.796 314.804L285.436 314.804C285.607 311.605 285.692 308.834 285.692 306.491L262.548 306.491C262.059 305.612 261.815 304.647 261.815 303.598C261.815 302.694 262.084 301.73 262.621 300.705C263.158 299.679 266.942 294.07 273.973 283.877C281.005 273.684 284.679 268.466 284.996 268.222C285.314 267.978 285.9 267.855 286.754 267.855L290.087 267.855C291.307 267.855 292.174 268.045 292.687 268.423C293.199 268.802 293.456 269.711 293.456 271.151L293.456 301.767L298.4 301.767C298.693 302.743 298.839 303.659 298.839 304.513C298.839 305.221 298.711 305.728 298.455 306.033C298.198 306.338 297.655 306.491 296.825 306.491L293.456 306.491C293.553 310.519 293.639 313.29 293.712 314.804ZM285.692 301.767C285.692 284.75 285.613 276.242 285.454 276.242C285.295 276.242 280.187 284.75 270.128 301.767L285.692 301.767Z" fill="#ffffff" fill-rule="evenodd" opacity="1" stroke="none"/>
</g>
<g opacity="1">
<g opacity="1">
<path d="M830.802 292.576C830.802 256.677 859.904 227.576 895.802 227.576C931.701 227.576 960.802 256.677 960.802 292.576C960.802 328.474 931.701 357.576 895.802 357.576C859.904 357.576 830.802 328.474 830.802 292.576Z" fill="#441b15" fill-rule="evenodd" opacity="1" stroke="none"/>
<path d="M834.052 292.576C834.052 258.472 861.699 230.826 895.802 230.826C929.906 230.826 957.552 258.472 957.552 292.576C957.552 326.679 929.906 354.326 895.802 354.326C861.699 354.326 834.052 326.679 834.052 292.576Z" fill="#a34834" fill-rule="evenodd" opacity="1" stroke="none"/>
</g>
<path clip-path="url(#TextBounds_6)" d="M907.796 314.804L913.399 314.804C913.692 315.438 913.838 316.122 913.838 316.854C913.838 317.514 913.704 317.965 913.435 318.209C913.167 318.454 912.654 318.576 911.897 318.576L892.598 318.576C892.305 317.794 892.158 317.062 892.158 316.378C892.158 315.841 892.286 315.445 892.543 315.188C892.799 314.932 893.245 314.804 893.88 314.804L899.519 314.804C899.69 311.605 899.776 308.834 899.776 306.491L876.631 306.491C876.143 305.612 875.899 304.647 875.899 303.598C875.899 302.694 876.167 301.73 876.704 300.705C877.241 299.679 881.026 294.07 888.057 283.877C895.088 273.684 898.762 268.466 899.08 268.222C899.397 267.978 899.983 267.855 900.838 267.855L904.17 267.855C905.391 267.855 906.257 268.045 906.77 268.423C907.283 268.802 907.539 269.711 907.539 271.151L907.539 301.767L912.483 301.767C912.776 302.743 912.922 303.659 912.922 304.513C912.922 305.221 912.794 305.728 912.538 306.033C912.282 306.338 911.738 306.491 910.908 306.491L907.539 306.491C907.637 310.519 907.722 313.29 907.796 314.804ZM899.776 301.767C899.776 284.75 899.696 276.242 899.537 276.242C899.379 276.242 894.27 284.75 884.212 301.767L899.776 301.767Z" fill="#ffffff" fill-rule="evenodd" opacity="1" stroke="none"/>
</g>
</g>
<g opacity="1">
<g opacity="1">
<g opacity="1">
<path d="M370.24 475.424C370.24 439.526 399.341 410.424 435.24 410.424C471.138 410.424 500.24 439.526 500.24 475.424C500.24 511.323 471.138 540.424 435.24 540.424C399.341 540.424 370.24 511.323 370.24 475.424Z" fill="#441b15" fill-rule="evenodd" opacity="1" stroke="none"/>
<path d="M373.49 475.424C373.49 441.321 401.136 413.674 435.24 413.674C469.343 413.674 496.99 441.321 496.99 475.424C496.99 509.528 469.343 537.174 435.24 537.174C401.136 537.174 373.49 509.528 373.49 475.424Z" fill="#a34834" fill-rule="evenodd" opacity="1" stroke="none"/>
</g>
<path clip-path="url(#TextBounds_7)" d="M447.233 497.652L452.836 497.652C453.129 498.287 453.275 498.971 453.275 499.703C453.275 500.362 453.141 500.814 452.873 501.058C452.604 501.302 452.091 501.424 451.335 501.424L432.035 501.424C431.742 500.643 431.596 499.911 431.596 499.227C431.596 498.69 431.724 498.293 431.98 498.037C432.237 497.781 432.682 497.652 433.317 497.652L438.957 497.652C439.128 494.454 439.213 491.683 439.213 489.339L416.068 489.339C415.58 488.46 415.336 487.496 415.336 486.446C415.336 485.543 415.605 484.579 416.142 483.553C416.679 482.528 420.463 476.919 427.494 466.726C434.525 456.533 438.2 451.314 438.517 451.07C438.835 450.826 439.42 450.704 440.275 450.704L443.608 450.704C444.828 450.704 445.695 450.893 446.208 451.272C446.72 451.65 446.977 452.56 446.977 454L446.977 484.615L451.92 484.615C452.213 485.592 452.36 486.507 452.36 487.362C452.36 488.07 452.232 488.576 451.975 488.882C451.719 489.187 451.176 489.339 450.346 489.339L446.977 489.339C447.074 493.368 447.16 496.139 447.233 497.652ZM439.213 484.615C439.213 467.599 439.134 459.09 438.975 459.09C438.816 459.09 433.708 467.599 423.649 484.615L439.213 484.615Z" fill="#ffffff" fill-rule="evenodd" opacity="1" stroke="none"/>
</g>
<g opacity="1">
<g opacity="1">
<path d="M63.1979 475.424C63.1979 439.526 92.2994 410.424 128.198 410.424C164.096 410.424 193.198 439.526 193.198 475.424C193.198 511.323 164.096 540.424 128.198 540.424C92.2994 540.424 63.1979 511.323 63.1979 475.424Z" fill="#441b15" fill-rule="evenodd" opacity="1" stroke="none"/>
<path d="M66.4479 475.424C66.4479 441.321 94.0943 413.674 128.198 413.674C162.301 413.674 189.948 441.321 189.948 475.424C189.948 509.528 162.301 537.174 128.198 537.174C94.0943 537.174 66.4479 509.528 66.4479 475.424Z" fill="#a34834" fill-rule="evenodd" opacity="1" stroke="none"/>
</g>
<path clip-path="url(#TextBounds_8)" d="M140.191 497.652L145.794 497.652C146.087 498.287 146.234 498.971 146.234 499.703C146.234 500.362 146.099 500.814 145.831 501.058C145.562 501.302 145.05 501.424 144.293 501.424L124.994 501.424C124.701 500.643 124.554 499.911 124.554 499.227C124.554 498.69 124.682 498.293 124.939 498.037C125.195 497.781 125.641 497.652 126.275 497.652L131.915 497.652C132.086 494.454 132.171 491.683 132.171 489.339L109.027 489.339C108.538 488.46 108.294 487.496 108.294 486.446C108.294 485.543 108.563 484.579 109.1 483.553C109.637 482.528 113.421 476.919 120.453 466.726C127.484 456.533 131.158 451.314 131.475 451.07C131.793 450.826 132.379 450.704 133.233 450.704L136.566 450.704C137.787 450.704 138.653 450.893 139.166 451.272C139.679 451.65 139.935 452.56 139.935 454L139.935 484.615L144.879 484.615C145.172 485.592 145.318 486.507 145.318 487.362C145.318 488.07 145.19 488.576 144.934 488.882C144.677 489.187 144.134 489.339 143.304 489.339L139.935 489.339C140.033 493.368 140.118 496.139 140.191 497.652ZM132.171 484.615C132.171 467.599 132.092 459.09 131.933 459.09C131.775 459.09 126.666 467.599 116.607 484.615L132.171 484.615Z" fill="#ffffff" fill-rule="evenodd" opacity="1" stroke="none"/>
</g>
<g opacity="1">
<g opacity="1">
<path d="M677.281 475.424C677.281 439.526 706.383 410.424 742.281 410.424C778.18 410.424 807.281 439.526 807.281 475.424C807.281 511.323 778.18 540.424 742.281 540.424C706.383 540.424 677.281 511.323 677.281 475.424Z" fill="#441b15" fill-rule="evenodd" opacity="1" stroke="none"/>
<path d="M680.531 475.424C680.531 441.321 708.178 413.674 742.281 413.674C776.385 413.674 804.031 441.321 804.031 475.424C804.031 509.528 776.385 537.174 742.281 537.174C708.178 537.174 680.531 509.528 680.531 475.424Z" fill="#a34834" fill-rule="evenodd" opacity="1" stroke="none"/>
</g>
<path clip-path="url(#TextBounds_9)" d="M754.275 497.652L759.878 497.652C760.171 498.287 760.317 498.971 760.317 499.703C760.317 500.362 760.183 500.814 759.914 501.058C759.646 501.302 759.133 501.424 758.376 501.424L739.077 501.424C738.784 500.643 738.637 499.911 738.637 499.227C738.637 498.69 738.766 498.293 739.022 498.037C739.278 497.781 739.724 497.652 740.359 497.652L745.998 497.652C746.169 494.454 746.255 491.683 746.255 489.339L723.11 489.339C722.622 488.46 722.378 487.496 722.378 486.446C722.378 485.543 722.646 484.579 723.183 483.553C723.72 482.528 727.505 476.919 734.536 466.726C741.567 456.533 745.241 451.314 745.559 451.07C745.876 450.826 746.462 450.704 747.317 450.704L750.649 450.704C751.87 450.704 752.737 450.893 753.249 451.272C753.762 451.65 754.018 452.56 754.018 454L754.018 484.615L758.962 484.615C759.255 485.592 759.402 486.507 759.402 487.362C759.402 488.07 759.273 488.576 759.017 488.882C758.761 489.187 758.218 489.339 757.387 489.339L754.018 489.339C754.116 493.368 754.201 496.139 754.275 497.652ZM746.255 484.615C746.255 467.599 746.175 459.09 746.017 459.09C745.858 459.09 740.749 467.599 730.691 484.615L746.255 484.615Z" fill="#ffffff" fill-rule="evenodd" opacity="1" stroke="none"/>
</g>
<g opacity="1">
<g opacity="1">
<path d="M523.76 475.424C523.76 439.526 552.862 410.424 588.76 410.424C624.659 410.424 653.76 439.526 653.76 475.424C653.76 511.323 624.659 540.424 588.76 540.424C552.862 540.424 523.76 511.323 523.76 475.424Z" fill="#441b15" fill-rule="evenodd" opacity="1" stroke="none"/>
<path d="M527.01 475.424C527.01 441.321 554.657 413.674 588.76 413.674C622.864 413.674 650.51 441.321 650.51 475.424C650.51 509.528 622.864 537.174 588.76 537.174C554.657 537.174 527.01 509.528 527.01 475.424Z" fill="#a34834" fill-rule="evenodd" opacity="1" stroke="none"/>
</g>
<path clip-path="url(#TextBounds_10)" d="M600.754 497.652L606.357 497.652C606.65 498.287 606.796 498.971 606.796 499.703C606.796 500.362 606.662 500.814 606.393 501.058C606.125 501.302 605.612 501.424 604.855 501.424L585.556 501.424C585.263 500.643 585.117 499.911 585.117 499.227C585.117 498.69 585.245 498.293 585.501 498.037C585.757 497.781 586.203 497.652 586.838 497.652L592.477 497.652C592.648 494.454 592.734 491.683 592.734 489.339L569.589 489.339C569.101 488.46 568.857 487.496 568.857 486.446C568.857 485.543 569.125 484.579 569.663 483.553C570.2 482.528 573.984 476.919 581.015 466.726C588.046 456.533 591.721 451.314 592.038 451.07C592.355 450.826 592.941 450.704 593.796 450.704L597.128 450.704C598.349 450.704 599.216 450.893 599.728 451.272C600.241 451.65 600.497 452.56 600.497 454L600.497 484.615L605.441 484.615C605.734 485.592 605.881 486.507 605.881 487.362C605.881 488.07 605.753 488.576 605.496 488.882C605.24 489.187 604.697 489.339 603.867 489.339L600.497 489.339C600.595 493.368 600.681 496.139 600.754 497.652ZM592.734 484.615C592.734 467.599 592.654 459.09 592.496 459.09C592.337 459.09 587.228 467.599 577.17 484.615L592.734 484.615Z" fill="#ffffff" fill-rule="evenodd" opacity="1" stroke="none"/>
</g>
<g opacity="1">
<g opacity="1">
<path d="M216.719 475.424C216.719 439.526 245.82 410.424 281.719 410.424C317.617 410.424 346.719 439.526 346.719 475.424C346.719 511.323 317.617 540.424 281.719 540.424C245.82 540.424 216.719 511.323 216.719 475.424Z" fill="#441b15" fill-rule="evenodd" opacity="1" stroke="none"/>
<path d="M219.969 475.424C219.969 441.321 247.615 413.674 281.719 413.674C315.822 413.674 343.469 441.321 343.469 475.424C343.469 509.528 315.822 537.174 281.719 537.174C247.615 537.174 219.969 509.528 219.969 475.424Z" fill="#a34834" fill-rule="evenodd" opacity="1" stroke="none"/>
</g>
<path clip-path="url(#TextBounds_11)" d="M293.712 497.652L299.315 497.652C299.608 498.287 299.755 498.971 299.755 499.703C299.755 500.362 299.62 500.814 299.352 501.058C299.083 501.302 298.571 501.424 297.814 501.424L278.514 501.424C278.221 500.643 278.075 499.911 278.075 499.227C278.075 498.69 278.203 498.293 278.459 498.037C278.716 497.781 279.161 497.652 279.796 497.652L285.436 497.652C285.607 494.454 285.692 491.683 285.692 489.339L262.548 489.339C262.059 488.46 261.815 487.496 261.815 486.446C261.815 485.543 262.084 484.579 262.621 483.553C263.158 482.528 266.942 476.919 273.973 466.726C281.005 456.533 284.679 451.314 284.996 451.07C285.314 450.826 285.9 450.704 286.754 450.704L290.087 450.704C291.307 450.704 292.174 450.893 292.687 451.272C293.199 451.65 293.456 452.56 293.456 454L293.456 484.615L298.4 484.615C298.693 485.592 298.839 486.507 298.839 487.362C298.839 488.07 298.711 488.576 298.455 488.882C298.198 489.187 297.655 489.339 296.825 489.339L293.456 489.339C293.553 493.368 293.639 496.139 293.712 497.652ZM285.692 484.615C285.692 467.599 285.613 459.09 285.454 459.09C285.295 459.09 280.187 467.599 270.128 484.615L285.692 484.615Z" fill="#ffffff" fill-rule="evenodd" opacity="1" stroke="none"/>
</g>
<g opacity="1">
<g opacity="1">
<path d="M830.802 475.424C830.802 439.526 859.904 410.424 895.802 410.424C931.701 410.424 960.802 439.526 960.802 475.424C960.802 511.323 931.701 540.424 895.802 540.424C859.904 540.424 830.802 511.323 830.802 475.424Z" fill="#441b15" fill-rule="evenodd" opacity="1" stroke="none"/>
<path d="M834.052 475.424C834.052 441.321 861.699 413.674 895.802 413.674C929.906 413.674 957.552 441.321 957.552 475.424C957.552 509.528 929.906 537.174 895.802 537.174C861.699 537.174 834.052 509.528 834.052 475.424Z" fill="#a34834" fill-rule="evenodd" opacity="1" stroke="none"/>
</g>
<path clip-path="url(#TextBounds_12)" d="M907.796 497.652L913.399 497.652C913.692 498.287 913.838 498.971 913.838 499.703C913.838 500.362 913.704 500.814 913.435 501.058C913.167 501.302 912.654 501.424 911.897 501.424L892.598 501.424C892.305 500.643 892.158 499.911 892.158 499.227C892.158 498.69 892.286 498.293 892.543 498.037C892.799 497.781 893.245 497.652 893.88 497.652L899.519 497.652C899.69 494.454 899.776 491.683 899.776 489.339L876.631 489.339C876.143 488.46 875.899 487.496 875.899 486.446C875.899 485.543 876.167 484.579 876.704 483.553C877.241 482.528 881.026 476.919 888.057 466.726C895.088 456.533 898.762 451.314 899.08 451.07C899.397 450.826 899.983 450.704 900.838 450.704L904.17 450.704C905.391 450.704 906.257 450.893 906.77 451.272C907.283 451.65 907.539 452.56 907.539 454L907.539 484.615L912.483 484.615C912.776 485.592 912.922 486.507 912.922 487.362C912.922 488.07 912.794 488.576 912.538 488.882C912.282 489.187 911.738 489.339 910.908 489.339L907.539 489.339C907.637 493.368 907.722 496.139 907.796 497.652ZM899.776 484.615C899.776 467.599 899.696 459.09 899.537 459.09C899.379 459.09 894.27 467.599 884.212 484.615L899.776 484.615Z" fill="#ffffff" fill-rule="evenodd" opacity="1" stroke="none"/>
</g>
</g>
</g>
</g>
</svg>
