<?xml version="1.0" encoding="UTF-8" standalone="no"?>
<!DOCTYPE svg PUBLIC "-//W3C//DTD SVG 1.1//EN" "http://www.w3.org/Graphics/SVG/1.1/DTD/svg11.dtd"
[
<!ATTLIST g
  xmlns:vectornator CDATA #FIXED "http://vectornator.io"
  vectornator:layerName CDATA #IMPLIED >
<!ATTLIST g
  xmlns:vectornator CDATA #FIXED "http://vectornator.io"
  vectornator:mask CDATA #IMPLIED >
<!ATTLIST text
  xmlns:vectornator CDATA #FIXED "http://vectornator.io"
  vectornator:width CDATA #IMPLIED >

<!ATTLIST path
  xmlns:vectornator CDATA #FIXED "http://vectornator.io"
  vectornator:blendMode CDATA #IMPLIED >
<!ATTLIST path
  xmlns:vectornator CDATA #FIXED "http://vectornator.io"
  vectornator:shadowColor CDATA #IMPLIED >
<!ATTLIST path
  xmlns:vectornator CDATA #FIXED "http://vectornator.io"
  vectornator:shadowOpacity CDATA #IMPLIED >
<!ATTLIST path
  xmlns:vectornator CDATA #FIXED "http://vectornator.io"
  vectornator:shadowRadius CDATA #IMPLIED >
<!ATTLIST path
  xmlns:vectornator CDATA #FIXED "http://vectornator.io"
  vectornator:shadowOffset CDATA #IMPLIED >
<!ATTLIST path
  xmlns:vectornator CDATA #FIXED "http://vectornator.io"
  vectornator:shadowAngle CDATA #IMPLIED >

<!ATTLIST image
  xmlns:vectornator CDATA #FIXED "http://vectornator.io"
  vectornator:blendMode CDATA #IMPLIED >
<!ATTLIST image
  xmlns:vectornator CDATA #FIXED "http://vectornator.io"
  vectornator:shadowColor CDATA #IMPLIED >
<!ATTLIST image
  xmlns:vectornator CDATA #FIXED "http://vectornator.io"
  vectornator:shadowOpacity CDATA #IMPLIED >
<!ATTLIST image
  xmlns:vectornator CDATA #FIXED "http://vectornator.io"
  vectornator:shadowRadius CDATA #IMPLIED >
<!ATTLIST image
  xmlns:vectornator CDATA #FIXED "http://vectornator.io"
  vectornator:shadowOffset CDATA #IMPLIED >
<!ATTLIST image
  xmlns:vectornator CDATA #FIXED "http://vectornator.io"
  vectornator:shadowAngle CDATA #IMPLIED >

<!ATTLIST g
  xmlns:vectornator CDATA #FIXED "http://vectornator.io"
  vectornator:blendMode CDATA #IMPLIED >
<!ATTLIST g
  xmlns:vectornator CDATA #FIXED "http://vectornator.io"
  vectornator:shadowColor CDATA #IMPLIED >
<!ATTLIST g
  xmlns:vectornator CDATA #FIXED "http://vectornator.io"
  vectornator:shadowOpacity CDATA #IMPLIED >
<!ATTLIST g
  xmlns:vectornator CDATA #FIXED "http://vectornator.io"
  vectornator:shadowRadius CDATA #IMPLIED >
<!ATTLIST g
  xmlns:vectornator CDATA #FIXED "http://vectornator.io"
  vectornator:shadowOffset CDATA #IMPLIED >
<!ATTLIST g
  xmlns:vectornator CDATA #FIXED "http://vectornator.io"
  vectornator:shadowAngle CDATA #IMPLIED >

<!ENTITY % SVG.filter.extra.content  "| feDropShadow" >
<!ELEMENT feDropShadow EMPTY>
<!ATTLIST feDropShadow
  xmlns:svg CDATA #FIXED "http://www.w3.org/Graphics/SVG/1.1/DTD/svg11.dtd"
  dx CDATA #IMPLIED>
<!ATTLIST feDropShadow
  xmlns:svg CDATA #FIXED "http://www.w3.org/Graphics/SVG/1.1/DTD/svg11.dtd"
  dy CDATA #IMPLIED>
<!ATTLIST feDropShadow
  xmlns:svg CDATA #FIXED "http://www.w3.org/Graphics/SVG/1.1/DTD/svg11.dtd"
  stdDeviation CDATA #IMPLIED>
<!ATTLIST feDropShadow
  xmlns:svg CDATA #FIXED "http://www.w3.org/Graphics/SVG/1.1/DTD/svg11.dtd"
  flood-opacity CDATA #IMPLIED>
<!ATTLIST feDropShadow
  xmlns:svg CDATA #FIXED "http://www.w3.org/Graphics/SVG/1.1/DTD/svg11.dtd"
  in CDATA #IMPLIED>
<!ATTLIST feDropShadow
  xmlns:svg CDATA #FIXED "http://www.w3.org/Graphics/SVG/1.1/DTD/svg11.dtd"
  result CDATA #IMPLIED>
<!ATTLIST feDropShadow
  xmlns:svg CDATA #FIXED "http://www.w3.org/Graphics/SVG/1.1/DTD/svg11.dtd"
  flood-color CDATA #IMPLIED>
]
>
<!-- Created with Vectornator (http://vectornator.io/) -->
<svg height="100%" stroke-miterlimit="10" style="fill-rule:nonzero;clip-rule:evenodd;stroke-linecap:round;stroke-linejoin:round;" version="1.1" viewBox="0 0 1197.51 768" width="100%" xml:space="preserve" xmlns="http://www.w3.org/2000/svg" xmlns:vectornator="http://vectornator.io" xmlns:xlink="http://www.w3.org/1999/xlink">
<defs>
<clipPath id="TextBounds">
<rect height="1" width="184.51" x="305.324" y="449.7"/>
</clipPath>
<clipPath id="TextBounds_2">
<rect height="1" width="0" x="763.615" y="369.696"/>
</clipPath>
</defs>
<g id="Слой-1" vectornator:layerName="Слой-1">
<path d="M6.39931 504.052L6.39931 263.948C6.39931 220.146 48.1294 184.637 99.6062 184.637L1097.87 184.637C1149.34 184.637 1191.07 220.146 1191.07 263.948L1191.07 504.052C1191.07 547.854 1149.34 583.363 1097.87 583.363L99.6062 583.363C48.1294 583.363 6.39931 547.854 6.39931 504.052Z" fill="#774730" fill-rule="evenodd" opacity="1" stroke="none"/>
<path d="M1094.62 575.137L102.849 575.137C55.5504 575.137 17.2069 541.949 17.2069 501.009L17.2069 266.991C17.2069 226.051 55.5504 192.863 102.85 192.863L1094.62 192.863C1141.91 192.863 1180.26 226.051 1180.26 266.991L1180.26 501.009C1180.26 541.949 1141.91 575.137 1094.62 575.137Z" fill="#422410" fill-rule="evenodd" opacity="1" stroke="none"/>
</g>
<g id="Слой-3" vectornator:layerName="Слой-3">
<g opacity="1">
<g opacity="1">
<path d="M98.2713 226.5L98.2713 226.5C131.408 226.5 158.271 252.516 158.271 284.608L158.271 483.392C158.271 515.484 131.408 541.5 98.2713 541.5L98.2713 541.5C65.1338 541.5 38.2709 515.484 38.2709 483.392L38.2709 284.608C38.2709 252.516 65.1338 226.5 98.2713 226.5Z" fill="#543500" fill-rule="evenodd" opacity="1" stroke="none"/>
<path d="M98.2713 231.994L98.2713 231.994C129.065 231.994 154.029 257.211 154.029 288.318L154.029 480.998C154.029 512.105 129.065 537.322 98.2713 537.322L98.2713 537.322C67.4764 537.322 42.5125 512.105 42.5125 480.998L42.5125 288.318C42.5125 257.211 67.4764 231.994 98.2713 231.994Z" fill="#764730" fill-rule="evenodd" opacity="1" stroke="none"/>
<path d="M117.584 382.05C117.584 388.75 115.959 394.775 112.709 400.125C108.959 406.425 103.959 409.575 97.7086 409.575C91.7586 409.575 87.0586 407.2 83.6086 402.45C80.5086 398.2 78.9586 393 78.9586 386.85C78.9586 381.6 80.3086 376.275 83.0086 370.875C86.0586 364.875 89.8336 361.075 94.3336 359.475C96.1836 358.775 98.4086 358.425 101.009 358.425C101.809 358.425 103.484 358.95 106.034 360C109.934 361.55 112.909 364.625 114.959 369.225C116.709 373.075 117.584 377.35 117.584 382.05ZM113.909 381.75C113.909 376.3 112.934 371.775 110.984 368.175C108.484 363.675 104.734 361.425 99.7336 361.425C97.9836 361.425 96.1836 362.025 94.3336 363.225C90.5836 365.625 87.6836 369.1 85.6336 373.65C83.7836 377.85 82.8586 382.325 82.8586 387.075C82.8586 389.675 83.0336 391.75 83.3836 393.3C84.1336 396.8 85.9211 399.7 88.7461 402C91.5711 404.3 94.7836 405.45 98.3836 405.45C103.684 405.45 107.734 402.675 110.534 397.125C112.784 392.725 113.909 387.6 113.909 381.75Z" fill="#ffffff" fill-rule="evenodd" opacity="1" stroke="none"/>
</g>
<g opacity="1">
<path d="M1099.24 226.5L1099.24 226.5C1132.37 226.5 1159.24 252.516 1159.24 284.608L1159.24 483.392C1159.24 515.484 1132.37 541.5 1099.24 541.5L1099.24 541.5C1066.1 541.5 1039.24 515.484 1039.24 483.392L1039.24 284.608C1039.24 252.516 1066.1 226.5 1099.24 226.5Z" fill="#543500" fill-rule="evenodd" opacity="1" stroke="none"/>
<path d="M1099.24 231.994L1099.24 231.994C1130.03 231.994 1154.99 257.211 1154.99 288.318L1154.99 480.998C1154.99 512.105 1130.03 537.322 1099.24 537.322L1099.24 537.322C1068.44 537.322 1043.48 512.105 1043.48 480.998L1043.48 288.318C1043.48 257.211 1068.44 231.994 1099.24 231.994Z" fill="#764730" fill-rule="evenodd" opacity="1" stroke="none"/>
<path d="M1118.55 382.05C1118.55 388.75 1116.92 394.775 1113.67 400.125C1109.92 406.425 1104.92 409.575 1098.67 409.575C1092.72 409.575 1088.02 407.2 1084.57 402.45C1081.47 398.2 1079.92 393 1079.92 386.85C1079.92 381.6 1081.27 376.275 1083.97 370.875C1087.02 364.875 1090.8 361.075 1095.3 359.475C1097.15 358.775 1099.37 358.425 1101.97 358.425C1102.77 358.425 1104.45 358.95 1107 360C1110.9 361.55 1113.87 364.625 1115.92 369.225C1117.67 373.075 1118.55 377.35 1118.55 382.05ZM1114.87 381.75C1114.87 376.3 1113.9 371.775 1111.95 368.175C1109.45 363.675 1105.7 361.425 1100.7 361.425C1098.95 361.425 1097.15 362.025 1095.3 363.225C1091.55 365.625 1088.65 369.1 1086.6 373.65C1084.75 377.85 1083.82 382.325 1083.82 387.075C1083.82 389.675 1084 391.75 1084.35 393.3C1085.1 396.8 1086.89 399.7 1089.71 402C1092.54 404.3 1095.75 405.45 1099.35 405.45C1104.65 405.45 1108.7 402.675 1111.5 397.125C1113.75 392.725 1114.87 387.6 1114.87 381.75Z" fill="#ffffff" fill-rule="evenodd" opacity="1" stroke="none"/>
</g>
</g>
<g opacity="1">
<g opacity="1">
<g opacity="1">
<g opacity="1">
<path d="M417.2 305.72C417.2 272.582 444.063 245.72 477.2 245.72C510.337 245.72 537.2 272.582 537.2 305.72C537.2 338.857 510.337 365.72 477.2 365.72C444.063 365.72 417.2 338.857 417.2 305.72Z" fill="#543500" fill-rule="evenodd" opacity="1" stroke="none"/>
<path d="M420.2 305.72C420.2 274.239 445.72 248.72 477.2 248.72C508.68 248.72 534.2 274.239 534.2 305.72C534.2 337.2 508.68 362.72 477.2 362.72C445.72 362.72 420.2 337.2 420.2 305.72Z" fill="#764730" fill-rule="evenodd" opacity="1" stroke="none"/>
</g>
<path d="M494.638 282.695C494.638 282.845 494.138 283.495 493.138 284.645C491.988 285.945 491.388 286.62 491.338 286.67C484.538 295.92 479.813 303.895 477.163 310.595C476.013 313.395 474.888 316.17 473.788 318.92C472.488 322.42 471.838 325.32 471.838 327.62C471.838 328.22 472.238 329.87 473.038 332.57C472.888 332.97 472.638 333.17 472.288 333.17C471.138 333.17 470.213 332.57 469.513 331.37C468.863 330.32 468.538 329.17 468.538 327.92C468.538 327.37 468.738 326.145 469.138 324.245C470.588 317.845 473.113 310.995 476.713 303.695C477.263 302.645 480.763 296.22 487.213 284.42C487.413 284.12 487.513 283.845 487.513 283.595C486.663 282.895 485.713 282.545 484.663 282.545C484.513 282.545 484.3 282.57 484.025 282.62C483.75 282.67 483.563 282.695 483.463 282.695C483.263 282.695 483.025 282.657 482.75 282.582C482.475 282.507 482.263 282.47 482.113 282.47C480.563 282.47 477.538 282.945 473.038 283.895C468.138 284.945 465.488 285.77 465.088 286.37C464.688 286.97 464.413 288.22 464.263 290.12C464.063 291.82 463.563 293.045 462.763 293.795C462.613 293.845 462.363 293.87 462.013 293.87C460.513 293.87 459.763 293.245 459.763 291.995C459.763 291.695 459.913 291.07 460.213 290.12C460.613 288.97 460.838 288.27 460.888 288.02C461.088 286.57 461.3 285.082 461.525 283.557C461.75 282.032 462.213 280.645 462.913 279.395C463.363 279.445 463.738 279.67 464.038 280.07C464.338 280.47 464.613 280.87 464.863 281.27L465.313 281.345C466.013 281.395 467.388 281.07 469.438 280.37C471.938 279.57 473.413 279.12 473.863 279.02C476.463 278.52 479.088 278.27 481.738 278.27C483.688 278.27 485.838 278.52 488.188 279.02C489.088 279.22 490.313 279.72 491.863 280.52C493.713 281.42 494.638 282.145 494.638 282.695Z" fill="#ffffff" fill-rule="evenodd" opacity="1" stroke="none"/>
</g>
<g opacity="1">
<g opacity="1">
<path d="M174.095 305.72C174.095 272.582 200.958 245.72 234.095 245.72C267.232 245.72 294.095 272.582 294.095 305.72C294.095 338.857 267.232 365.72 234.095 365.72C200.958 365.72 174.095 338.857 174.095 305.72Z" fill="#543500" fill-rule="evenodd" opacity="1" stroke="none"/>
<path d="M177.095 305.72C177.095 274.239 202.615 248.72 234.095 248.72C265.575 248.72 291.095 274.239 291.095 305.72C291.095 337.2 265.575 362.72 234.095 362.72C202.615 362.72 177.095 337.2 177.095 305.72Z" fill="#764730" fill-rule="evenodd" opacity="1" stroke="none"/>
</g>
<path d="M251.532 282.695C251.532 282.845 251.032 283.495 250.032 284.645C248.882 285.945 248.282 286.62 248.232 286.67C241.432 295.92 236.707 303.895 234.057 310.595C232.907 313.395 231.782 316.17 230.682 318.92C229.382 322.42 228.732 325.32 228.732 327.62C228.732 328.22 229.132 329.87 229.932 332.57C229.782 332.97 229.532 333.17 229.182 333.17C228.032 333.17 227.107 332.57 226.407 331.37C225.757 330.32 225.432 329.17 225.432 327.92C225.432 327.37 225.632 326.145 226.032 324.245C227.482 317.845 230.007 310.995 233.607 303.695C234.157 302.645 237.657 296.22 244.107 284.42C244.307 284.12 244.407 283.845 244.407 283.595C243.557 282.895 242.607 282.545 241.557 282.545C241.407 282.545 241.195 282.57 240.92 282.62C240.645 282.67 240.457 282.695 240.357 282.695C240.157 282.695 239.92 282.657 239.645 282.582C239.37 282.507 239.157 282.47 239.007 282.47C237.457 282.47 234.432 282.945 229.932 283.895C225.032 284.945 222.382 285.77 221.982 286.37C221.582 286.97 221.307 288.22 221.157 290.12C220.957 291.82 220.457 293.045 219.657 293.795C219.507 293.845 219.257 293.87 218.907 293.87C217.407 293.87 216.657 293.245 216.657 291.995C216.657 291.695 216.807 291.07 217.107 290.12C217.507 288.97 217.732 288.27 217.782 288.02C217.982 286.57 218.195 285.082 218.42 283.557C218.645 282.032 219.107 280.645 219.807 279.395C220.257 279.445 220.632 279.67 220.932 280.07C221.232 280.47 221.507 280.87 221.757 281.27L222.207 281.345C222.907 281.395 224.282 281.07 226.332 280.37C228.832 279.57 230.307 279.12 230.757 279.02C233.357 278.52 235.982 278.27 238.632 278.27C240.582 278.27 242.732 278.52 245.082 279.02C245.982 279.22 247.207 279.72 248.757 280.52C250.607 281.42 251.532 282.145 251.532 282.695Z" fill="#ffffff" fill-rule="evenodd" opacity="1" stroke="none"/>
</g>
<g opacity="1">
<g opacity="1">
<path d="M660.306 305.72C660.306 272.582 687.169 245.72 720.306 245.72C753.443 245.72 780.306 272.582 780.306 305.72C780.306 338.857 753.443 365.72 720.306 365.72C687.169 365.72 660.306 338.857 660.306 305.72Z" fill="#543500" fill-rule="evenodd" opacity="1" stroke="none"/>
<path d="M663.306 305.72C663.306 274.239 688.826 248.72 720.306 248.72C751.786 248.72 777.306 274.239 777.306 305.72C777.306 337.2 751.786 362.72 720.306 362.72C688.826 362.72 663.306 337.2 663.306 305.72Z" fill="#764730" fill-rule="evenodd" opacity="1" stroke="none"/>
</g>
<path d="M737.744 282.695C737.744 282.845 737.244 283.495 736.244 284.645C735.094 285.945 734.494 286.62 734.444 286.67C727.644 295.92 722.919 303.895 720.269 310.595C719.119 313.395 717.994 316.17 716.894 318.92C715.594 322.42 714.944 325.32 714.944 327.62C714.944 328.22 715.344 329.87 716.144 332.57C715.994 332.97 715.744 333.17 715.394 333.17C714.244 333.17 713.319 332.57 712.619 331.37C711.969 330.32 711.644 329.17 711.644 327.92C711.644 327.37 711.844 326.145 712.244 324.245C713.694 317.845 716.219 310.995 719.819 303.695C720.369 302.645 723.869 296.22 730.319 284.42C730.519 284.12 730.619 283.845 730.619 283.595C729.769 282.895 728.819 282.545 727.769 282.545C727.619 282.545 727.406 282.57 727.131 282.62C726.856 282.67 726.669 282.695 726.569 282.695C726.369 282.695 726.131 282.657 725.856 282.582C725.581 282.507 725.369 282.47 725.219 282.47C723.669 282.47 720.644 282.945 716.144 283.895C711.244 284.945 708.594 285.77 708.194 286.37C707.794 286.97 707.519 288.22 707.369 290.12C707.169 291.82 706.669 293.045 705.869 293.795C705.719 293.845 705.469 293.87 705.119 293.87C703.619 293.87 702.869 293.245 702.869 291.995C702.869 291.695 703.019 291.07 703.319 290.12C703.719 288.97 703.944 288.27 703.994 288.02C704.194 286.57 704.406 285.082 704.631 283.557C704.856 282.032 705.319 280.645 706.019 279.395C706.469 279.445 706.844 279.67 707.144 280.07C707.444 280.47 707.719 280.87 707.969 281.27L708.419 281.345C709.119 281.395 710.494 281.07 712.544 280.37C715.044 279.57 716.519 279.12 716.969 279.02C719.569 278.52 722.194 278.27 724.844 278.27C726.794 278.27 728.944 278.52 731.294 279.02C732.194 279.22 733.419 279.72 734.969 280.52C736.819 281.42 737.744 282.145 737.744 282.695Z" fill="#ffffff" fill-rule="evenodd" opacity="1" stroke="none"/>
</g>
<g opacity="1">
<g opacity="1">
<path d="M538.753 305.72C538.753 272.582 565.616 245.72 598.753 245.72C631.89 245.72 658.753 272.582 658.753 305.72C658.753 338.857 631.89 365.72 598.753 365.72C565.616 365.72 538.753 338.857 538.753 305.72Z" fill="#543500" fill-rule="evenodd" opacity="1" stroke="none"/>
<path d="M541.753 305.72C541.753 274.239 567.273 248.72 598.753 248.72C630.233 248.72 655.753 274.239 655.753 305.72C655.753 337.2 630.233 362.72 598.753 362.72C567.273 362.72 541.753 337.2 541.753 305.72Z" fill="#764730" fill-rule="evenodd" opacity="1" stroke="none"/>
</g>
<path d="M616.191 282.695C616.191 282.845 615.691 283.495 614.691 284.645C613.541 285.945 612.941 286.62 612.891 286.67C606.091 295.92 601.366 303.895 598.716 310.595C597.566 313.395 596.441 316.17 595.341 318.92C594.041 322.42 593.391 325.32 593.391 327.62C593.391 328.22 593.791 329.87 594.591 332.57C594.441 332.97 594.191 333.17 593.841 333.17C592.691 333.17 591.766 332.57 591.066 331.37C590.416 330.32 590.091 329.17 590.091 327.92C590.091 327.37 590.291 326.145 590.691 324.245C592.141 317.845 594.666 310.995 598.266 303.695C598.816 302.645 602.316 296.22 608.766 284.42C608.966 284.12 609.066 283.845 609.066 283.595C608.216 282.895 607.266 282.545 606.216 282.545C606.066 282.545 605.853 282.57 605.578 282.62C605.303 282.67 605.116 282.695 605.016 282.695C604.816 282.695 604.578 282.657 604.303 282.582C604.028 282.507 603.816 282.47 603.666 282.47C602.116 282.47 599.091 282.945 594.591 283.895C589.691 284.945 587.041 285.77 586.641 286.37C586.241 286.97 585.966 288.22 585.816 290.12C585.616 291.82 585.116 293.045 584.316 293.795C584.166 293.845 583.916 293.87 583.566 293.87C582.066 293.87 581.316 293.245 581.316 291.995C581.316 291.695 581.466 291.07 581.766 290.12C582.166 288.97 582.391 288.27 582.441 288.02C582.641 286.57 582.853 285.082 583.078 283.557C583.303 282.032 583.766 280.645 584.466 279.395C584.916 279.445 585.291 279.67 585.591 280.07C585.891 280.47 586.166 280.87 586.416 281.27L586.866 281.345C587.566 281.395 588.941 281.07 590.991 280.37C593.491 279.57 594.966 279.12 595.416 279.02C598.016 278.52 600.641 278.27 603.291 278.27C605.241 278.27 607.391 278.52 609.741 279.02C610.641 279.22 611.866 279.72 613.416 280.52C615.266 281.42 616.191 282.145 616.191 282.695Z" fill="#ffffff" fill-rule="evenodd" opacity="1" stroke="none"/>
</g>
<g opacity="1">
<g opacity="1">
<path d="M295.648 305.72C295.648 272.582 322.511 245.72 355.648 245.72C388.785 245.72 415.648 272.582 415.648 305.72C415.648 338.857 388.785 365.72 355.648 365.72C322.511 365.72 295.648 338.857 295.648 305.72Z" fill="#543500" fill-rule="evenodd" opacity="1" stroke="none"/>
<path d="M298.648 305.72C298.648 274.239 324.168 248.72 355.648 248.72C387.128 248.72 412.648 274.239 412.648 305.72C412.648 337.2 387.128 362.72 355.648 362.72C324.168 362.72 298.648 337.2 298.648 305.72Z" fill="#764730" fill-rule="evenodd" opacity="1" stroke="none"/>
</g>
<path d="M373.085 282.695C373.085 282.845 372.585 283.495 371.585 284.645C370.435 285.945 369.835 286.62 369.785 286.67C362.985 295.92 358.26 303.895 355.61 310.595C354.46 313.395 353.335 316.17 352.235 318.92C350.935 322.42 350.285 325.32 350.285 327.62C350.285 328.22 350.685 329.87 351.485 332.57C351.335 332.97 351.085 333.17 350.735 333.17C349.585 333.17 348.66 332.57 347.96 331.37C347.31 330.32 346.985 329.17 346.985 327.92C346.985 327.37 347.185 326.145 347.585 324.245C349.035 317.845 351.56 310.995 355.16 303.695C355.71 302.645 359.21 296.22 365.66 284.42C365.86 284.12 365.96 283.845 365.96 283.595C365.11 282.895 364.16 282.545 363.11 282.545C362.96 282.545 362.748 282.57 362.473 282.62C362.198 282.67 362.01 282.695 361.91 282.695C361.71 282.695 361.473 282.657 361.198 282.582C360.923 282.507 360.71 282.47 360.56 282.47C359.01 282.47 355.985 282.945 351.485 283.895C346.585 284.945 343.935 285.77 343.535 286.37C343.135 286.97 342.86 288.22 342.71 290.12C342.51 291.82 342.01 293.045 341.21 293.795C341.06 293.845 340.81 293.87 340.46 293.87C338.96 293.87 338.21 293.245 338.21 291.995C338.21 291.695 338.36 291.07 338.66 290.12C339.06 288.97 339.285 288.27 339.335 288.02C339.535 286.57 339.748 285.082 339.973 283.557C340.198 282.032 340.66 280.645 341.36 279.395C341.81 279.445 342.185 279.67 342.485 280.07C342.785 280.47 343.06 280.87 343.31 281.27L343.76 281.345C344.46 281.395 345.835 281.07 347.885 280.37C350.385 279.57 351.86 279.12 352.31 279.02C354.91 278.52 357.535 278.27 360.185 278.27C362.135 278.27 364.285 278.52 366.635 279.02C367.535 279.22 368.76 279.72 370.31 280.52C372.16 281.42 373.085 282.145 373.085 282.695Z" fill="#ffffff" fill-rule="evenodd" opacity="1" stroke="none"/>
</g>
<g opacity="1">
<g opacity="1">
<path d="M781.859 305.72C781.859 272.582 808.722 245.72 841.859 245.72C874.996 245.72 901.859 272.582 901.859 305.72C901.859 338.857 874.996 365.72 841.859 365.72C808.722 365.72 781.859 338.857 781.859 305.72Z" fill="#543500" fill-rule="evenodd" opacity="1" stroke="none"/>
<path d="M784.859 305.72C784.859 274.239 810.379 248.72 841.859 248.72C873.339 248.72 898.859 274.239 898.859 305.72C898.859 337.2 873.339 362.72 841.859 362.72C810.379 362.72 784.859 337.2 784.859 305.72Z" fill="#764730" fill-rule="evenodd" opacity="1" stroke="none"/>
</g>
<path d="M859.297 282.695C859.297 282.845 858.797 283.495 857.797 284.645C856.647 285.945 856.047 286.62 855.997 286.67C849.197 295.92 844.472 303.895 841.822 310.595C840.672 313.395 839.547 316.17 838.447 318.92C837.147 322.42 836.497 325.32 836.497 327.62C836.497 328.22 836.897 329.87 837.697 332.57C837.547 332.97 837.297 333.17 836.947 333.17C835.797 333.17 834.872 332.57 834.172 331.37C833.522 330.32 833.197 329.17 833.197 327.92C833.197 327.37 833.397 326.145 833.797 324.245C835.247 317.845 837.772 310.995 841.372 303.695C841.922 302.645 845.422 296.22 851.872 284.42C852.072 284.12 852.172 283.845 852.172 283.595C851.322 282.895 850.372 282.545 849.322 282.545C849.172 282.545 848.959 282.57 848.684 282.62C848.409 282.67 848.222 282.695 848.122 282.695C847.922 282.695 847.684 282.657 847.409 282.582C847.134 282.507 846.922 282.47 846.772 282.47C845.222 282.47 842.197 282.945 837.697 283.895C832.797 284.945 830.147 285.77 829.747 286.37C829.347 286.97 829.072 288.22 828.922 290.12C828.722 291.82 828.222 293.045 827.422 293.795C827.272 293.845 827.022 293.87 826.672 293.87C825.172 293.87 824.422 293.245 824.422 291.995C824.422 291.695 824.572 291.07 824.872 290.12C825.272 288.97 825.497 288.27 825.547 288.02C825.747 286.57 825.959 285.082 826.184 283.557C826.409 282.032 826.872 280.645 827.572 279.395C828.022 279.445 828.397 279.67 828.697 280.07C828.997 280.47 829.272 280.87 829.522 281.27L829.972 281.345C830.672 281.395 832.047 281.07 834.097 280.37C836.597 279.57 838.072 279.12 838.522 279.02C841.122 278.52 843.747 278.27 846.397 278.27C848.347 278.27 850.497 278.52 852.847 279.02C853.747 279.22 854.972 279.72 856.522 280.52C858.372 281.42 859.297 282.145 859.297 282.695Z" fill="#ffffff" fill-rule="evenodd" opacity="1" stroke="none"/>
</g>
<g opacity="1">
<g opacity="1">
<path d="M903.412 305.72C903.412 272.582 930.275 245.72 963.412 245.72C996.549 245.72 1023.41 272.582 1023.41 305.72C1023.41 338.857 996.549 365.72 963.412 365.72C930.275 365.72 903.412 338.857 903.412 305.72Z" fill="#543500" fill-rule="evenodd" opacity="1" stroke="none"/>
<path d="M906.412 305.72C906.412 274.239 931.932 248.72 963.412 248.72C994.892 248.72 1020.41 274.239 1020.41 305.72C1020.41 337.2 994.892 362.72 963.412 362.72C931.932 362.72 906.412 337.2 906.412 305.72Z" fill="#764730" fill-rule="evenodd" opacity="1" stroke="none"/>
</g>
<path d="M980.849 282.695C980.849 282.845 980.349 283.495 979.349 284.645C978.199 285.945 977.599 286.62 977.549 286.67C970.749 295.92 966.024 303.895 963.374 310.595C962.224 313.395 961.099 316.17 959.999 318.92C958.699 322.42 958.049 325.32 958.049 327.62C958.049 328.22 958.449 329.87 959.249 332.57C959.099 332.97 958.849 333.17 958.499 333.17C957.349 333.17 956.424 332.57 955.724 331.37C955.074 330.32 954.749 329.17 954.749 327.92C954.749 327.37 954.949 326.145 955.349 324.245C956.799 317.845 959.324 310.995 962.924 303.695C963.474 302.645 966.974 296.22 973.424 284.42C973.624 284.12 973.724 283.845 973.724 283.595C972.874 282.895 971.924 282.545 970.874 282.545C970.724 282.545 970.512 282.57 970.237 282.62C969.962 282.67 969.774 282.695 969.674 282.695C969.474 282.695 969.237 282.657 968.962 282.582C968.687 282.507 968.474 282.47 968.324 282.47C966.774 282.47 963.749 282.945 959.249 283.895C954.349 284.945 951.699 285.77 951.299 286.37C950.899 286.97 950.624 288.22 950.474 290.12C950.274 291.82 949.774 293.045 948.974 293.795C948.824 293.845 948.574 293.87 948.224 293.87C946.724 293.87 945.974 293.245 945.974 291.995C945.974 291.695 946.124 291.07 946.424 290.12C946.824 288.97 947.049 288.27 947.099 288.02C947.299 286.57 947.512 285.082 947.737 283.557C947.962 282.032 948.424 280.645 949.124 279.395C949.574 279.445 949.949 279.67 950.249 280.07C950.549 280.47 950.824 280.87 951.074 281.27L951.524 281.345C952.224 281.395 953.599 281.07 955.649 280.37C958.149 279.57 959.624 279.12 960.074 279.02C962.674 278.52 965.299 278.27 967.949 278.27C969.899 278.27 972.049 278.52 974.399 279.02C975.299 279.22 976.524 279.72 978.074 280.52C979.924 281.42 980.849 282.145 980.849 282.695Z" fill="#ffffff" fill-rule="evenodd" opacity="1" stroke="none"/>
</g>
</g>
<g opacity="1">
<g opacity="1">
<g opacity="1">
<path d="M417.2 462.28C417.2 429.142 444.063 402.28 477.2 402.28C510.337 402.28 537.2 429.142 537.2 462.28C537.2 495.417 510.337 522.28 477.2 522.28C444.063 522.28 417.2 495.417 417.2 462.28Z" fill="#543500" fill-rule="evenodd" opacity="1" stroke="none"/>
<path d="M420.2 462.28C420.2 430.799 445.72 405.28 477.2 405.28C508.68 405.28 534.2 430.799 534.2 462.28C534.2 493.76 508.68 519.28 477.2 519.28C445.72 519.28 420.2 493.76 420.2 462.28Z" fill="#764730" fill-rule="evenodd" opacity="1" stroke="none"/>
</g>
<path d="M494.638 439.255C494.638 439.405 494.138 440.055 493.138 441.205C491.988 442.505 491.388 443.18 491.338 443.23C484.538 452.48 479.813 460.455 477.163 467.155C476.013 469.955 474.888 472.73 473.788 475.48C472.488 478.98 471.838 481.88 471.838 484.18C471.838 484.78 472.238 486.43 473.038 489.13C472.888 489.53 472.638 489.73 472.288 489.73C471.138 489.73 470.213 489.13 469.513 487.93C468.863 486.88 468.538 485.73 468.538 484.48C468.538 483.93 468.738 482.705 469.138 480.805C470.588 474.405 473.113 467.555 476.713 460.255C477.263 459.205 480.763 452.78 487.213 440.98C487.413 440.68 487.513 440.405 487.513 440.155C486.663 439.455 485.713 439.105 484.663 439.105C484.513 439.105 484.3 439.13 484.025 439.18C483.75 439.23 483.563 439.255 483.463 439.255C483.263 439.255 483.025 439.218 482.75 439.143C482.475 439.068 482.263 439.03 482.113 439.03C480.563 439.03 477.538 439.505 473.038 440.455C468.138 441.505 465.488 442.33 465.088 442.93C464.688 443.53 464.413 444.78 464.263 446.68C464.063 448.38 463.563 449.605 462.763 450.355C462.613 450.405 462.363 450.43 462.013 450.43C460.513 450.43 459.763 449.805 459.763 448.555C459.763 448.255 459.913 447.63 460.213 446.68C460.613 445.53 460.838 444.83 460.888 444.58C461.088 443.13 461.3 441.643 461.525 440.118C461.75 438.593 462.213 437.205 462.913 435.955C463.363 436.005 463.738 436.23 464.038 436.63C464.338 437.03 464.613 437.43 464.863 437.83L465.313 437.905C466.013 437.955 467.388 437.63 469.438 436.93C471.938 436.13 473.413 435.68 473.863 435.58C476.463 435.08 479.088 434.83 481.738 434.83C483.688 434.83 485.838 435.08 488.188 435.58C489.088 435.78 490.313 436.28 491.863 437.08C493.713 437.98 494.638 438.705 494.638 439.255Z" fill="#ffffff" fill-rule="evenodd" opacity="1" stroke="none"/>
</g>
<g opacity="1">
<g opacity="1">
<path d="M174.095 462.28C174.095 429.142 200.958 402.28 234.095 402.28C267.232 402.28 294.095 429.142 294.095 462.28C294.095 495.417 267.232 522.28 234.095 522.28C200.958 522.28 174.095 495.417 174.095 462.28Z" fill="#543500" fill-rule="evenodd" opacity="1" stroke="none"/>
<path d="M177.095 462.28C177.095 430.799 202.615 405.28 234.095 405.28C265.575 405.28 291.095 430.799 291.095 462.28C291.095 493.76 265.575 519.28 234.095 519.28C202.615 519.28 177.095 493.76 177.095 462.28Z" fill="#764730" fill-rule="evenodd" opacity="1" stroke="none"/>
</g>
<path d="M251.532 439.255C251.532 439.405 251.032 440.055 250.032 441.205C248.882 442.505 248.282 443.18 248.232 443.23C241.432 452.48 236.707 460.455 234.057 467.155C232.907 469.955 231.782 472.73 230.682 475.48C229.382 478.98 228.732 481.88 228.732 484.18C228.732 484.78 229.132 486.43 229.932 489.13C229.782 489.53 229.532 489.73 229.182 489.73C228.032 489.73 227.107 489.13 226.407 487.93C225.757 486.88 225.432 485.73 225.432 484.48C225.432 483.93 225.632 482.705 226.032 480.805C227.482 474.405 230.007 467.555 233.607 460.255C234.157 459.205 237.657 452.78 244.107 440.98C244.307 440.68 244.407 440.405 244.407 440.155C243.557 439.455 242.607 439.105 241.557 439.105C241.407 439.105 241.195 439.13 240.92 439.18C240.645 439.23 240.457 439.255 240.357 439.255C240.157 439.255 239.92 439.218 239.645 439.143C239.37 439.068 239.157 439.03 239.007 439.03C237.457 439.03 234.432 439.505 229.932 440.455C225.032 441.505 222.382 442.33 221.982 442.93C221.582 443.53 221.307 444.78 221.157 446.68C220.957 448.38 220.457 449.605 219.657 450.355C219.507 450.405 219.257 450.43 218.907 450.43C217.407 450.43 216.657 449.805 216.657 448.555C216.657 448.255 216.807 447.63 217.107 446.68C217.507 445.53 217.732 444.83 217.782 444.58C217.982 443.13 218.195 441.643 218.42 440.118C218.645 438.593 219.107 437.205 219.807 435.955C220.257 436.005 220.632 436.23 220.932 436.63C221.232 437.03 221.507 437.43 221.757 437.83L222.207 437.905C222.907 437.955 224.282 437.63 226.332 436.93C228.832 436.13 230.307 435.68 230.757 435.58C233.357 435.08 235.982 434.83 238.632 434.83C240.582 434.83 242.732 435.08 245.082 435.58C245.982 435.78 247.207 436.28 248.757 437.08C250.607 437.98 251.532 438.705 251.532 439.255Z" fill="#ffffff" fill-rule="evenodd" opacity="1" stroke="none"/>
</g>
<g opacity="1">
<g opacity="1">
<path d="M660.306 462.28C660.306 429.142 687.169 402.28 720.306 402.28C753.443 402.28 780.306 429.142 780.306 462.28C780.306 495.417 753.443 522.28 720.306 522.28C687.169 522.28 660.306 495.417 660.306 462.28Z" fill="#543500" fill-rule="evenodd" opacity="1" stroke="none"/>
<path d="M663.306 462.28C663.306 430.799 688.826 405.28 720.306 405.28C751.786 405.28 777.306 430.799 777.306 462.28C777.306 493.76 751.786 519.28 720.306 519.28C688.826 519.28 663.306 493.76 663.306 462.28Z" fill="#764730" fill-rule="evenodd" opacity="1" stroke="none"/>
</g>
<path d="M737.744 439.255C737.744 439.405 737.244 440.055 736.244 441.205C735.094 442.505 734.494 443.18 734.444 443.23C727.644 452.48 722.919 460.455 720.269 467.155C719.119 469.955 717.994 472.73 716.894 475.48C715.594 478.98 714.944 481.88 714.944 484.18C714.944 484.78 715.344 486.43 716.144 489.13C715.994 489.53 715.744 489.73 715.394 489.73C714.244 489.73 713.319 489.13 712.619 487.93C711.969 486.88 711.644 485.73 711.644 484.48C711.644 483.93 711.844 482.705 712.244 480.805C713.694 474.405 716.219 467.555 719.819 460.255C720.369 459.205 723.869 452.78 730.319 440.98C730.519 440.68 730.619 440.405 730.619 440.155C729.769 439.455 728.819 439.105 727.769 439.105C727.619 439.105 727.406 439.13 727.131 439.18C726.856 439.23 726.669 439.255 726.569 439.255C726.369 439.255 726.131 439.218 725.856 439.143C725.581 439.068 725.369 439.03 725.219 439.03C723.669 439.03 720.644 439.505 716.144 440.455C711.244 441.505 708.594 442.33 708.194 442.93C707.794 443.53 707.519 444.78 707.369 446.68C707.169 448.38 706.669 449.605 705.869 450.355C705.719 450.405 705.469 450.43 705.119 450.43C703.619 450.43 702.869 449.805 702.869 448.555C702.869 448.255 703.019 447.63 703.319 446.68C703.719 445.53 703.944 444.83 703.994 444.58C704.194 443.13 704.406 441.643 704.631 440.118C704.856 438.593 705.319 437.205 706.019 435.955C706.469 436.005 706.844 436.23 707.144 436.63C707.444 437.03 707.719 437.43 707.969 437.83L708.419 437.905C709.119 437.955 710.494 437.63 712.544 436.93C715.044 436.13 716.519 435.68 716.969 435.58C719.569 435.08 722.194 434.83 724.844 434.83C726.794 434.83 728.944 435.08 731.294 435.58C732.194 435.78 733.419 436.28 734.969 437.08C736.819 437.98 737.744 438.705 737.744 439.255Z" fill="#ffffff" fill-rule="evenodd" opacity="1" stroke="none"/>
</g>
<g opacity="1">
<g opacity="1">
<path d="M538.753 462.28C538.753 429.142 565.616 402.28 598.753 402.28C631.89 402.28 658.753 429.142 658.753 462.28C658.753 495.417 631.89 522.28 598.753 522.28C565.616 522.28 538.753 495.417 538.753 462.28Z" fill="#543500" fill-rule="evenodd" opacity="1" stroke="none"/>
<path d="M541.753 462.28C541.753 430.799 567.273 405.28 598.753 405.28C630.233 405.28 655.753 430.799 655.753 462.28C655.753 493.76 630.233 519.28 598.753 519.28C567.273 519.28 541.753 493.76 541.753 462.28Z" fill="#764730" fill-rule="evenodd" opacity="1" stroke="none"/>
</g>
<path d="M616.191 439.255C616.191 439.405 615.691 440.055 614.691 441.205C613.541 442.505 612.941 443.18 612.891 443.23C606.091 452.48 601.366 460.455 598.716 467.155C597.566 469.955 596.441 472.73 595.341 475.48C594.041 478.98 593.391 481.88 593.391 484.18C593.391 484.78 593.791 486.43 594.591 489.13C594.441 489.53 594.191 489.73 593.841 489.73C592.691 489.73 591.766 489.13 591.066 487.93C590.416 486.88 590.091 485.73 590.091 484.48C590.091 483.93 590.291 482.705 590.691 480.805C592.141 474.405 594.666 467.555 598.266 460.255C598.816 459.205 602.316 452.78 608.766 440.98C608.966 440.68 609.066 440.405 609.066 440.155C608.216 439.455 607.266 439.105 606.216 439.105C606.066 439.105 605.853 439.13 605.578 439.18C605.303 439.23 605.116 439.255 605.016 439.255C604.816 439.255 604.578 439.218 604.303 439.143C604.028 439.068 603.816 439.03 603.666 439.03C602.116 439.03 599.091 439.505 594.591 440.455C589.691 441.505 587.041 442.33 586.641 442.93C586.241 443.53 585.966 444.78 585.816 446.68C585.616 448.38 585.116 449.605 584.316 450.355C584.166 450.405 583.916 450.43 583.566 450.43C582.066 450.43 581.316 449.805 581.316 448.555C581.316 448.255 581.466 447.63 581.766 446.68C582.166 445.53 582.391 444.83 582.441 444.58C582.641 443.13 582.853 441.643 583.078 440.118C583.303 438.593 583.766 437.205 584.466 435.955C584.916 436.005 585.291 436.23 585.591 436.63C585.891 437.03 586.166 437.43 586.416 437.83L586.866 437.905C587.566 437.955 588.941 437.63 590.991 436.93C593.491 436.13 594.966 435.68 595.416 435.58C598.016 435.08 600.641 434.83 603.291 434.83C605.241 434.83 607.391 435.08 609.741 435.58C610.641 435.78 611.866 436.28 613.416 437.08C615.266 437.98 616.191 438.705 616.191 439.255Z" fill="#ffffff" fill-rule="evenodd" opacity="1" stroke="none"/>
</g>
<g opacity="1">
<g opacity="1">
<path d="M295.648 462.28C295.648 429.142 322.511 402.28 355.648 402.28C388.785 402.28 415.648 429.142 415.648 462.28C415.648 495.417 388.785 522.28 355.648 522.28C322.511 522.28 295.648 495.417 295.648 462.28Z" fill="#543500" fill-rule="evenodd" opacity="1" stroke="none"/>
<path d="M298.648 462.28C298.648 430.799 324.168 405.28 355.648 405.28C387.128 405.28 412.648 430.799 412.648 462.28C412.648 493.76 387.128 519.28 355.648 519.28C324.168 519.28 298.648 493.76 298.648 462.28Z" fill="#764730" fill-rule="evenodd" opacity="1" stroke="none"/>
</g>
<path d="M373.085 439.255C373.085 439.405 372.585 440.055 371.585 441.205C370.435 442.505 369.835 443.18 369.785 443.23C362.985 452.48 358.26 460.455 355.61 467.155C354.46 469.955 353.335 472.73 352.235 475.48C350.935 478.98 350.285 481.88 350.285 484.18C350.285 484.78 350.685 486.43 351.485 489.13C351.335 489.53 351.085 489.73 350.735 489.73C349.585 489.73 348.66 489.13 347.96 487.93C347.31 486.88 346.985 485.73 346.985 484.48C346.985 483.93 347.185 482.705 347.585 480.805C349.035 474.405 351.56 467.555 355.16 460.255C355.71 459.205 359.21 452.78 365.66 440.98C365.86 440.68 365.96 440.405 365.96 440.155C365.11 439.455 364.16 439.105 363.11 439.105C362.96 439.105 362.748 439.13 362.473 439.18C362.198 439.23 362.01 439.255 361.91 439.255C361.71 439.255 361.473 439.218 361.198 439.143C360.923 439.068 360.71 439.03 360.56 439.03C359.01 439.03 355.985 439.505 351.485 440.455C346.585 441.505 343.935 442.33 343.535 442.93C343.135 443.53 342.86 444.78 342.71 446.68C342.51 448.38 342.01 449.605 341.21 450.355C341.06 450.405 340.81 450.43 340.46 450.43C338.96 450.43 338.21 449.805 338.21 448.555C338.21 448.255 338.36 447.63 338.66 446.68C339.06 445.53 339.285 444.83 339.335 444.58C339.535 443.13 339.748 441.643 339.973 440.118C340.198 438.593 340.66 437.205 341.36 435.955C341.81 436.005 342.185 436.23 342.485 436.63C342.785 437.03 343.06 437.43 343.31 437.83L343.76 437.905C344.46 437.955 345.835 437.63 347.885 436.93C350.385 436.13 351.86 435.68 352.31 435.58C354.91 435.08 357.535 434.83 360.185 434.83C362.135 434.83 364.285 435.08 366.635 435.58C367.535 435.78 368.76 436.28 370.31 437.08C372.16 437.98 373.085 438.705 373.085 439.255Z" fill="#ffffff" fill-rule="evenodd" opacity="1" stroke="none"/>
</g>
<g opacity="1">
<g opacity="1">
<path d="M781.859 462.28C781.859 429.142 808.722 402.28 841.859 402.28C874.996 402.28 901.859 429.142 901.859 462.28C901.859 495.417 874.996 522.28 841.859 522.28C808.722 522.28 781.859 495.417 781.859 462.28Z" fill="#543500" fill-rule="evenodd" opacity="1" stroke="none"/>
<path d="M784.859 462.28C784.859 430.799 810.379 405.28 841.859 405.28C873.339 405.28 898.859 430.799 898.859 462.28C898.859 493.76 873.339 519.28 841.859 519.28C810.379 519.28 784.859 493.76 784.859 462.28Z" fill="#764730" fill-rule="evenodd" opacity="1" stroke="none"/>
</g>
<path d="M859.297 439.255C859.297 439.405 858.797 440.055 857.797 441.205C856.647 442.505 856.047 443.18 855.997 443.23C849.197 452.48 844.472 460.455 841.822 467.155C840.672 469.955 839.547 472.73 838.447 475.48C837.147 478.98 836.497 481.88 836.497 484.18C836.497 484.78 836.897 486.43 837.697 489.13C837.547 489.53 837.297 489.73 836.947 489.73C835.797 489.73 834.872 489.13 834.172 487.93C833.522 486.88 833.197 485.73 833.197 484.48C833.197 483.93 833.397 482.705 833.797 480.805C835.247 474.405 837.772 467.555 841.372 460.255C841.922 459.205 845.422 452.78 851.872 440.98C852.072 440.68 852.172 440.405 852.172 440.155C851.322 439.455 850.372 439.105 849.322 439.105C849.172 439.105 848.959 439.13 848.684 439.18C848.409 439.23 848.222 439.255 848.122 439.255C847.922 439.255 847.684 439.218 847.409 439.143C847.134 439.068 846.922 439.03 846.772 439.03C845.222 439.03 842.197 439.505 837.697 440.455C832.797 441.505 830.147 442.33 829.747 442.93C829.347 443.53 829.072 444.78 828.922 446.68C828.722 448.38 828.222 449.605 827.422 450.355C827.272 450.405 827.022 450.43 826.672 450.43C825.172 450.43 824.422 449.805 824.422 448.555C824.422 448.255 824.572 447.63 824.872 446.68C825.272 445.53 825.497 444.83 825.547 444.58C825.747 443.13 825.959 441.643 826.184 440.118C826.409 438.593 826.872 437.205 827.572 435.955C828.022 436.005 828.397 436.23 828.697 436.63C828.997 437.03 829.272 437.43 829.522 437.83L829.972 437.905C830.672 437.955 832.047 437.63 834.097 436.93C836.597 436.13 838.072 435.68 838.522 435.58C841.122 435.08 843.747 434.83 846.397 434.83C848.347 434.83 850.497 435.08 852.847 435.58C853.747 435.78 854.972 436.28 856.522 437.08C858.372 437.98 859.297 438.705 859.297 439.255Z" fill="#ffffff" fill-rule="evenodd" opacity="1" stroke="none"/>
</g>
<g opacity="1">
<g opacity="1">
<path d="M903.412 462.28C903.412 429.142 930.275 402.28 963.412 402.28C996.549 402.28 1023.41 429.142 1023.41 462.28C1023.41 495.417 996.549 522.28 963.412 522.28C930.275 522.28 903.412 495.417 903.412 462.28Z" fill="#543500" fill-rule="evenodd" opacity="1" stroke="none"/>
<path d="M906.412 462.28C906.412 430.799 931.932 405.28 963.412 405.28C994.892 405.28 1020.41 430.799 1020.41 462.28C1020.41 493.76 994.892 519.28 963.412 519.28C931.932 519.28 906.412 493.76 906.412 462.28Z" fill="#764730" fill-rule="evenodd" opacity="1" stroke="none"/>
</g>
<path d="M980.849 439.255C980.849 439.405 980.349 440.055 979.349 441.205C978.199 442.505 977.599 443.18 977.549 443.23C970.749 452.48 966.024 460.455 963.374 467.155C962.224 469.955 961.099 472.73 959.999 475.48C958.699 478.98 958.049 481.88 958.049 484.18C958.049 484.78 958.449 486.43 959.249 489.13C959.099 489.53 958.849 489.73 958.499 489.73C957.349 489.73 956.424 489.13 955.724 487.93C955.074 486.88 954.749 485.73 954.749 484.48C954.749 483.93 954.949 482.705 955.349 480.805C956.799 474.405 959.324 467.555 962.924 460.255C963.474 459.205 966.974 452.78 973.424 440.98C973.624 440.68 973.724 440.405 973.724 440.155C972.874 439.455 971.924 439.105 970.874 439.105C970.724 439.105 970.512 439.13 970.237 439.18C969.962 439.23 969.774 439.255 969.674 439.255C969.474 439.255 969.237 439.218 968.962 439.143C968.687 439.068 968.474 439.03 968.324 439.03C966.774 439.03 963.749 439.505 959.249 440.455C954.349 441.505 951.699 442.33 951.299 442.93C950.899 443.53 950.624 444.78 950.474 446.68C950.274 448.38 949.774 449.605 948.974 450.355C948.824 450.405 948.574 450.43 948.224 450.43C946.724 450.43 945.974 449.805 945.974 448.555C945.974 448.255 946.124 447.63 946.424 446.68C946.824 445.53 947.049 444.83 947.099 444.58C947.299 443.13 947.512 441.643 947.737 440.118C947.962 438.593 948.424 437.205 949.124 435.955C949.574 436.005 949.949 436.23 950.249 436.63C950.549 437.03 950.824 437.43 951.074 437.83L951.524 437.905C952.224 437.955 953.599 437.63 955.649 436.93C958.149 436.13 959.624 435.68 960.074 435.58C962.674 435.08 965.299 434.83 967.949 434.83C969.899 434.83 972.049 435.08 974.399 435.58C975.299 435.78 976.524 436.28 978.074 437.08C979.924 437.98 980.849 438.705 980.849 439.255Z" fill="#ffffff" fill-rule="evenodd" opacity="1" stroke="none"/>
</g>
</g>
</g>
<g fill="#ffffff" opacity="1" stroke="none"/>
<g fill="#ffffff" opacity="1" stroke="none"/>
</g>
</svg>
